<?xml version="1.0" encoding="UTF-8"?>
<svg id="Lager_2" data-name="Lager 2" xmlns="http://www.w3.org/2000/svg" viewBox="0 0 314.64 63.1">
  <defs>
    <style>
      .cls-1 {
        fill: none;
        stroke: #fff;
        stroke-miterlimit: 10;
        stroke-width: 1.5px;
      }

      .cls-2 {
        fill: #fff;
        stroke-width: 0px;
      }
    </style>
  </defs>
  <g id="Lager_1-2" data-name="Lager 1">
    <g>
      <rect class="cls-1" x=".75" y=".75" width="313.14" height="61.6" rx="22.49" ry="22.49"/>
      <g>
        <path class="cls-2" d="M39.4,41.48c-2.16,0-4.06-.44-5.69-1.33s-2.89-2.11-3.79-3.67c-.9-1.56-1.35-3.33-1.35-5.31s.45-3.78,1.35-5.33c.9-1.55,2.16-2.77,3.79-3.65,1.63-.89,3.52-1.33,5.69-1.33s4.12.44,5.74,1.33c1.62.89,2.87,2.11,3.77,3.65.9,1.55,1.35,3.32,1.35,5.33s-.45,3.75-1.35,5.31c-.9,1.56-2.16,2.78-3.77,3.67-1.62.89-3.53,1.33-5.74,1.33ZM39.4,38.44c1.46,0,2.71-.29,3.77-.89,1.06-.59,1.89-1.43,2.49-2.51.6-1.08.91-2.36.91-3.84s-.3-2.74-.91-3.84-1.43-1.96-2.49-2.56c-1.06-.6-2.32-.91-3.77-.91s-2.69.3-3.76.91c-1.07.6-1.9,1.46-2.48,2.56-.58,1.1-.87,2.38-.87,3.84s.29,2.76.87,3.84c.58,1.08,1.41,1.92,2.48,2.51,1.07.59,2.32.89,3.76.89Z"/>
        <path class="cls-2" d="M52.38,41.14v-2.42h2.19v-8.78h-2.36v-2.39h5.36v3.79l-.34-.31c.55-1.27,1.19-2.23,1.93-2.87s1.55-.96,2.44-.96c.77,0,1.5.2,2.19.61l-1.06,3.18c-.32-.27-.64-.47-.96-.6-.32-.12-.63-.19-.92-.19-.66,0-1.26.22-1.79.67s-.96,1.05-1.28,1.83v6.01h2.53v2.42h-7.92Z"/>
        <path class="cls-2" d="M72.63,47.32c-1.07,0-2.12-.13-3.16-.39-1.04-.26-1.92-.61-2.65-1.04l1.16-2.6c.68.41,1.4.73,2.15.97.75.24,1.51.36,2.29.36,1.34,0,2.33-.34,2.95-1.02.63-.68.94-1.62.94-2.8v-2.08l.51-.41c-.5.8-1.2,1.41-2.1,1.84-.9.43-1.86.65-2.89.65-1.48,0-2.72-.32-3.72-.97-1-.65-1.75-1.5-2.25-2.54-.5-1.05-.75-2.15-.75-3.31s.25-2.25.75-3.28c.5-1.03,1.25-1.86,2.25-2.51,1-.65,2.24-.97,3.72-.97,1.03,0,1.99.22,2.89.65.9.43,1.6,1.05,2.1,1.84l-.27.14v-2.29h5.02v2.39h-2.01v10.66c0,1.43-.28,2.65-.84,3.65s-1.35,1.76-2.37,2.29c-1.02.52-2.27.79-3.72.79ZM72.43,38.1c.77,0,1.52-.14,2.24-.41.72-.27,1.34-.72,1.86-1.33l-.17,1.16v-6.97l.17,1.09c-.52-.62-1.14-1.06-1.86-1.33-.72-.27-1.46-.41-2.24-.41-1.21,0-2.21.35-3.02,1.04-.81.69-1.21,1.7-1.21,3.02s.4,2.34,1.21,3.06c.81.72,1.82,1.08,3.02,1.08Z"/>
        <path class="cls-2" d="M88.79,41.48c-1.64,0-2.89-.38-3.76-1.13-.87-.75-1.3-1.74-1.3-2.97,0-1.3.47-2.3,1.42-3.02.94-.72,2.33-1.08,4.15-1.08.62,0,1.3.06,2.07.17.76.11,1.47.26,2.13.44l-.55.38v-1.64c0-.87-.29-1.53-.85-2-.57-.47-1.42-.7-2.56-.7-.77,0-1.54.1-2.29.31s-1.47.5-2.15.89l-.79-2.53c.87-.48,1.8-.83,2.8-1.06,1-.23,1.91-.34,2.73-.34,2.05,0,3.61.46,4.68,1.38s1.61,2.28,1.61,4.08v6.04h2.01v2.42h-4.95v-2.19l.44.38c-.59.68-1.33,1.21-2.22,1.59-.89.38-1.77.56-2.63.56ZM89.5,39.02c.68,0,1.38-.14,2.1-.41.72-.27,1.27-.63,1.66-1.06l-.31.96v-3.31l.55.89c-.64-.18-1.26-.31-1.88-.39-.61-.08-1.21-.12-1.78-.12-.96,0-1.7.15-2.22.44-.52.3-.79.74-.79,1.33,0,.55.23.96.68,1.25.46.28,1.12.43,1.98.43Z"/>
        <path class="cls-2" d="M99.41,41.14v-2.42h2.19v-8.78h-2.36v-2.39h5.36v2.05l-.44.1c.87-.86,1.8-1.5,2.82-1.89,1.01-.4,2.01-.6,2.99-.6,1.46,0,2.59.38,3.4,1.13.81.75,1.21,1.93,1.21,3.55v6.83h2.01v2.42h-7.41v-2.42h2.19v-6.08c0-.93-.21-1.62-.63-2.05-.42-.43-1.1-.65-2.03-.65-.68,0-1.38.13-2.08.39-.71.26-1.45.72-2.22,1.38l.41-1.06v8.06h2.05v2.42h-7.45Z"/>
        <path class="cls-2" d="M117.85,41.14v-2.42h2.19v-8.78h-2.36v-2.39h5.57v11.17h2.01v2.42h-7.41ZM121.64,25.25c-.66,0-1.17-.19-1.54-.58-.37-.39-.55-.87-.55-1.43,0-.62.18-1.12.55-1.52.36-.4.88-.6,1.54-.6s1.14.2,1.5.6.55.9.55,1.52c0,.57-.18,1.05-.55,1.43-.36.39-.87.58-1.5.58Z"/>
        <path class="cls-2" d="M134.72,41.48c-1.59,0-2.82-.27-3.67-.8-.85-.54-1.44-1.28-1.76-2.24l.79-.24v2.94h-2.29v-4.68h2.05c.11.64.38,1.18.79,1.62.41.44.92.78,1.54,1.01s1.27.34,1.98.34c.96,0,1.66-.16,2.12-.48.46-.32.68-.73.68-1.23,0-.36-.14-.68-.43-.94-.29-.26-.86-.51-1.72-.73l-3.18-.79c-1.18-.32-2.12-.79-2.8-1.4-.68-.61-1.02-1.43-1.02-2.46,0-.89.22-1.65.67-2.29.44-.64,1.08-1.12,1.9-1.45.82-.33,1.76-.5,2.83-.5,1.25,0,2.25.24,2.99.72s1.25,1.15,1.52,2.01l-.75.03v-2.39h2.32v4.34h-2.08c-.05-.64-.24-1.15-.58-1.54-.34-.39-.76-.67-1.26-.85s-1.04-.27-1.6-.27c-.93,0-1.63.16-2.1.48-.47.32-.7.73-.7,1.23,0,.43.16.76.48.99.32.23.85.44,1.6.65l3.18.75c1.25.3,2.21.75,2.89,1.37.67.62,1.01,1.5,1.01,2.66,0,.84-.22,1.57-.67,2.19-.44.62-1.07,1.09-1.86,1.43-.8.34-1.74.51-2.83.51Z"/>
        <path class="cls-2" d="M147.7,41.48c-1.64,0-2.89-.38-3.76-1.13-.87-.75-1.3-1.74-1.3-2.97,0-1.3.47-2.3,1.42-3.02.94-.72,2.33-1.08,4.15-1.08.62,0,1.3.06,2.07.17.76.11,1.47.26,2.13.44l-.55.38v-1.64c0-.87-.29-1.53-.85-2-.57-.47-1.42-.7-2.56-.7-.77,0-1.54.1-2.29.31s-1.47.5-2.15.89l-.79-2.53c.87-.48,1.8-.83,2.8-1.06,1-.23,1.91-.34,2.73-.34,2.05,0,3.61.46,4.68,1.38s1.61,2.28,1.61,4.08v6.04h2.01v2.42h-4.95v-2.19l.44.38c-.59.68-1.33,1.21-2.22,1.59-.89.38-1.77.56-2.63.56ZM148.42,39.02c.68,0,1.38-.14,2.1-.41.72-.27,1.27-.63,1.66-1.06l-.31.96v-3.31l.55.89c-.64-.18-1.26-.31-1.88-.39-.61-.08-1.21-.12-1.78-.12-.96,0-1.7.15-2.22.44-.52.3-.79.74-.79,1.33,0,.55.23.96.68,1.25.46.28,1.12.43,1.98.43Z"/>
        <path class="cls-2" d="M165.08,41.48c-1.43,0-2.61-.39-3.54-1.18-.92-.79-1.38-2.05-1.38-3.81v-6.56h-2.36v-2.39h2.36v-4.51l3.21-.58v5.09h3.76v2.39h-3.76v6.11c0,1.02.22,1.73.67,2.12.44.39,1.05.58,1.83.58.3,0,.59-.04.89-.12s.56-.17.79-.26l.41,2.39c-.34.21-.77.38-1.28.51s-1.04.21-1.59.21Z"/>
        <path class="cls-2" d="M168.94,41.14v-2.42h2.19v-8.78h-2.36v-2.39h5.57v11.17h2.01v2.42h-7.41ZM172.73,25.25c-.66,0-1.17-.19-1.54-.58-.37-.39-.55-.87-.55-1.43,0-.62.18-1.12.55-1.52.36-.4.88-.6,1.54-.6s1.14.2,1.5.6.55.9.55,1.52c0,.57-.18,1.05-.55,1.43-.36.39-.87.58-1.5.58Z"/>
        <path class="cls-2" d="M185.78,41.48c-1.48,0-2.77-.32-3.88-.96-1.1-.64-1.96-1.5-2.56-2.58-.6-1.08-.91-2.29-.91-3.64s.3-2.55.91-3.62c.6-1.07,1.46-1.92,2.56-2.54,1.1-.63,2.4-.94,3.88-.94s2.74.31,3.84.94c1.1.63,1.96,1.47,2.58,2.54.61,1.07.92,2.28.92,3.62s-.31,2.56-.92,3.64c-.62,1.08-1.47,1.94-2.58,2.58-1.1.64-2.38.96-3.84.96ZM185.78,38.85c1.25,0,2.27-.42,3.06-1.26.79-.84,1.18-1.93,1.18-3.28s-.39-2.4-1.18-3.23-1.8-1.25-3.06-1.25-2.33.42-3.11,1.25c-.77.83-1.16,1.91-1.16,3.23s.39,2.44,1.16,3.28c.77.84,1.81,1.26,3.11,1.26Z"/>
        <path class="cls-2" d="M195.03,41.14v-2.42h2.19v-8.78h-2.36v-2.39h5.36v2.05l-.44.1c.87-.86,1.8-1.5,2.82-1.89,1.01-.4,2.01-.6,2.99-.6,1.46,0,2.59.38,3.4,1.13.81.75,1.21,1.93,1.21,3.55v6.83h2.01v2.42h-7.41v-2.42h2.19v-6.08c0-.93-.21-1.62-.63-2.05-.42-.43-1.1-.65-2.03-.65-.68,0-1.38.13-2.08.39-.71.26-1.45.72-2.22,1.38l.41-1.06v8.06h2.05v2.42h-7.45Z"/>
        <path class="cls-2" d="M224.06,41.14v-1.91l6.76-7.1c1.12-1.18,1.92-2.17,2.42-2.97s.75-1.58.75-2.36c0-1.05-.27-1.84-.8-2.39-.54-.55-1.4-.82-2.58-.82s-2.12.31-2.73.92c-.62.61-.92,1.48-.92,2.6,0,.34.02.66.07.96s.11.61.21.96h-2.8c-.09-.36-.17-.74-.22-1.13-.06-.39-.08-.8-.08-1.23,0-1.78.61-3.18,1.83-4.22,1.22-1.04,2.84-1.55,4.87-1.55,1.91,0,3.44.5,4.58,1.49,1.14.99,1.71,2.36,1.71,4.12,0,.87-.14,1.68-.41,2.44-.27.76-.7,1.54-1.28,2.34-.58.8-1.34,1.67-2.27,2.63l-5.5,5.7-1.16-.96h9.15v-3.55h2.39v6.04h-13.97Z"/>
        <path class="cls-2" d="M248.96,41.48c-1.55,0-2.93-.39-4.13-1.18-1.21-.79-2.14-1.95-2.8-3.48s-.99-3.42-.99-5.65.33-4.11.99-5.63,1.59-2.69,2.8-3.48c1.21-.8,2.58-1.2,4.13-1.2s2.99.4,4.18,1.2,2.12,1.96,2.78,3.48c.66,1.53.99,3.4.99,5.63s-.33,4.12-.99,5.65c-.66,1.54-1.59,2.7-2.78,3.48-1.2.79-2.59,1.18-4.18,1.18ZM248.96,38.4c1.43,0,2.52-.61,3.26-1.84.74-1.23,1.11-3.03,1.11-5.4s-.37-4.17-1.11-5.4c-.74-1.23-1.83-1.84-3.26-1.84s-2.49.62-3.23,1.84c-.74,1.23-1.11,3.03-1.11,5.4s.37,4.17,1.11,5.4c.74,1.23,1.82,1.84,3.23,1.84Z"/>
        <path class="cls-2" d="M259.65,41.14v-1.91l6.76-7.1c1.12-1.18,1.92-2.17,2.42-2.97s.75-1.58.75-2.36c0-1.05-.27-1.84-.8-2.39-.54-.55-1.4-.82-2.58-.82s-2.12.31-2.73.92c-.62.61-.92,1.48-.92,2.6,0,.34.02.66.07.96s.11.61.21.96h-2.8c-.09-.36-.17-.74-.22-1.13-.06-.39-.08-.8-.08-1.23,0-1.78.61-3.18,1.83-4.22,1.22-1.04,2.84-1.55,4.87-1.55,1.91,0,3.44.5,4.58,1.49,1.14.99,1.71,2.36,1.71,4.12,0,.87-.14,1.68-.41,2.44-.27.76-.7,1.54-1.28,2.34-.58.8-1.34,1.67-2.27,2.63l-5.5,5.7-1.16-.96h9.15v-3.55h2.39v6.04h-13.97Z"/>
        <path class="cls-2" d="M282.6,41.14v-2.6h3.72v-2.42h-9.9v-2.01l10.14-12.88h2.97v12.29h2.36v2.6h-2.36v2.42h2.36v2.6h-9.29ZM278.87,34.48l-.79-.96h8.23v-9.94l.96.41-8.4,10.49Z"/>
      </g>
    </g>
  </g>
</svg>