<?xml version="1.0" encoding="UTF-8"?>
<svg id="Lager_2" data-name="Lager 2" xmlns="http://www.w3.org/2000/svg" viewBox="0 0 506 93">
  <defs>
    <style>
      .cls-1 {
        fill: #55c1d2;
      }

      .cls-1, .cls-2 {
        stroke-width: 0px;
      }

      .cls-2 {
        fill: #fff;
      }
    </style>
  </defs>
  <g id="Lager_1-2" data-name="Lager 1">
    <g>
      <rect class="cls-1" width="506" height="93" rx="22.49" ry="22.49"/>
      <g>
        <path class="cls-2" d="M42.99,60.98v-4.03h3.66v-22.88h-3.66v-4.03h12.9v4.03h-3.66v10.08l11.68-10.08h-3.08v-4.03h12.68v4.03h-3.45l-13.27,11.52v-2.33l14.22,13.69h3.45v4.03h-13.22v-4.03h3.08l-12.1-11.57v11.57h3.66v4.03h-12.9Z"/>
        <path class="cls-2" d="M75.21,60.98v-3.77h3.45v-23.41h-3.66v-3.77h8.65v27.17h3.24v3.77h-11.68Z"/>
        <path class="cls-2" d="M88.95,60.98v-3.77h3.4v-13.64h-3.66v-3.72h8.65v17.36h3.13v3.77h-11.52ZM94.84,36.3c-1.03,0-1.82-.3-2.39-.9-.57-.6-.85-1.34-.85-2.23,0-.96.28-1.74.85-2.36.57-.62,1.36-.93,2.39-.93s1.77.31,2.33.93c.57.62.85,1.41.85,2.36,0,.88-.28,1.63-.85,2.23-.57.6-1.34.9-2.33.9Z"/>
        <path class="cls-2" d="M115.43,61.51c-2.44,0-4.54-.5-6.29-1.49-1.75-.99-3.1-2.33-4.03-4.03-.94-1.7-1.41-3.59-1.41-5.68s.42-3.86,1.27-5.52c.85-1.66,2.07-2.99,3.66-3.98,1.59-.99,3.52-1.49,5.79-1.49,1.1,0,2.14.19,3.13.56.99.37,1.82.9,2.5,1.59.67.69,1.04,1.5,1.11,2.42l-.58.11v-4.14h3.56v7.64h-3.18c-.85-2.65-2.85-3.98-6-3.98-2.16,0-3.78.65-4.86,1.94-1.08,1.29-1.62,2.93-1.62,4.91s.63,3.69,1.88,5.02,3.03,1.99,5.33,1.99c1.27,0,2.51-.27,3.71-.8,1.2-.53,2.19-1.19,2.97-1.96l2.23,3.45c-1.03,1.1-2.41,1.95-4.14,2.55-1.73.6-3.42.9-5.04.9Z"/>
        <path class="cls-2" d="M135.39,57.21h2.76v3.77h-11.2v-3.77h3.45v-23.41h-3.66v-3.77h8.65v19.9l8.54-6.37h-3.24v-3.72h10.77v3.72h-2.97l-9.82,7.17,1.59-2.28,8.54,8.76h3.77v3.77h-7.11l-10.08-10.62v6.85Z"/>
        <path class="cls-2" d="M162.78,61.51c-2.55,0-4.49-.58-5.84-1.75-1.34-1.17-2.02-2.71-2.02-4.62,0-2.02.73-3.58,2.2-4.7,1.47-1.12,3.62-1.67,6.45-1.67.96,0,2.02.09,3.21.27,1.18.18,2.29.41,3.32.69l-.85.58v-2.55c0-1.34-.44-2.38-1.33-3.1-.88-.72-2.21-1.09-3.98-1.09-1.2,0-2.39.16-3.56.48-1.17.32-2.28.78-3.34,1.38l-1.22-3.93c1.34-.74,2.79-1.29,4.35-1.65,1.56-.35,2.97-.53,4.25-.53,3.18,0,5.61.72,7.27,2.15,1.66,1.43,2.49,3.55,2.49,6.34v9.39h3.13v3.77h-7.7v-3.4l.69.58c-.92,1.06-2.07,1.88-3.45,2.47-1.38.58-2.74.88-4.09.88ZM163.89,57.68c1.06,0,2.15-.21,3.26-.64s1.97-.97,2.57-1.65l-.48,1.49v-5.15l.85,1.38c-.99-.28-1.96-.49-2.92-.61-.96-.12-1.88-.19-2.76-.19-1.49,0-2.64.23-3.45.69-.81.46-1.22,1.15-1.22,2.07,0,.85.35,1.5,1.06,1.94s1.73.66,3.08.66Z"/>
        <path class="cls-2" d="M194.19,39.85h8.28v3.5l-.37.05c.74-1.34,1.8-2.36,3.18-3.05,1.38-.69,2.83-1.04,4.35-1.04,2.26,0,4.14.53,5.62,1.59,1.49,1.06,2.61,2.42,3.37,4.09.76,1.66,1.14,3.45,1.14,5.36s-.38,3.72-1.14,5.41c-.76,1.7-1.88,3.08-3.37,4.14-1.49,1.06-3.36,1.59-5.62,1.59-1.52,0-2.97-.35-4.35-1.06-1.38-.71-2.44-1.72-3.18-3.03l.74.05v8.81h3.13v3.77h-11.57v-3.77h3.45v-22.72h-3.66v-3.72ZM208.68,57.31c1.77,0,3.26-.6,4.49-1.8,1.22-1.2,1.83-2.92,1.83-5.15s-.61-3.88-1.83-5.07c-1.22-1.18-2.72-1.78-4.49-1.78-1.13,0-2.23.22-3.29.66s-2,1.19-2.81,2.25l.27-1.91v11.94l-.27-2.07c.81,1.03,1.75,1.77,2.81,2.23,1.06.46,2.16.69,3.29.69Z"/>
        <path class="cls-2" d="M231.67,61.51c-2.55,0-4.49-.58-5.84-1.75-1.34-1.17-2.02-2.71-2.02-4.62,0-2.02.73-3.58,2.2-4.7,1.47-1.12,3.62-1.67,6.45-1.67.96,0,2.02.09,3.21.27,1.18.18,2.29.41,3.32.69l-.85.58v-2.55c0-1.34-.44-2.38-1.33-3.1-.88-.72-2.21-1.09-3.98-1.09-1.2,0-2.39.16-3.56.48-1.17.32-2.28.78-3.34,1.38l-1.22-3.93c1.34-.74,2.79-1.29,4.35-1.65,1.56-.35,2.97-.53,4.25-.53,3.18,0,5.61.72,7.27,2.15,1.66,1.43,2.49,3.55,2.49,6.34v9.39h3.13v3.77h-7.7v-3.4l.69.58c-.92,1.06-2.07,1.88-3.45,2.47-1.38.58-2.74.88-4.09.88ZM232.78,57.68c1.06,0,2.15-.21,3.26-.64s1.97-.97,2.57-1.65l-.48,1.49v-5.15l.85,1.38c-.99-.28-1.96-.49-2.92-.61-.96-.12-1.88-.19-2.76-.19-1.49,0-2.64.23-3.45.69-.81.46-1.22,1.15-1.22,2.07,0,.85.35,1.5,1.06,1.94s1.73.66,3.08.66ZM233.89,36.19c-1.31,0-2.42-.43-3.32-1.3s-1.35-1.94-1.35-3.21.45-2.41,1.35-3.29c.9-.88,2.01-1.33,3.32-1.33s2.42.43,3.32,1.3c.9.87,1.35,1.97,1.35,3.32,0,1.27-.45,2.34-1.35,3.21s-2.01,1.3-3.32,1.3ZM233.89,34.23c.74,0,1.35-.25,1.83-.74s.72-1.1.72-1.8-.24-1.31-.72-1.8c-.48-.5-1.09-.74-1.83-.74s-1.35.25-1.83.74c-.48.5-.72,1.1-.72,1.8s.24,1.31.72,1.8,1.09.74,1.83.74Z"/>
        <path class="cls-2" d="M275.93,61.51c-2.48,0-4.38-.42-5.71-1.25-1.33-.83-2.24-1.99-2.73-3.48l1.22-.37v4.56h-3.56v-7.27h3.18c.18.99.58,1.83,1.22,2.52.64.69,1.43,1.21,2.39,1.57.96.35,1.98.53,3.08.53,1.49,0,2.58-.25,3.29-.74s1.06-1.13,1.06-1.91c0-.57-.22-1.05-.66-1.46-.44-.41-1.34-.79-2.68-1.14l-4.94-1.22c-1.84-.5-3.29-1.22-4.35-2.18-1.06-.96-1.59-2.23-1.59-3.82,0-1.38.34-2.57,1.04-3.56.69-.99,1.67-1.74,2.95-2.25s2.74-.77,4.41-.77c1.95,0,3.49.37,4.64,1.11s1.94,1.79,2.36,3.13l-1.17.05v-3.72h3.61v6.74h-3.24c-.07-.99-.37-1.79-.9-2.39-.53-.6-1.19-1.04-1.96-1.33-.78-.28-1.61-.42-2.49-.42-1.45,0-2.54.25-3.26.74-.73.5-1.09,1.13-1.09,1.91,0,.67.25,1.19.74,1.54.5.35,1.33.69,2.49,1.01l4.94,1.17c1.95.46,3.44,1.17,4.48,2.12,1.04.96,1.57,2.33,1.57,4.14,0,1.31-.34,2.44-1.04,3.4-.69.96-1.65,1.7-2.89,2.23s-2.71.8-4.4.8Z"/>
        <path class="cls-2" d="M295.3,57.21h2.76v3.77h-11.2v-3.77h3.45v-23.41h-3.66v-3.77h8.65v19.9l8.54-6.37h-3.24v-3.72h10.77v3.72h-2.97l-9.82,7.17,1.59-2.28,8.54,8.76h3.77v3.77h-7.11l-10.08-10.62v6.85Z"/>
        <path class="cls-2" d="M322.68,61.51c-2.55,0-4.49-.58-5.84-1.75-1.34-1.17-2.02-2.71-2.02-4.62,0-2.02.73-3.58,2.2-4.7,1.47-1.12,3.62-1.67,6.45-1.67.96,0,2.02.09,3.21.27,1.18.18,2.29.41,3.32.69l-.85.58v-2.55c0-1.34-.44-2.38-1.33-3.1-.88-.72-2.21-1.09-3.98-1.09-1.2,0-2.39.16-3.56.48-1.17.32-2.28.78-3.34,1.38l-1.22-3.93c1.34-.74,2.79-1.29,4.35-1.65,1.56-.35,2.97-.53,4.25-.53,3.18,0,5.61.72,7.27,2.15,1.66,1.43,2.49,3.55,2.49,6.34v9.39h3.13v3.77h-7.7v-3.4l.69.58c-.92,1.06-2.07,1.88-3.45,2.47-1.38.58-2.74.88-4.09.88ZM320.72,36.19c-.71,0-1.32-.21-1.83-.64-.51-.42-.77-1.03-.77-1.8s.26-1.43.77-1.86c.51-.42,1.12-.64,1.83-.64s1.31.21,1.8.64.74,1.04.74,1.86-.25,1.38-.74,1.8-1.1.64-1.8.64ZM323.8,57.68c1.06,0,2.15-.21,3.26-.64s1.97-.97,2.57-1.65l-.48,1.49v-5.15l.85,1.38c-.99-.28-1.96-.49-2.92-.61-.96-.12-1.88-.19-2.76-.19-1.49,0-2.64.23-3.45.69-.81.46-1.22,1.15-1.22,2.07,0,.85.35,1.5,1.06,1.94s1.73.66,3.08.66ZM329.16,36.19c-.71,0-1.32-.2-1.83-.61-.51-.41-.77-1.02-.77-1.83s.26-1.43.77-1.86c.51-.42,1.12-.64,1.83-.64s1.26.21,1.78.64.77,1.06.77,1.91c0,.78-.26,1.37-.77,1.78-.51.41-1.11.61-1.78.61Z"/>
        <path class="cls-2" d="M339.19,60.98v-3.77h3.4v-13.64h-3.66v-3.72h8.33v5.89l-.53-.48c.85-1.98,1.85-3.47,3-4.46,1.15-.99,2.42-1.49,3.79-1.49,1.2,0,2.33.32,3.4.96l-1.64,4.94c-.5-.42-.99-.73-1.49-.93-.5-.19-.97-.29-1.43-.29-1.03,0-1.96.34-2.79,1.03-.83.69-1.5,1.64-1.99,2.84v9.34h3.93v3.77h-12.31Z"/>
        <path class="cls-2" d="M358.19,60.98v-3.77h3.4v-13.64h-3.66v-3.72h8.33v3.18l-.69.16c1.34-1.34,2.78-2.33,4.3-2.95,1.52-.62,3.03-.93,4.51-.93,1.91,0,3.38.37,4.41,1.11s1.77,1.73,2.23,2.97l-.69-.27c1.34-1.34,2.77-2.32,4.27-2.92s3.02-.9,4.54-.9c2.23,0,3.96.58,5.2,1.75,1.24,1.17,1.86,3.01,1.86,5.52v10.61h3.13v3.77h-11.41v-3.77h3.29v-9.45c0-1.45-.31-2.51-.93-3.18-.62-.67-1.64-1.01-3.05-1.01-1.03,0-2.09.2-3.18.61-1.1.41-2.21,1.12-3.34,2.15l.42-2.28c.11.42.18.89.21,1.41.04.51.05.89.05,1.14v10.61h3.03v3.77h-11.25v-3.77h3.29v-9.45c0-1.45-.31-2.51-.93-3.18-.62-.67-1.64-1.01-3.05-1.01-1.03,0-2.09.2-3.18.61-1.1.41-2.21,1.12-3.34,2.15l.64-1.43v12.31h3.03v3.77h-11.41Z"/>
        <path class="cls-2" d="M414.5,61.51c-2.73,0-5.02-.5-6.87-1.49-1.86-.99-3.25-2.33-4.17-4.01-.92-1.68-1.38-3.56-1.38-5.65s.45-3.91,1.35-5.57,2.2-2.99,3.9-3.98,3.68-1.49,5.94-1.49,4.33.5,6,1.49,2.94,2.32,3.82,3.98c.88,1.66,1.33,3.54,1.33,5.63v2.02h-19.58v-3.88h14.86c0-.88-.26-1.74-.77-2.57-.51-.83-1.24-1.53-2.18-2.1-.94-.57-2.1-.85-3.48-.85s-2.55.29-3.5.88-1.69,1.34-2.2,2.26-.77,1.88-.77,2.87v1.33c0,2.16.65,3.87,1.96,5.12,1.31,1.26,3.27,1.88,5.89,1.88,1.49,0,2.89-.25,4.22-.74,1.33-.5,2.43-1.13,3.32-1.91l2.07,3.5c-1.13,1.03-2.56,1.83-4.27,2.41-1.72.58-3.55.88-5.49.88Z"/>
        <path class="cls-2" d="M427.45,60.98v-3.77h3.4v-13.64h-3.66v-3.72h8.33v3.18l-.69.16c1.34-1.34,2.8-2.33,4.38-2.95,1.57-.62,3.12-.93,4.64-.93,2.26,0,4.02.58,5.28,1.75,1.26,1.17,1.88,3.01,1.88,5.52v10.61h3.13v3.77h-11.52v-3.77h3.4v-9.45c0-1.45-.33-2.51-.98-3.18-.66-.67-1.71-1.01-3.16-1.01-1.06,0-2.14.2-3.24.61-1.1.41-2.25,1.12-3.45,2.15l.64-1.65v12.53h3.18v3.77h-11.57Z"/>
        <path class="cls-2" d="M458.82,52.64l-1.65-11.99v-10.62h5.57v10.62l-1.59,11.99h-2.33ZM457.54,60.98v-4.67h4.88v4.67h-4.88Z"/>
      </g>
    </g>
  </g>
</svg>