<?xml version="1.0" encoding="UTF-8"?>
<svg id="Lager_2" data-name="Lager 2" xmlns="http://www.w3.org/2000/svg" viewBox="0 0 204.64 63.1">
  <defs>
    <style>
      .cls-1 {
        fill: none;
        stroke: #fff;
        stroke-miterlimit: 10;
        stroke-width: 1.5px;
      }

      .cls-2 {
        fill: #fff;
        stroke-width: 0px;
      }
    </style>
  </defs>
  <g id="Lager_1-2" data-name="Lager 1">
    <g>
      <rect class="cls-1" x=".75" y=".75" width="203.14" height="61.6" rx="22.49" ry="22.49"/>
      <g>
        <path class="cls-2" d="M41.94,41.14v-2.6h2.87v-14.72h-5.26v4.68h-2.53v-7.27h19.16v7.27h-2.56v-4.68h-5.23v14.72h2.83v2.6h-9.29Z"/>
        <path class="cls-2" d="M57.59,41.14v-2.42h2.19v-8.78h-2.36v-2.39h5.57v11.17h2.01v2.42h-7.41ZM61.38,25.25c-.66,0-1.17-.19-1.54-.58-.37-.39-.55-.87-.55-1.43,0-.62.18-1.12.55-1.52.36-.4.88-.6,1.54-.6s1.14.2,1.5.6.55.9.55,1.52c0,.57-.18,1.05-.55,1.43-.36.39-.87.58-1.5.58Z"/>
        <path class="cls-2" d="M66.33,41.14v-2.42h2.22v-15.06h-2.36v-2.42h5.57v17.49h2.08v2.42h-7.51Z"/>
        <path class="cls-2" d="M74.93,41.14v-2.42h2.22v-15.06h-2.36v-2.42h5.57v17.49h2.08v2.42h-7.51Z"/>
        <path class="cls-2" d="M94.26,41.14v-2.6h2.36v-14.72h-2.36v-2.6h8.3v2.6h-2.36v14.72h7.48v-5.16h2.66v7.75h-16.09Z"/>
        <path class="cls-2" d="M111.95,41.14v-2.42h2.19v-8.78h-2.36v-2.39h5.57v11.17h2.01v2.42h-7.41ZM115.74,25.25c-.66,0-1.17-.19-1.54-.58-.37-.39-.55-.87-.55-1.43,0-.62.18-1.12.55-1.52.36-.4.88-.6,1.54-.6s1.14.2,1.5.6.55.9.55,1.52c0,.57-.18,1.05-.55,1.43-.36.39-.87.58-1.5.58Z"/>
        <path class="cls-2" d="M128.82,41.48c-1.59,0-2.82-.27-3.67-.8-.85-.54-1.44-1.28-1.76-2.24l.79-.24v2.94h-2.29v-4.68h2.05c.11.64.38,1.18.79,1.62.41.44.92.78,1.54,1.01s1.27.34,1.98.34c.96,0,1.66-.16,2.12-.48.46-.32.68-.73.68-1.23,0-.36-.14-.68-.43-.94-.29-.26-.86-.51-1.72-.73l-3.18-.79c-1.18-.32-2.12-.79-2.8-1.4-.68-.61-1.02-1.43-1.02-2.46,0-.89.22-1.65.67-2.29.44-.64,1.08-1.12,1.9-1.45.82-.33,1.76-.5,2.83-.5,1.25,0,2.25.24,2.99.72s1.25,1.15,1.52,2.01l-.75.03v-2.39h2.32v4.34h-2.08c-.05-.64-.24-1.15-.58-1.54-.34-.39-.76-.67-1.26-.85s-1.04-.27-1.6-.27c-.93,0-1.63.16-2.1.48-.47.32-.7.73-.7,1.23,0,.43.16.76.48.99.32.23.85.44,1.6.65l3.18.75c1.25.3,2.21.75,2.89,1.37.67.62,1.01,1.5,1.01,2.66,0,.84-.22,1.57-.67,2.19-.44.62-1.07,1.09-1.86,1.43-.8.34-1.74.51-2.83.51Z"/>
        <path class="cls-2" d="M142.86,41.48c-1.43,0-2.61-.39-3.54-1.18-.92-.79-1.38-2.05-1.38-3.81v-6.56h-2.36v-2.39h2.36v-4.51l3.21-.58v5.09h3.76v2.39h-3.76v6.11c0,1.02.22,1.73.67,2.12.44.39,1.05.58,1.83.58.3,0,.59-.04.89-.12s.56-.17.79-.26l.41,2.39c-.34.21-.77.38-1.28.51s-1.04.21-1.59.21Z"/>
        <path class="cls-2" d="M152.42,41.48c-1.64,0-2.89-.38-3.76-1.13-.87-.75-1.3-1.74-1.3-2.97,0-1.3.47-2.3,1.42-3.02.94-.72,2.33-1.08,4.15-1.08.62,0,1.3.06,2.07.17.76.11,1.47.26,2.13.44l-.55.38v-1.64c0-.87-.29-1.53-.85-2-.57-.47-1.42-.7-2.56-.7-.77,0-1.54.1-2.29.31s-1.47.5-2.15.89l-.79-2.53c.87-.48,1.8-.83,2.8-1.06,1-.23,1.91-.34,2.73-.34,2.05,0,3.61.46,4.68,1.38s1.61,2.28,1.61,4.08v6.04h2.01v2.42h-4.95v-2.19l.44.38c-.59.68-1.33,1.21-2.22,1.59-.89.38-1.77.56-2.63.56ZM153.14,39.02c.68,0,1.38-.14,2.1-.41.72-.27,1.27-.63,1.66-1.06l-.31.96v-3.31l.55.89c-.64-.18-1.26-.31-1.88-.39-.61-.08-1.21-.12-1.78-.12-.96,0-1.7.15-2.22.44-.52.3-.79.74-.79,1.33,0,.55.23.96.68,1.25.46.28,1.12.43,1.98.43Z"/>
      </g>
    </g>
  </g>
</svg>