<?xml version="1.0" encoding="UTF-8"?>
<svg id="Lager_2" data-name="Lager 2" xmlns="http://www.w3.org/2000/svg" viewBox="0 0 355.06 222.38">
  <defs>
    <style>
      .cls-1 {
        fill: #fff;
      }

      .cls-1, .cls-2 {
        stroke-width: 0px;
      }

      .cls-2 {
        fill: #dd739f;
      }
    </style>
  </defs>
  <g id="Lager_1-2" data-name="Lager 1">
    <polygon class="cls-2" points="355.06 222.38 355.06 0 0 0 0 222.26 355.06 222.38"/>
    <g>
      <path class="cls-1" d="M74.02,182.2l-7.61-20.32h-2.6v-3.05h9.78v3.05h-2.81l6.17,16.71h-.8l6.17-16.71h-2.81v-3.05h9.5v3.05h-2.57l-7.65,20.32h-4.77Z"/>
      <path class="cls-1" d="M96.66,182.6c-1.92,0-3.39-.44-4.41-1.32-1.02-.88-1.52-2.04-1.52-3.49,0-1.52.55-2.71,1.66-3.55,1.11-.84,2.73-1.26,4.87-1.26.72,0,1.53.07,2.42.2.89.13,1.73.31,2.5.52l-.64.44v-1.92c0-1.01-.33-1.8-1-2.34s-1.67-.82-3.01-.82c-.91,0-1.8.12-2.68.36s-1.72.59-2.52,1.04l-.92-2.97c1.01-.56,2.11-.97,3.29-1.24,1.17-.27,2.24-.4,3.21-.4,2.4,0,4.23.54,5.49,1.62,1.25,1.08,1.88,2.68,1.88,4.79v7.09h2.36v2.84h-5.81v-2.56l.52.44c-.7.8-1.56,1.42-2.61,1.86-1.04.44-2.07.66-3.08.66ZM97.5,179.72c.8,0,1.62-.16,2.46-.48.84-.32,1.49-.73,1.94-1.24l-.36,1.12v-3.89l.64,1.04c-.75-.21-1.48-.37-2.2-.46-.72-.09-1.42-.14-2.08-.14-1.12,0-1.99.17-2.61.52-.61.35-.92.87-.92,1.56,0,.64.27,1.13.8,1.46s1.31.5,2.32.5ZM98.35,163.49c-.99,0-1.82-.33-2.5-.98-.68-.65-1.02-1.46-1.02-2.42s.34-1.82,1.02-2.49c.68-.67,1.52-1,2.5-1s1.82.33,2.5.98c.68.66,1.02,1.49,1.02,2.5,0,.96-.34,1.77-1.02,2.42-.68.66-1.52.98-2.5.98ZM98.35,162c.56,0,1.02-.19,1.38-.56s.54-.83.54-1.36-.18-.99-.54-1.36c-.36-.37-.82-.56-1.38-.56s-1.02.19-1.38.56c-.36.38-.54.83-.54,1.36s.18.99.54,1.36c.36.37.82.56,1.38.56Z"/>
      <path class="cls-1" d="M109.13,182.2v-2.84h2.56v-10.3h-2.76v-2.81h6.29v4.45l-.4-.36c.64-1.5,1.4-2.62,2.26-3.37s1.82-1.12,2.87-1.12c.91,0,1.76.24,2.57.72l-1.24,3.73c-.38-.32-.75-.55-1.12-.7-.38-.15-.74-.22-1.08-.22-.78,0-1.48.26-2.1.78s-1.13,1.24-1.5,2.14v7.05h2.97v2.84h-9.3Z"/>
      <path class="cls-1" d="M130.16,182.6c-1.92,0-3.39-.44-4.41-1.32-1.02-.88-1.52-2.04-1.52-3.49,0-1.52.55-2.71,1.66-3.55,1.11-.84,2.73-1.26,4.87-1.26.72,0,1.53.07,2.42.2.89.13,1.73.31,2.5.52l-.64.44v-1.92c0-1.01-.33-1.8-1-2.34s-1.67-.82-3.01-.82c-.91,0-1.8.12-2.68.36s-1.72.59-2.52,1.04l-.92-2.97c1.01-.56,2.11-.97,3.29-1.24,1.17-.27,2.24-.4,3.21-.4,2.4,0,4.23.54,5.49,1.62,1.25,1.08,1.88,2.68,1.88,4.79v7.09h2.36v2.84h-5.81v-2.56l.52.44c-.7.8-1.56,1.42-2.61,1.86-1.04.44-2.07.66-3.08.66ZM131.01,179.72c.8,0,1.62-.16,2.46-.48.84-.32,1.49-.73,1.94-1.24l-.36,1.12v-3.89l.64,1.04c-.75-.21-1.48-.37-2.2-.46-.72-.09-1.42-.14-2.08-.14-1.12,0-1.99.17-2.61.52-.61.35-.92.87-.92,1.56,0,.64.27,1.13.8,1.46s1.31.5,2.32.5Z"/>
      <path class="cls-1" d="M160.1,182.2v-3.04h3.37v-17.27h-6.17v5.49h-2.96v-8.54h22.48v8.54h-3.01v-5.49h-6.13v17.27h3.33v3.04h-10.9Z"/>
      <path class="cls-1" d="M176.65,189.05v-2.84h1.72c.93,0,1.62-.23,2.06-.7.44-.47.66-1.2.66-2.18v-14.27h-3.17v-2.81h6.93v16.71c0,2.03-.49,3.55-1.46,4.57-.98,1.01-2.41,1.52-4.31,1.52h-2.44ZM182.98,163.57c-.78,0-1.38-.23-1.8-.68-.43-.45-.64-1.01-.64-1.68,0-.72.21-1.32.64-1.78.43-.47,1.03-.7,1.8-.7s1.33.23,1.76.7c.43.47.64,1.06.64,1.78,0,.67-.21,1.23-.64,1.68-.43.46-1.02.68-1.76.68Z"/>
      <path class="cls-1" d="M195.24,182.6c-1.92,0-3.39-.44-4.41-1.32-1.02-.88-1.52-2.04-1.52-3.49,0-1.52.55-2.71,1.66-3.55,1.11-.84,2.73-1.26,4.87-1.26.72,0,1.53.07,2.42.2.89.13,1.73.31,2.5.52l-.64.44v-1.92c0-1.01-.33-1.8-1-2.34s-1.67-.82-3.01-.82c-.91,0-1.8.12-2.68.36s-1.72.59-2.52,1.04l-.92-2.97c1.01-.56,2.11-.97,3.29-1.24,1.17-.27,2.24-.4,3.21-.4,2.4,0,4.23.54,5.49,1.62,1.25,1.08,1.88,2.68,1.88,4.79v7.09h2.36v2.84h-5.81v-2.56l.52.44c-.7.8-1.56,1.42-2.61,1.86-1.04.44-2.07.66-3.08.66ZM193.76,163.49c-.53,0-1-.16-1.38-.48-.39-.32-.58-.77-.58-1.36s.19-1.08.58-1.4c.39-.32.85-.48,1.38-.48s.99.16,1.36.48c.37.32.56.79.56,1.4s-.19,1.04-.56,1.36c-.38.32-.83.48-1.36.48ZM196.08,179.72c.8,0,1.62-.16,2.46-.48.84-.32,1.49-.73,1.94-1.24l-.36,1.12v-3.89l.64,1.04c-.75-.21-1.48-.37-2.2-.46-.72-.09-1.42-.14-2.08-.14-1.12,0-1.99.17-2.61.52-.61.35-.92.87-.92,1.56,0,.64.27,1.13.8,1.46s1.31.5,2.32.5ZM200.13,163.49c-.54,0-1-.15-1.38-.46-.39-.31-.58-.77-.58-1.38s.19-1.08.58-1.4c.39-.32.85-.48,1.38-.48.51,0,.96.16,1.34.48.39.32.58.8.58,1.44,0,.59-.19,1.04-.58,1.34-.39.31-.84.46-1.34.46Z"/>
      <path class="cls-1" d="M207.71,182.2v-2.84h2.56v-10.3h-2.76v-2.81h6.29v2.4l-.52.12c1.01-1.01,2.12-1.76,3.31-2.22,1.19-.47,2.36-.7,3.51-.7,1.71,0,3.04.44,3.99,1.32.95.88,1.42,2.27,1.42,4.17v8.01h2.36v2.84h-8.7v-2.84h2.56v-7.13c0-1.09-.25-1.9-.74-2.4-.49-.51-1.29-.76-2.38-.76-.8,0-1.62.15-2.44.46-.83.31-1.7.85-2.6,1.62l.48-1.24v9.46h2.41v2.84h-8.74Z"/>
      <path class="cls-1" d="M238.6,182.6c-1.87,0-3.31-.31-4.31-.94-1-.63-1.69-1.5-2.06-2.62l.92-.28v3.45h-2.68v-5.49h2.4c.13.75.44,1.38.92,1.9.48.52,1.08.92,1.8,1.18.72.27,1.5.4,2.32.4,1.12,0,1.95-.19,2.49-.56.53-.37.8-.85.8-1.44,0-.43-.17-.79-.5-1.1-.33-.31-1.01-.59-2.02-.86l-3.73-.92c-1.39-.37-2.48-.92-3.29-1.64-.8-.72-1.2-1.68-1.2-2.89,0-1.04.26-1.94.78-2.68.52-.75,1.26-1.32,2.22-1.7.96-.39,2.07-.58,3.33-.58,1.47,0,2.64.28,3.51.84.87.56,1.46,1.35,1.78,2.37l-.88.04v-2.81h2.73v5.09h-2.44c-.05-.75-.28-1.35-.68-1.8s-.9-.79-1.48-1c-.59-.21-1.22-.32-1.88-.32-1.1,0-1.92.19-2.46.56-.55.38-.82.86-.82,1.44,0,.51.19.89.56,1.16.37.27,1,.52,1.88.76l3.73.88c1.47.35,2.6.88,3.39,1.6.79.72,1.18,1.76,1.18,3.12,0,.99-.26,1.84-.78,2.57-.52.72-1.25,1.28-2.18,1.68-.94.4-2.04.6-3.33.6Z"/>
      <path class="cls-1" d="M255.07,182.6c-1.68,0-3.07-.46-4.15-1.38s-1.62-2.41-1.62-4.47v-7.69h-2.77v-2.81h2.77v-5.29l3.77-.68v5.97h4.41v2.81h-4.41v7.17c0,1.2.26,2.03.78,2.48.52.46,1.24.68,2.14.68.35,0,.69-.05,1.04-.14.35-.09.65-.19.92-.3l.48,2.81c-.4.24-.9.44-1.5.6-.6.16-1.22.24-1.86.24Z"/>
      <path class="cls-1" d="M269.58,182.6c-2.06,0-3.79-.38-5.19-1.12-1.4-.75-2.45-1.76-3.15-3.03-.7-1.27-1.04-2.69-1.04-4.27s.34-2.95,1.02-4.21c.68-1.25,1.66-2.26,2.95-3s2.78-1.12,4.49-1.12,3.27.37,4.53,1.12c1.25.75,2.22,1.75,2.88,3,.67,1.26,1,2.67,1,4.25v1.52h-14.79v-2.93h11.22c0-.67-.19-1.32-.58-1.94-.39-.63-.94-1.16-1.64-1.58-.71-.43-1.58-.64-2.62-.64s-1.92.22-2.65.66c-.72.44-1.28,1.01-1.66,1.7-.39.7-.58,1.42-.58,2.16v1c0,1.63.49,2.92,1.48,3.87.99.95,2.47,1.42,4.45,1.42,1.12,0,2.18-.19,3.19-.56,1-.37,1.84-.85,2.5-1.44l1.56,2.64c-.86.78-1.93,1.38-3.23,1.82-1.3.44-2.68.66-4.15.66Z"/>
      <path class="cls-1" d="M279.36,182.2v-2.84h2.56v-10.3h-2.76v-2.81h6.29v4.45l-.4-.36c.64-1.5,1.4-2.62,2.26-3.37s1.82-1.12,2.87-1.12c.91,0,1.76.24,2.57.72l-1.24,3.73c-.38-.32-.75-.55-1.12-.7-.38-.15-.74-.22-1.08-.22-.78,0-1.48.26-2.1.78s-1.13,1.24-1.5,2.14v7.05h2.97v2.84h-9.3Z"/>
    </g>
    <path class="cls-1" d="M163.96,80.47l9.62-9.73-6.26-6.37-4.92,4.92-6.26-6.26,4.81-4.92-5.03-5.03-9.73,9.73,17.78,17.67ZM200.64,117.27l9.73-9.73-5.03-5.03-4.92,4.81-6.26-6.26,4.81-4.92-6.37-6.26-9.62,9.62,17.67,17.78ZM203.32,53.85l6.37,6.37-6.37-6.37ZM157.02,125.43h-19.01v-19.01l19.57-19.57-24.05-24.05,22.37-22.37,24.16,24.16,16.89-17c.89-.89,1.9-1.57,3.02-2.01s2.27-.67,3.47-.67,2.35.22,3.47.67,2.12,1.12,3.02,2.01l5.93,6.04c.89.89,1.57,1.9,2.01,3.02s.67,2.27.67,3.47-.22,2.33-.67,3.41-1.12,2.07-2.01,2.96l-16.89,17,24.05,24.05-22.37,22.37-24.05-24.05-19.57,19.57ZM146.96,116.48h6.26l43.84-43.73-6.37-6.37-43.73,43.84v6.26ZM193.93,69.62l-3.24-3.24,6.37,6.37-3.13-3.13Z"/>
  </g>
</svg>