<?xml version="1.0" encoding="UTF-8"?>
<svg id="Lager_2" data-name="Lager 2" xmlns="http://www.w3.org/2000/svg" viewBox="0 0 357.07 222.5">
  <defs>
    <style>
      .cls-1 {
        fill: #662d91;
      }

      .cls-1, .cls-2 {
        stroke-width: 0px;
      }

      .cls-2 {
        fill: #fff;
      }
    </style>
  </defs>
  <g id="Lager_1-2" data-name="Lager 1">
    <path class="cls-1" d="M0,0v222.38l334.45.12c12.49,0,22.62-9.88,22.62-22.06V0H0Z"/>
    <g>
      <path class="cls-2" d="M140.23,182.2v-3.04h2.77v-17.27h-2.77v-3.05h20.2v7.49h-2.84v-4.45h-10.38v6.61h5.49v-2.52h2.61v8.33h-2.61v-2.72h-5.49v7.57h3.73v3.04h-10.7Z"/>
      <path class="cls-2" d="M161.67,182.2v-3.04h2.56l6.65-17.27h-2.8v-3.05h13.42v3.05h-2.81l6.65,17.27h2.56v3.04h-9.54v-3.04h2.72l-2.48-6.77,1.32,1.12h-10.22l1.12-1.12-2.44,6.77h2.72v3.04h-9.46ZM171.08,171.7l-.68-1.04h8.62l-.6,1.04-3.61-9.78h-.12l-3.61,9.78Z"/>
      <path class="cls-2" d="M209.07,188.01c-1.92,0-3.62-.48-5.09-1.44-1.47-.96-2.66-2.32-3.57-4.09-2.19-.29-4.09-.97-5.69-2.02-1.6-1.05-2.85-2.43-3.75-4.13-.9-1.7-1.34-3.64-1.34-5.83,0-2.35.53-4.43,1.58-6.25,1.06-1.82,2.54-3.25,4.45-4.29,1.91-1.04,4.13-1.56,6.67-1.56s4.83.52,6.73,1.56c1.9,1.04,3.37,2.47,4.43,4.29,1.06,1.82,1.58,3.9,1.58,6.25,0,2.19-.44,4.13-1.32,5.83s-2.11,3.07-3.69,4.11c-1.58,1.04-3.37,1.71-5.37,2,.35.67.9,1.26,1.66,1.76.76.51,1.72.76,2.87.76.59,0,1.1-.05,1.54-.16.44-.11.87-.27,1.3-.48l.72,2.89c-.56.29-1.16.5-1.78.62-.63.12-1.28.18-1.94.18ZM202.34,179.04c1.71,0,3.19-.34,4.43-1.02s2.22-1.66,2.93-2.95c.71-1.28,1.06-2.79,1.06-4.53s-.35-3.21-1.06-4.51c-.71-1.29-1.68-2.3-2.93-3s-2.72-1.06-4.43-1.06-3.15.35-4.41,1.06c-1.26.71-2.22,1.71-2.91,3-.68,1.3-1.02,2.8-1.02,4.51s.34,3.25,1.02,4.53c.68,1.28,1.65,2.26,2.91,2.95,1.25.68,2.72,1.02,4.41,1.02Z"/>
    </g>
    <path class="cls-2" d="M145.09,130.08c-2.57,0-4.76-.91-6.59-2.74-1.83-1.83-2.74-4.02-2.74-6.59v-18.67h9.33v18.67h18.67v9.33h-18.67ZM210.42,130.08h-18.67v-9.33h18.67v-18.67h9.33v18.67c0,2.57-.91,4.76-2.74,6.59-1.83,1.83-4.02,2.74-6.59,2.74ZM135.75,55.41c0-2.57.91-4.76,2.74-6.59,1.83-1.83,4.02-2.74,6.59-2.74h18.67v9.33h-18.67v18.67h-9.33v-18.67ZM219.75,55.41v18.67h-9.33v-18.67h-18.67v-9.33h18.67c2.57,0,4.76.91,6.59,2.74s2.74,4.02,2.74,6.59ZM177.75,116.08c1.63,0,3.01-.56,4.14-1.69,1.13-1.13,1.69-2.51,1.69-4.14s-.56-3.01-1.69-4.14c-1.13-1.13-2.51-1.69-4.14-1.69s-3.01.56-4.14,1.69c-1.13,1.13-1.69,2.51-1.69,4.14s.56,3.01,1.69,4.14c1.13,1.13,2.51,1.69,4.14,1.69ZM173.55,98.23h8.52c0-2.64.31-4.67.93-6.07s1.98-3.15,4.08-5.25c2.72-2.72,4.53-4.92,5.42-6.59s1.34-3.67,1.34-6.01c0-4.2-1.52-7.62-4.55-10.27-3.03-2.64-6.88-3.97-11.55-3.97-3.89,0-7.23,1.01-10.03,3.03s-4.82,4.9-6.07,8.63l7.7,3.15c.54-2.02,1.57-3.67,3.09-4.96s3.29-1.92,5.31-1.92c2.26,0,4.06.6,5.42,1.81,1.36,1.21,2.04,2.82,2.04,4.84,0,1.56-.37,3.01-1.11,4.37s-2,2.78-3.79,4.26c-2.57,2.26-4.34,4.43-5.31,6.53s-1.46,4.9-1.46,8.4Z"/>
  </g>
</svg>