<?xml version="1.0" encoding="UTF-8"?>
<svg id="Lager_2" data-name="Lager 2" xmlns="http://www.w3.org/2000/svg" viewBox="0 0 355.06 217.11">
  <defs>
    <style>
      .cls-1 {
        fill: #fff;
      }

      .cls-1, .cls-2 {
        stroke-width: 0px;
      }

      .cls-2 {
        fill: #17a2cc;
      }
    </style>
  </defs>
  <g id="Lager_1-2" data-name="Lager 1">
    <rect class="cls-2" width="355.06" height="217.11"/>
    <g>
      <path class="cls-1" d="M59.4,182.2l-7.61-20.32h-2.6v-3.05h9.78v3.05h-2.81l6.17,16.71h-.8l6.17-16.71h-2.81v-3.05h9.5v3.05h-2.57l-7.65,20.32h-4.77Z"/>
      <path class="cls-1" d="M82.04,182.6c-1.92,0-3.39-.44-4.41-1.32-1.02-.88-1.52-2.04-1.52-3.49,0-1.52.55-2.71,1.66-3.55,1.11-.84,2.73-1.26,4.87-1.26.72,0,1.53.07,2.42.2.89.13,1.73.31,2.5.52l-.64.44v-1.92c0-1.01-.33-1.8-1-2.34s-1.67-.82-3.01-.82c-.91,0-1.8.12-2.68.36s-1.72.59-2.52,1.04l-.92-2.97c1.01-.56,2.11-.97,3.29-1.24,1.17-.27,2.24-.4,3.21-.4,2.4,0,4.23.54,5.49,1.62,1.25,1.08,1.88,2.68,1.88,4.79v7.09h2.36v2.84h-5.81v-2.56l.52.44c-.7.8-1.56,1.42-2.61,1.86-1.04.44-2.07.66-3.08.66ZM82.88,179.72c.8,0,1.62-.16,2.46-.48.84-.32,1.49-.73,1.94-1.24l-.36,1.12v-3.89l.64,1.04c-.75-.21-1.48-.37-2.2-.46-.72-.09-1.42-.14-2.08-.14-1.12,0-1.99.17-2.61.52-.61.35-.92.87-.92,1.56,0,.64.27,1.13.8,1.46s1.31.5,2.32.5ZM83.72,163.49c-.99,0-1.82-.33-2.5-.98-.68-.65-1.02-1.46-1.02-2.42s.34-1.82,1.02-2.49c.68-.67,1.52-1,2.5-1s1.82.33,2.5.98c.68.66,1.02,1.49,1.02,2.5,0,.96-.34,1.77-1.02,2.42-.68.66-1.52.98-2.5.98ZM83.72,162c.56,0,1.02-.19,1.38-.56s.54-.83.54-1.36-.18-.99-.54-1.36c-.36-.37-.82-.56-1.38-.56s-1.02.19-1.38.56c-.36.38-.54.83-.54,1.36s.18.99.54,1.36c.36.37.82.56,1.38.56Z"/>
      <path class="cls-1" d="M94.5,182.2v-2.84h2.56v-10.3h-2.76v-2.81h6.29v4.45l-.4-.36c.64-1.5,1.4-2.62,2.26-3.37s1.82-1.12,2.87-1.12c.91,0,1.76.24,2.57.72l-1.24,3.73c-.38-.32-.75-.55-1.12-.7-.38-.15-.74-.22-1.08-.22-.78,0-1.48.26-2.1.78s-1.13,1.24-1.5,2.14v7.05h2.97v2.84h-9.3Z"/>
      <path class="cls-1" d="M115.54,182.6c-1.92,0-3.39-.44-4.41-1.32-1.02-.88-1.52-2.04-1.52-3.49,0-1.52.55-2.71,1.66-3.55,1.11-.84,2.73-1.26,4.87-1.26.72,0,1.53.07,2.42.2.89.13,1.73.31,2.5.52l-.64.44v-1.92c0-1.01-.33-1.8-1-2.34s-1.67-.82-3.01-.82c-.91,0-1.8.12-2.68.36s-1.72.59-2.52,1.04l-.92-2.97c1.01-.56,2.11-.97,3.29-1.24,1.17-.27,2.24-.4,3.21-.4,2.4,0,4.23.54,5.49,1.62,1.25,1.08,1.88,2.68,1.88,4.79v7.09h2.36v2.84h-5.81v-2.56l.52.44c-.7.8-1.56,1.42-2.61,1.86-1.04.44-2.07.66-3.08.66ZM116.38,179.72c.8,0,1.62-.16,2.46-.48.84-.32,1.49-.73,1.94-1.24l-.36,1.12v-3.89l.64,1.04c-.75-.21-1.48-.37-2.2-.46-.72-.09-1.42-.14-2.08-.14-1.12,0-1.99.17-2.61.52-.61.35-.92.87-.92,1.56,0,.64.27,1.13.8,1.46s1.31.5,2.32.5Z"/>
      <path class="cls-1" d="M140.31,182.2v-3.04h2.77v-17.27h-2.77v-3.05h12.58c2.78,0,4.87.58,6.27,1.72,1.4,1.15,2.1,2.87,2.1,5.17s-.7,4.05-2.1,5.19c-1.4,1.14-3.49,1.7-6.27,1.7h-3.81v-3.05h3.29c1.47,0,2.59-.33,3.37-.98.77-.65,1.16-1.61,1.16-2.87s-.38-2.28-1.14-2.91c-.76-.63-1.89-.94-3.39-.94h-5.09v17.27h3.73v3.04h-10.7Z"/>
      <path class="cls-1" d="M163.55,182.2v-2.84h2.56v-10.3h-2.76v-2.81h6.29v4.45l-.4-.36c.64-1.5,1.4-2.62,2.26-3.37s1.82-1.12,2.87-1.12c.91,0,1.76.24,2.57.72l-1.24,3.73c-.38-.32-.75-.55-1.12-.7-.38-.15-.74-.22-1.08-.22-.78,0-1.48.26-2.1.78s-1.13,1.24-1.5,2.14v7.05h2.97v2.84h-9.3Z"/>
      <path class="cls-1" d="M187.11,182.6c-1.74,0-3.25-.38-4.55-1.12-1.3-.75-2.3-1.76-3-3.03-.71-1.27-1.06-2.69-1.06-4.27s.35-2.99,1.06-4.25c.71-1.25,1.71-2.25,3-2.99,1.3-.73,2.81-1.1,4.55-1.1s3.21.37,4.51,1.1c1.3.74,2.3,1.73,3.03,2.99.72,1.26,1.08,2.67,1.08,4.25s-.36,3-1.08,4.27c-.72,1.27-1.73,2.28-3.03,3.03-1.3.75-2.8,1.12-4.51,1.12ZM187.11,179.52c1.47,0,2.67-.49,3.59-1.48.92-.99,1.38-2.27,1.38-3.85s-.46-2.81-1.38-3.79c-.92-.97-2.12-1.46-3.59-1.46s-2.74.49-3.65,1.46c-.91.98-1.36,2.24-1.36,3.79s.45,2.86,1.36,3.85c.91.99,2.12,1.48,3.65,1.48Z"/>
      <path class="cls-1" d="M206.23,182.6c-1.68,0-3.09-.4-4.23-1.2-1.14-.8-1.99-1.84-2.56-3.13-.58-1.28-.86-2.65-.86-4.09s.29-2.79.86-4.05c.57-1.26,1.43-2.29,2.56-3.09,1.13-.8,2.54-1.2,4.23-1.2,1.15,0,2.24.26,3.29.78,1.04.52,1.84,1.29,2.4,2.3l-.56-.04v-7.21h-2.77v-2.85h6.53v20.52h2.44v2.84h-5.97v-2.88l.32.2c-.56.99-1.36,1.75-2.4,2.28s-2.14.8-3.29.8ZM206.95,179.44c.85,0,1.69-.17,2.5-.52.82-.35,1.52-.91,2.1-1.68l-.2,1.56v-9.02l.2,1.44c-.59-.8-1.29-1.37-2.1-1.7-.81-.33-1.65-.5-2.5-.5-1.34,0-2.46.45-3.39,1.34-.92.9-1.38,2.17-1.38,3.83s.46,2.98,1.38,3.89,2.05,1.36,3.39,1.36Z"/>
      <path class="cls-1" d="M226.75,182.6c-1.58,0-2.88-.45-3.91-1.34-1.03-.89-1.54-2.28-1.54-4.15v-8.05h-2.77v-2.81h6.53v9.98c0,1.1.25,1.9.74,2.4.49.51,1.29.76,2.38.76.8,0,1.63-.17,2.48-.5.85-.33,1.72-.89,2.6-1.66l-.8,1.24v-9.42h-2.57v-2.81h6.33v13.1h2.36v2.84h-5.81v-2.4l.76-.12c-1.02.99-2.11,1.72-3.29,2.2-1.18.48-2.35.72-3.53.72Z"/>
      <path class="cls-1" d="M246.58,179.36h2.08v2.84h-8.46v-2.84h2.61v-17.67h-2.77v-2.85h6.53v15.03l6.45-4.81h-2.44v-2.81h8.13v2.81h-2.24l-7.41,5.41,1.2-1.72,6.45,6.61h2.85v2.84h-5.37l-7.61-8.01v5.17Z"/>
      <path class="cls-1" d="M268.5,182.6c-1.68,0-3.07-.46-4.15-1.38s-1.62-2.41-1.62-4.47v-7.69h-2.77v-2.81h2.77v-5.29l3.77-.68v5.97h4.41v2.81h-4.41v7.17c0,1.2.26,2.03.78,2.48.52.46,1.24.68,2.14.68.35,0,.69-.05,1.04-.14.35-.09.65-.19.92-.3l.48,2.81c-.4.24-.9.44-1.5.6-.6.16-1.22.24-1.86.24Z"/>
      <path class="cls-1" d="M283.01,182.6c-2.06,0-3.79-.38-5.19-1.12-1.4-.75-2.45-1.76-3.15-3.03-.7-1.27-1.04-2.69-1.04-4.27s.34-2.95,1.02-4.21c.68-1.25,1.66-2.26,2.95-3s2.78-1.12,4.49-1.12,3.27.37,4.53,1.12c1.25.75,2.22,1.75,2.88,3,.67,1.26,1,2.67,1,4.25v1.52h-14.79v-2.93h11.22c0-.67-.19-1.32-.58-1.94-.39-.63-.94-1.16-1.64-1.58-.71-.43-1.58-.64-2.62-.64s-1.92.22-2.65.66c-.72.44-1.28,1.01-1.66,1.7-.39.7-.58,1.42-.58,2.16v1c0,1.63.49,2.92,1.48,3.87.99.95,2.47,1.42,4.45,1.42,1.12,0,2.18-.19,3.19-.56,1-.37,1.84-.85,2.5-1.44l1.56,2.64c-.86.78-1.93,1.38-3.23,1.82-1.3.44-2.68.66-4.15.66Z"/>
      <path class="cls-1" d="M292.79,182.2v-2.84h2.56v-10.3h-2.76v-2.81h6.29v4.45l-.4-.36c.64-1.5,1.4-2.62,2.26-3.37s1.82-1.12,2.87-1.12c.91,0,1.76.24,2.57.72l-1.24,3.73c-.38-.32-.75-.55-1.12-.7-.38-.15-.74-.22-1.08-.22-.78,0-1.48.26-2.1.78s-1.13,1.24-1.5,2.14v7.05h2.97v2.84h-9.3Z"/>
    </g>
    <path class="cls-1" d="M139.7,124.8v-14.21h14.69l-12.08-39.56c-2.13-1.18-3.89-2.92-5.27-5.21-1.38-2.29-2.07-4.74-2.07-7.34,0-3.95,1.38-7.3,4.14-10.07s6.12-4.14,10.07-4.14c3.08,0,5.82.89,8.23,2.66,2.41,1.78,4.09,4.05,5.03,6.81h15.16v-4.74c0-1.34.45-2.47,1.36-3.38s2.03-1.36,3.38-1.36c.71,0,1.4.16,2.07.47.67.32,1.24.79,1.72,1.42l8.05-7.58c.71-.71,1.56-1.16,2.55-1.36.99-.2,1.95-.06,2.9.41l18.47,8.53c.95.47,1.6,1.16,1.95,2.07s.34,1.8-.06,2.66c-.47.95-1.16,1.56-2.07,1.84s-1.8.22-2.66-.18l-17.05-7.82-11.13,10.42v6.63l11.13,10.18,17.05-7.82c.87-.39,1.78-.43,2.72-.12.95.32,1.62.91,2.01,1.78.47.95.51,1.86.12,2.72s-1.07,1.54-2.01,2.01l-18.47,8.76c-.95.47-1.91.61-2.9.41-.99-.2-1.84-.65-2.55-1.36l-8.05-7.58c-.47.47-1.05.91-1.72,1.3s-1.36.59-2.07.59c-1.34,0-2.47-.45-3.38-1.36-.91-.91-1.36-2.03-1.36-3.38v-4.74h-15.16c-.24.63-.49,1.22-.77,1.78s-.65,1.14-1.13,1.78l23.69,43.82h17.05v14.21h-61.58ZM149.18,63.21c1.34,0,2.47-.45,3.38-1.36.91-.91,1.36-2.03,1.36-3.38s-.45-2.47-1.36-3.38c-.91-.91-2.03-1.36-3.38-1.36s-2.47.45-3.38,1.36c-.91.91-1.36,2.03-1.36,3.38s.45,2.47,1.36,3.38c.91.91,2.03,1.36,3.38,1.36ZM164.1,110.59h9.24l-20.37-37.9h-.47l11.61,37.9Z"/>
  </g>
</svg>