<?xml version="1.0" encoding="UTF-8"?>
<svg id="Lager_2" data-name="Lager 2" xmlns="http://www.w3.org/2000/svg" xmlns:xlink="http://www.w3.org/1999/xlink" viewBox="0 0 1476.45 676.73">
  <defs>
    <style>
      .cls-1 {
        fill: #662d91;
      }

      .cls-1, .cls-2, .cls-3, .cls-4, .cls-5, .cls-6, .cls-7, .cls-8, .cls-9, .cls-10, .cls-11 {
        stroke-width: 0px;
      }

      .cls-2 {
        fill: #c47e6e;
      }

      .cls-3 {
        fill: #ffaa01;
      }

      .cls-4 {
        fill: #15484e;
      }

      .cls-5 {
        fill: #b5b04d;
      }

      .cls-6 {
        fill: #f96b1f;
      }

      .cls-7 {
        fill: #ed3b21;
      }

      .cls-8 {
        fill: #7ac943;
      }

      .cls-9 {
        fill: #fff;
      }

      .cls-10 {
        fill: #dd739f;
      }

      .cls-11 {
        fill: #17a2cc;
      }
    </style>
  </defs>
  <g id="Lager_1-2" data-name="Lager 1">
    <polygon class="cls-10" points="1111.49 676.61 1111.49 454.23 756.43 454.23 756.43 676.49 1111.49 676.61"/>
    <rect class="cls-11" x="393.49" y="229.23" width="355.06" height="217.11"/>
    <path class="cls-4" d="M385.6.58c-12.58.78-29.81,4.42-48.7,21.48L7,322.38c-4.33,4.01-7,9.7-7,15.98s2.67,11.97,7,15.98l329.9,300.32c18.89,17.06,36.12,20.7,48.7,21.48V.58Z"/>
    <path class="cls-7" d="M393.49,221.34h355.06V.24l-353.8.12c-.41,0-.83,0-1.26,0v220.97Z"/>
    <polygon class="cls-3" points="756.43 .24 756.43 221.34 1111.49 221.34 1111.49 .12 756.43 .24"/>
    <path class="cls-8" d="M1119.38,221.34h357.07V22.06c0-12.18-10.13-22.06-22.62-22.06l-334.45.12v221.22Z"/>
    <path class="cls-5" d="M748.54,454.23h-355.06v222.13c.43,0,.85,0,1.26,0l353.8.12v-222.26Z"/>
    <rect class="cls-6" x="756.43" y="229.23" width="355.06" height="217.11"/>
    <path class="cls-2" d="M1119.38,229.23v217.11h357.07v-217.11h-357.07Z"/>
    <path class="cls-1" d="M1119.38,454.23v222.38l334.45.12c12.49,0,22.62-9.88,22.62-22.06v-200.44h-357.07Z"/>
    <image width="508" height="981" transform="translate(95.25 407.99) rotate(-90) scale(.3)" xlink:href="../../Prevas-handen-singel-robot-01.png"/>
    <g>
      <path class="cls-9" d="M452.88,411.43l-7.61-20.32h-2.6v-3.05h9.78v3.05h-2.81l6.17,16.71h-.8l6.17-16.71h-2.81v-3.05h9.5v3.05h-2.57l-7.65,20.32h-4.77Z"/>
      <path class="cls-9" d="M475.53,411.83c-1.92,0-3.39-.44-4.41-1.32-1.02-.88-1.52-2.04-1.52-3.49,0-1.52.55-2.71,1.66-3.55,1.11-.84,2.73-1.26,4.87-1.26.72,0,1.53.07,2.42.2.89.13,1.73.31,2.5.52l-.64.44v-1.92c0-1.01-.33-1.8-1-2.34s-1.67-.82-3.01-.82c-.91,0-1.8.12-2.68.36s-1.72.59-2.52,1.04l-.92-2.97c1.01-.56,2.11-.97,3.29-1.24,1.17-.27,2.24-.4,3.21-.4,2.4,0,4.23.54,5.49,1.62,1.25,1.08,1.88,2.68,1.88,4.79v7.09h2.36v2.84h-5.81v-2.56l.52.44c-.7.8-1.56,1.42-2.61,1.86-1.04.44-2.07.66-3.08.66ZM476.37,408.95c.8,0,1.62-.16,2.46-.48.84-.32,1.49-.73,1.94-1.24l-.36,1.12v-3.89l.64,1.04c-.75-.21-1.48-.37-2.2-.46-.72-.09-1.42-.14-2.08-.14-1.12,0-1.99.17-2.61.52-.61.35-.92.87-.92,1.56,0,.64.27,1.13.8,1.46s1.31.5,2.32.5ZM477.21,392.72c-.99,0-1.82-.33-2.5-.98-.68-.65-1.02-1.46-1.02-2.42s.34-1.82,1.02-2.49c.68-.67,1.52-1,2.5-1s1.82.33,2.5.98c.68.66,1.02,1.49,1.02,2.5,0,.96-.34,1.77-1.02,2.42-.68.66-1.52.98-2.5.98ZM477.21,391.23c.56,0,1.02-.19,1.38-.56s.54-.83.54-1.36-.18-.99-.54-1.36c-.36-.37-.82-.56-1.38-.56s-1.02.19-1.38.56c-.36.38-.54.83-.54,1.36s.18.99.54,1.36c.36.37.82.56,1.38.56Z"/>
      <path class="cls-9" d="M487.99,411.43v-2.84h2.56v-10.3h-2.76v-2.81h6.29v4.45l-.4-.36c.64-1.5,1.4-2.62,2.26-3.37s1.82-1.12,2.87-1.12c.91,0,1.76.24,2.57.72l-1.24,3.73c-.38-.32-.75-.55-1.12-.7-.38-.15-.74-.22-1.08-.22-.78,0-1.48.26-2.1.78s-1.13,1.24-1.5,2.14v7.05h2.97v2.84h-9.3Z"/>
      <path class="cls-9" d="M509.03,411.83c-1.92,0-3.39-.44-4.41-1.32-1.02-.88-1.52-2.04-1.52-3.49,0-1.52.55-2.71,1.66-3.55,1.11-.84,2.73-1.26,4.87-1.26.72,0,1.53.07,2.42.2.89.13,1.73.31,2.5.52l-.64.44v-1.92c0-1.01-.33-1.8-1-2.34s-1.67-.82-3.01-.82c-.91,0-1.8.12-2.68.36s-1.72.59-2.52,1.04l-.92-2.97c1.01-.56,2.11-.97,3.29-1.24,1.17-.27,2.24-.4,3.21-.4,2.4,0,4.23.54,5.49,1.62,1.25,1.08,1.88,2.68,1.88,4.79v7.09h2.36v2.84h-5.81v-2.56l.52.44c-.7.8-1.56,1.42-2.61,1.86-1.04.44-2.07.66-3.08.66ZM509.87,408.95c.8,0,1.62-.16,2.46-.48.84-.32,1.49-.73,1.94-1.24l-.36,1.12v-3.89l.64,1.04c-.75-.21-1.48-.37-2.2-.46-.72-.09-1.42-.14-2.08-.14-1.12,0-1.99.17-2.61.52-.61.35-.92.87-.92,1.56,0,.64.27,1.13.8,1.46s1.31.5,2.32.5Z"/>
      <path class="cls-9" d="M533.79,411.43v-3.04h2.77v-17.27h-2.77v-3.05h12.58c2.78,0,4.87.58,6.27,1.72,1.4,1.15,2.1,2.87,2.1,5.17s-.7,4.05-2.1,5.19c-1.4,1.14-3.49,1.7-6.27,1.7h-3.81v-3.05h3.29c1.47,0,2.59-.33,3.37-.98.77-.65,1.16-1.61,1.16-2.87s-.38-2.28-1.14-2.91c-.76-.63-1.89-.94-3.39-.94h-5.09v17.27h3.73v3.04h-10.7Z"/>
      <path class="cls-9" d="M557.04,411.43v-2.84h2.56v-10.3h-2.76v-2.81h6.29v4.45l-.4-.36c.64-1.5,1.4-2.62,2.26-3.37s1.82-1.12,2.87-1.12c.91,0,1.76.24,2.57.72l-1.24,3.73c-.38-.32-.75-.55-1.12-.7-.38-.15-.74-.22-1.08-.22-.78,0-1.48.26-2.1.78s-1.13,1.24-1.5,2.14v7.05h2.97v2.84h-9.3Z"/>
      <path class="cls-9" d="M580.6,411.83c-1.74,0-3.25-.38-4.55-1.12-1.3-.75-2.3-1.76-3-3.03-.71-1.27-1.06-2.69-1.06-4.27s.35-2.99,1.06-4.25c.71-1.25,1.71-2.25,3-2.99,1.3-.73,2.81-1.1,4.55-1.1s3.21.37,4.51,1.1c1.3.74,2.3,1.73,3.03,2.99.72,1.26,1.08,2.67,1.08,4.25s-.36,3-1.08,4.27c-.72,1.27-1.73,2.28-3.03,3.03-1.3.75-2.8,1.12-4.51,1.12ZM580.6,408.75c1.47,0,2.67-.49,3.59-1.48.92-.99,1.38-2.27,1.38-3.85s-.46-2.81-1.38-3.79c-.92-.97-2.12-1.46-3.59-1.46s-2.74.49-3.65,1.46c-.91.98-1.36,2.24-1.36,3.79s.45,2.86,1.36,3.85c.91.99,2.12,1.48,3.65,1.48Z"/>
      <path class="cls-9" d="M599.71,411.83c-1.68,0-3.09-.4-4.23-1.2-1.14-.8-1.99-1.84-2.56-3.13-.58-1.28-.86-2.65-.86-4.09s.29-2.79.86-4.05c.57-1.26,1.43-2.29,2.56-3.09,1.13-.8,2.54-1.2,4.23-1.2,1.15,0,2.24.26,3.29.78,1.04.52,1.84,1.29,2.4,2.3l-.56-.04v-7.21h-2.77v-2.85h6.53v20.52h2.44v2.84h-5.97v-2.88l.32.2c-.56.99-1.36,1.75-2.4,2.28s-2.14.8-3.29.8ZM600.43,408.67c.85,0,1.69-.17,2.5-.52.82-.35,1.52-.91,2.1-1.68l-.2,1.56v-9.02l.2,1.44c-.59-.8-1.29-1.37-2.1-1.7-.81-.33-1.65-.5-2.5-.5-1.34,0-2.46.45-3.39,1.34-.92.9-1.38,2.17-1.38,3.83s.46,2.98,1.38,3.89,2.05,1.36,3.39,1.36Z"/>
      <path class="cls-9" d="M620.23,411.83c-1.58,0-2.88-.45-3.91-1.34-1.03-.89-1.54-2.28-1.54-4.15v-8.05h-2.77v-2.81h6.53v9.98c0,1.1.25,1.9.74,2.4.49.51,1.29.76,2.38.76.8,0,1.63-.17,2.48-.5.85-.33,1.72-.89,2.6-1.66l-.8,1.24v-9.42h-2.57v-2.81h6.33v13.1h2.36v2.84h-5.81v-2.4l.76-.12c-1.02.99-2.11,1.72-3.29,2.2-1.18.48-2.35.72-3.53.72Z"/>
      <path class="cls-9" d="M640.07,408.59h2.08v2.84h-8.46v-2.84h2.61v-17.67h-2.77v-2.85h6.53v15.03l6.45-4.81h-2.44v-2.81h8.13v2.81h-2.24l-7.41,5.41,1.2-1.72,6.45,6.61h2.85v2.84h-5.37l-7.61-8.01v5.17Z"/>
      <path class="cls-9" d="M661.99,411.83c-1.68,0-3.07-.46-4.15-1.38s-1.62-2.41-1.62-4.47v-7.69h-2.77v-2.81h2.77v-5.29l3.77-.68v5.97h4.41v2.81h-4.41v7.17c0,1.2.26,2.03.78,2.48.52.46,1.24.68,2.14.68.35,0,.69-.05,1.04-.14.35-.09.65-.19.92-.3l.48,2.81c-.4.24-.9.44-1.5.6-.6.16-1.22.24-1.86.24Z"/>
      <path class="cls-9" d="M676.49,411.83c-2.06,0-3.79-.38-5.19-1.12-1.4-.75-2.45-1.76-3.15-3.03-.7-1.27-1.04-2.69-1.04-4.27s.34-2.95,1.02-4.21c.68-1.25,1.66-2.26,2.95-3s2.78-1.12,4.49-1.12,3.27.37,4.53,1.12c1.25.75,2.22,1.75,2.88,3,.67,1.26,1,2.67,1,4.25v1.52h-14.79v-2.93h11.22c0-.67-.19-1.32-.58-1.94-.39-.63-.94-1.16-1.64-1.58-.71-.43-1.58-.64-2.62-.64s-1.92.22-2.65.66c-.72.44-1.28,1.01-1.66,1.7-.39.7-.58,1.42-.58,2.16v1c0,1.63.49,2.92,1.48,3.87.99.95,2.47,1.42,4.45,1.42,1.12,0,2.18-.19,3.19-.56,1-.37,1.84-.85,2.5-1.44l1.56,2.64c-.86.78-1.93,1.38-3.23,1.82-1.3.44-2.68.66-4.15.66Z"/>
      <path class="cls-9" d="M686.27,411.43v-2.84h2.56v-10.3h-2.76v-2.81h6.29v4.45l-.4-.36c.64-1.5,1.4-2.62,2.26-3.37s1.82-1.12,2.87-1.12c.91,0,1.76.24,2.57.72l-1.24,3.73c-.38-.32-.75-.55-1.12-.7-.38-.15-.74-.22-1.08-.22-.78,0-1.48.26-2.1.78s-1.13,1.24-1.5,2.14v7.05h2.97v2.84h-9.3Z"/>
    </g>
    <g>
      <path class="cls-9" d="M240.34,229.83c-2.19,0-4.08-.39-5.65-1.18-1.58-.79-2.78-1.92-3.61-3.41s-1.24-3.28-1.24-5.39v-10.06h-2.52v-3.73h10.5v3.73h-2.48v10.02c0,1.28.21,2.34.64,3.19.43.84,1.04,1.46,1.84,1.86.8.4,1.76.6,2.89.6s2.09-.2,2.91-.6c.81-.4,1.44-1.02,1.86-1.86.43-.84.64-1.9.64-3.19v-10.02h-2.53v-3.73h9.74v3.73h-2.52v10.06c0,2.19-.42,4.03-1.24,5.51-.83,1.48-2.02,2.6-3.59,3.35-1.56.75-3.44,1.12-5.63,1.12Z"/>
      <path class="cls-9" d="M254.77,213.4h6.97v2.72l-.2-.08c.59-1.01,1.4-1.78,2.42-2.28,1.03-.51,2.09-.76,3.19-.76,1.63,0,2.99.39,4.09,1.16,1.09.77,1.93,1.8,2.5,3.07.57,1.27.86,2.65.86,4.15s-.29,2.93-.86,4.21c-.58,1.28-1.41,2.31-2.5,3.09-1.1.77-2.46,1.16-4.09,1.16-1.1,0-2.16-.25-3.19-.76s-1.84-1.27-2.42-2.28l.6-.08v6.13h2.08v3.45h-9.3v-3.45h2.37v-15.99h-2.53v-3.45ZM265.87,225.91c1.12,0,2.07-.39,2.85-1.18.77-.79,1.16-1.9,1.16-3.35s-.39-2.51-1.16-3.29c-.78-.77-1.72-1.16-2.85-1.16-.7,0-1.39.14-2.08.42s-1.32.78-1.88,1.5l.24-1.72v8.62l-.24-1.76c.56.7,1.19,1.19,1.88,1.48s1.39.44,2.08.44Z"/>
      <path class="cls-9" d="M276.16,213.4h6.97v2.72l-.2-.08c.59-1.01,1.4-1.78,2.42-2.28,1.03-.51,2.09-.76,3.19-.76,1.63,0,2.99.39,4.09,1.16,1.09.77,1.93,1.8,2.5,3.07.57,1.27.86,2.65.86,4.15s-.29,2.93-.86,4.21c-.58,1.28-1.41,2.31-2.5,3.09-1.1.77-2.46,1.16-4.09,1.16-1.1,0-2.16-.25-3.19-.76s-1.84-1.27-2.42-2.28l.6-.08v6.13h2.08v3.45h-9.3v-3.45h2.37v-15.99h-2.53v-3.45ZM287.27,225.91c1.12,0,2.07-.39,2.85-1.18.77-.79,1.16-1.9,1.16-3.35s-.39-2.51-1.16-3.29c-.78-.77-1.72-1.16-2.85-1.16-.7,0-1.39.14-2.08.42s-1.32.78-1.88,1.5l.24-1.72v8.62l-.24-1.76c.56.7,1.19,1.19,1.88,1.48s1.39.44,2.08.44Z"/>
      <path class="cls-9" d="M306.1,229.83c-1.87,0-3.37-.49-4.49-1.48-1.12-.99-1.68-2.56-1.68-4.73v-6.77h-2.52v-3.45h2.52v-5.21l4.81-.8v6.01h4.37v3.45h-4.33v6.13c0,1.12.23,1.88.7,2.28.47.4,1.13.6,1.98.6.37,0,.73-.05,1.06-.14.33-.09.63-.19.9-.3l.64,3.45c-.45.27-1.03.49-1.72.68-.7.19-1.44.28-2.24.28Z"/>
      <path class="cls-9" d="M317.6,229.83c-1.92,0-3.4-.45-4.43-1.36-1.03-.91-1.54-2.08-1.54-3.53s.55-2.67,1.64-3.53c1.09-.85,2.74-1.28,4.93-1.28.75,0,1.56.07,2.42.2.87.13,1.62.29,2.26.48l-.68.48v-1.56c0-.88-.31-1.56-.92-2.04-.62-.48-1.54-.72-2.77-.72-.91,0-1.8.12-2.67.36-.87.24-1.7.59-2.5,1.04l-1.16-3.61c1.09-.59,2.28-1.03,3.55-1.32s2.46-.44,3.59-.44c2.56,0,4.49.57,5.79,1.72,1.29,1.15,1.94,2.83,1.94,5.05v6.21h2.08v3.45h-6.53v-2.64l.72.56c-.75.75-1.62,1.35-2.61,1.8s-2.03.68-3.13.68ZM316.36,211.08c-.64,0-1.2-.2-1.68-.6-.48-.4-.72-.96-.72-1.68s.24-1.32.72-1.72c.48-.4,1.04-.6,1.68-.6s1.2.2,1.66.6c.47.4.7.98.7,1.72s-.23,1.28-.7,1.68c-.47.4-1.02.6-1.66.6ZM318.92,226.51c.72,0,1.43-.14,2.12-.42.7-.28,1.23-.63,1.6-1.06l-.44,1.28v-3.73l.68,1.12c-.59-.21-1.19-.36-1.8-.44-.62-.08-1.22-.12-1.8-.12-.94,0-1.66.15-2.16.44-.51.29-.76.72-.76,1.28s.23.94.68,1.22c.45.28,1.08.42,1.88.42ZM323.13,211.08c-.64,0-1.2-.19-1.68-.58-.48-.39-.72-.96-.72-1.7s.24-1.32.72-1.72c.48-.4,1.04-.6,1.68-.6s1.16.2,1.64.6c.48.4.72.98.72,1.72s-.24,1.32-.72,1.7c-.48.39-1.03.58-1.64.58Z"/>
      <path class="cls-9" d="M340.04,229.83c-1.84,0-3.45-.37-4.81-1.1s-2.41-1.75-3.15-3.05c-.74-1.29-1.1-2.76-1.1-4.39s.33-2.95.98-4.21c.65-1.25,1.58-2.25,2.79-2.99,1.2-.73,2.61-1.1,4.21-1.1.8,0,1.56.13,2.28.4.72.27,1.32.66,1.8,1.16.48.51.75,1.1.8,1.76l-.48.04v-2.97h3.41v6.09h-3.05c-.61-1.71-1.91-2.56-3.89-2.56-1.36,0-2.39.42-3.09,1.24-.7.83-1.04,1.9-1.04,3.21s.4,2.4,1.2,3.27c.8.87,1.99,1.3,3.57,1.3.85,0,1.7-.18,2.52-.54.83-.36,1.54-.82,2.12-1.38l2,3.25c-.83.8-1.89,1.43-3.19,1.88s-2.6.68-3.91.68Z"/>
      <path class="cls-9" d="M355.83,225.99h1.8v3.45h-9.02v-3.45h2.37v-16.47h-2.53v-3.45h7.37v15.03l5.89-4.25h-2.16v-3.45h8.46v3.45h-2.04l-6.93,4.89,1.52-2.04,5.77,6.29h2.61v3.45h-6.05l-7.05-7.89v4.45Z"/>
    </g>
    <g>
      <path class="cls-9" d="M216.86,457.43v-3.73h2.48v-15.91h-2.48v-3.73h9.5l5.85,13.34h-.68l5.85-13.34h9.74v3.73h-2.52v15.91h2.52v3.73h-9.74v-3.73h2.24v-13.42l-5.93,13.79h-3.69l-6.05-13.79v13.42h2.24v3.73h-9.34Z"/>
      <path class="cls-9" d="M258.49,457.83c-1.76,0-3.31-.37-4.63-1.1-1.32-.73-2.36-1.74-3.11-3.03s-1.12-2.71-1.12-4.29.37-3.07,1.12-4.33c.75-1.25,1.79-2.25,3.13-2.99,1.33-.73,2.88-1.1,4.65-1.1s3.31.37,4.65,1.1c1.34.74,2.37,1.73,3.11,2.99.73,1.26,1.1,2.7,1.1,4.33s-.37,3.01-1.1,4.29-1.77,2.29-3.11,3.03-2.9,1.1-4.69,1.1ZM258.53,453.99c1.26,0,2.26-.43,3.03-1.28.76-.85,1.14-1.96,1.14-3.33s-.38-2.42-1.14-3.27c-.76-.84-1.77-1.26-3.03-1.26s-2.3.42-3.05,1.26c-.75.84-1.12,1.93-1.12,3.27s.38,2.47,1.14,3.33c.76.86,1.77,1.28,3.03,1.28Z"/>
      <path class="cls-9" d="M269.43,457.43v-3.45h2.32v-9.14h-2.52v-3.45h6.97v2.52l-.52.08c1.02-1.04,2.12-1.8,3.31-2.28,1.19-.48,2.4-.72,3.63-.72,1.66,0,2.97.45,3.95,1.36s1.46,2.31,1.46,4.21v7.41h2.12v3.45h-9.26v-3.45h2.32v-6.17c0-1.02-.22-1.74-.66-2.18-.44-.44-1.13-.66-2.06-.66-.72,0-1.45.14-2.18.42-.74.28-1.46.75-2.18,1.42l.44-1.32v8.5h2.16v3.45h-9.3Z"/>
      <path class="cls-9" d="M299.65,457.83c-1.87,0-3.37-.49-4.49-1.48-1.12-.99-1.68-2.56-1.68-4.73v-6.77h-2.52v-3.45h2.52v-5.21l4.81-.8v6.01h4.37v3.45h-4.33v6.13c0,1.12.23,1.88.7,2.28.47.4,1.13.6,1.98.6.37,0,.73-.05,1.06-.14.33-.09.63-.19.9-.3l.64,3.45c-.45.27-1.03.49-1.72.68-.7.19-1.44.28-2.24.28Z"/>
      <path class="cls-9" d="M314.76,457.83c-2.06,0-3.81-.37-5.25-1.1s-2.53-1.74-3.27-3.03c-.74-1.28-1.1-2.72-1.1-4.33s.35-2.99,1.06-4.25c.71-1.25,1.71-2.26,3-3s2.83-1.12,4.59-1.12,3.24.37,4.51,1.12,2.25,1.75,2.95,3c.69,1.26,1.04,2.67,1.04,4.25v1.6h-14.55v-3.17h9.94c0-.56-.16-1.11-.48-1.64-.32-.53-.77-.97-1.34-1.32-.57-.35-1.29-.52-2.14-.52s-1.54.18-2.12.54c-.59.36-1.04.83-1.34,1.4-.31.57-.46,1.2-.46,1.86v1.24c0,1.42.43,2.53,1.3,3.35.87.81,2.18,1.22,3.95,1.22,1.04,0,2.03-.16,2.97-.48.93-.32,1.72-.76,2.36-1.32l1.84,3.29c-.86.72-1.94,1.3-3.27,1.74-1.32.44-2.72.66-4.19.66Z"/>
      <path class="cls-9" d="M324.29,457.43v-3.45h2.32v-9.14h-2.52v-3.45h6.97v4.81l-.36-.48c.69-1.63,1.5-2.83,2.42-3.59s1.9-1.14,2.95-1.14c.91,0,1.72.24,2.44.72l-1.56,4.57c-.37-.32-.74-.55-1.1-.7-.36-.15-.71-.22-1.06-.22-.72,0-1.37.24-1.94.72-.58.48-1.05,1.15-1.42,2v5.89h2.81v3.45h-9.94Z"/>
      <path class="cls-9" d="M339.36,457.43v-3.45h2.32v-9.14h-2.52v-3.45h6.97v2.52l-.52.08c1.02-1.04,2.12-1.8,3.31-2.28,1.19-.48,2.4-.72,3.63-.72,1.66,0,2.97.45,3.95,1.36s1.46,2.31,1.46,4.21v7.41h2.12v3.45h-9.26v-3.45h2.32v-6.17c0-1.02-.22-1.74-.66-2.18-.44-.44-1.13-.66-2.06-.66-.72,0-1.45.14-2.18.42-.74.28-1.46.75-2.18,1.42l.44-1.32v8.5h2.16v3.45h-9.3Z"/>
      <path class="cls-9" d="M363.81,450.78l-1.64-8.7v-8.02h5.49v8.02l-1.6,8.7h-2.24ZM362.72,457.43v-4.17h4.41v4.17h-4.41Z"/>
    </g>
    <path class="cls-9" d="M533.19,354.03v-14.21h14.69l-12.08-39.56c-2.13-1.18-3.89-2.92-5.27-5.21-1.38-2.29-2.07-4.74-2.07-7.34,0-3.95,1.38-7.3,4.14-10.07s6.12-4.14,10.07-4.14c3.08,0,5.82.89,8.23,2.66,2.41,1.78,4.09,4.05,5.03,6.81h15.16v-4.74c0-1.34.45-2.47,1.36-3.38s2.03-1.36,3.38-1.36c.71,0,1.4.16,2.07.47.67.32,1.24.79,1.72,1.42l8.05-7.58c.71-.71,1.56-1.16,2.55-1.36.99-.2,1.95-.06,2.9.41l18.47,8.53c.95.47,1.6,1.16,1.95,2.07s.34,1.8-.06,2.66c-.47.95-1.16,1.56-2.07,1.84s-1.8.22-2.66-.18l-17.05-7.82-11.13,10.42v6.63l11.13,10.18,17.05-7.82c.87-.39,1.78-.43,2.72-.12.95.32,1.62.91,2.01,1.78.47.95.51,1.86.12,2.72s-1.07,1.54-2.01,2.01l-18.47,8.76c-.95.47-1.91.61-2.9.41-.99-.2-1.84-.65-2.55-1.36l-8.05-7.58c-.47.47-1.05.91-1.72,1.3s-1.36.59-2.07.59c-1.34,0-2.47-.45-3.38-1.36-.91-.91-1.36-2.03-1.36-3.38v-4.74h-15.16c-.24.63-.49,1.22-.77,1.78s-.65,1.14-1.13,1.78l23.69,43.82h17.05v14.21h-61.58ZM542.66,292.45c1.34,0,2.47-.45,3.38-1.36.91-.91,1.36-2.03,1.36-3.38s-.45-2.47-1.36-3.38c-.91-.91-2.03-1.36-3.38-1.36s-2.47.45-3.38,1.36c-.91.91-1.36,2.03-1.36,3.38s.45,2.47,1.36,3.38c.91.91,2.03,1.36,3.38,1.36ZM557.58,339.82h9.24l-20.37-37.9h-.47l11.61,37.9Z"/>
    <g>
      <path class="cls-9" d="M862.07,411.43l-7.61-20.32h-2.6v-3.05h9.78v3.05h-2.81l6.17,16.71h-.8l6.17-16.71h-2.81v-3.05h9.5v3.05h-2.57l-7.65,20.32h-4.77Z"/>
      <path class="cls-9" d="M884.71,411.83c-1.92,0-3.39-.44-4.41-1.32-1.02-.88-1.52-2.04-1.52-3.49,0-1.52.55-2.71,1.66-3.55,1.11-.84,2.73-1.26,4.87-1.26.72,0,1.53.07,2.42.2.89.13,1.73.31,2.5.52l-.64.44v-1.92c0-1.01-.33-1.8-1-2.34s-1.67-.82-3.01-.82c-.91,0-1.8.12-2.68.36s-1.72.59-2.52,1.04l-.92-2.97c1.01-.56,2.11-.97,3.29-1.24,1.17-.27,2.24-.4,3.21-.4,2.4,0,4.23.54,5.49,1.62,1.25,1.08,1.88,2.68,1.88,4.79v7.09h2.36v2.84h-5.81v-2.56l.52.44c-.7.8-1.56,1.42-2.61,1.86-1.04.44-2.07.66-3.08.66ZM885.55,408.95c.8,0,1.62-.16,2.46-.48.84-.32,1.49-.73,1.94-1.24l-.36,1.12v-3.89l.64,1.04c-.75-.21-1.48-.37-2.2-.46-.72-.09-1.42-.14-2.08-.14-1.12,0-1.99.17-2.61.52-.61.35-.92.87-.92,1.56,0,.64.27,1.13.8,1.46s1.31.5,2.32.5ZM886.4,392.72c-.99,0-1.82-.33-2.5-.98-.68-.65-1.02-1.46-1.02-2.42s.34-1.82,1.02-2.49c.68-.67,1.52-1,2.5-1s1.82.33,2.5.98c.68.66,1.02,1.49,1.02,2.5,0,.96-.34,1.77-1.02,2.42-.68.66-1.52.98-2.5.98ZM886.4,391.23c.56,0,1.02-.19,1.38-.56s.54-.83.54-1.36-.18-.99-.54-1.36c-.36-.37-.82-.56-1.38-.56s-1.02.19-1.38.56c-.36.38-.54.83-.54,1.36s.18.99.54,1.36c.36.37.82.56,1.38.56Z"/>
      <path class="cls-9" d="M897.18,411.43v-2.84h2.56v-10.3h-2.76v-2.81h6.29v4.45l-.4-.36c.64-1.5,1.4-2.62,2.26-3.37s1.82-1.12,2.87-1.12c.91,0,1.76.24,2.57.72l-1.24,3.73c-.38-.32-.75-.55-1.12-.7-.38-.15-.74-.22-1.08-.22-.78,0-1.48.26-2.1.78s-1.13,1.24-1.5,2.14v7.05h2.97v2.84h-9.3Z"/>
      <path class="cls-9" d="M919.46,411.83c-1.68,0-3.07-.46-4.15-1.38s-1.62-2.41-1.62-4.47v-7.69h-2.77v-2.81h2.77v-5.29l3.77-.68v5.97h4.41v2.81h-4.41v7.17c0,1.2.26,2.03.78,2.48.52.46,1.24.68,2.14.68.35,0,.69-.05,1.04-.14.35-.09.65-.19.92-.3l.48,2.81c-.4.24-.9.44-1.5.6-.6.16-1.22.24-1.86.24Z"/>
      <path class="cls-9" d="M936.29,411.43v-3.04h2.77v-17.27h-2.77v-3.05h9.74v3.05h-2.77v17.27h8.78v-6.05h3.13v9.1h-18.88Z"/>
      <path class="cls-9" d="M963.74,411.83c-1.92,0-3.39-.44-4.41-1.32-1.02-.88-1.52-2.04-1.52-3.49,0-1.52.55-2.71,1.66-3.55,1.11-.84,2.73-1.26,4.87-1.26.72,0,1.53.07,2.42.2.89.13,1.73.31,2.5.52l-.64.44v-1.92c0-1.01-.33-1.8-1-2.34s-1.67-.82-3.01-.82c-.91,0-1.8.12-2.68.36s-1.72.59-2.52,1.04l-.92-2.97c1.01-.56,2.11-.97,3.29-1.24,1.17-.27,2.24-.4,3.21-.4,2.4,0,4.23.54,5.49,1.62,1.25,1.08,1.88,2.68,1.88,4.79v7.09h2.36v2.84h-5.81v-2.56l.52.44c-.7.8-1.56,1.42-2.61,1.86-1.04.44-2.07.66-3.08.66ZM964.58,408.95c.8,0,1.62-.16,2.46-.48.84-.32,1.49-.73,1.94-1.24l-.36,1.12v-3.89l.64,1.04c-.75-.21-1.48-.37-2.2-.46-.72-.09-1.42-.14-2.08-.14-1.12,0-1.99.17-2.61.52-.61.35-.92.87-.92,1.56,0,.64.27,1.13.8,1.46s1.31.5,2.32.5Z"/>
      <path class="cls-9" d="M987.42,411.83c-1.15,0-2.24-.27-3.29-.8s-1.84-1.3-2.4-2.28l.28-.2v2.88h-5.97v-2.84h2.48v-17.67h-2.77v-2.85h6.53v10.06l-.56.04c.56-1.01,1.36-1.78,2.4-2.3,1.04-.52,2.14-.78,3.29-.78,1.71,0,3.13.4,4.25,1.2,1.12.8,1.97,1.83,2.54,3.09s.86,2.6.86,4.05-.29,2.81-.86,4.09-1.42,2.32-2.54,3.13c-1.12.8-2.54,1.2-4.25,1.2ZM986.7,408.67c1.34,0,2.46-.45,3.39-1.36.92-.91,1.38-2.2,1.38-3.89s-.46-2.93-1.38-3.83c-.92-.89-2.05-1.34-3.39-1.34-.86,0-1.68.17-2.48.5-.8.33-1.51.9-2.12,1.7l.2-1.44v9.02l-.2-1.56c.61.78,1.32,1.34,2.12,1.68.8.35,1.63.52,2.48.52Z"/>
      <path class="cls-9" d="M1008.58,411.83c-1.15,0-2.24-.27-3.29-.8s-1.84-1.3-2.4-2.28l.28-.2v2.88h-5.97v-2.84h2.48v-17.67h-2.77v-2.85h6.53v10.06l-.56.04c.56-1.01,1.36-1.78,2.4-2.3,1.04-.52,2.14-.78,3.29-.78,1.71,0,3.13.4,4.25,1.2,1.12.8,1.97,1.83,2.54,3.09s.86,2.6.86,4.05-.29,2.81-.86,4.09-1.42,2.32-2.54,3.13c-1.12.8-2.54,1.2-4.25,1.2ZM1007.86,408.67c1.34,0,2.46-.45,3.39-1.36.92-.91,1.38-2.2,1.38-3.89s-.46-2.93-1.38-3.83c-.92-.89-2.05-1.34-3.39-1.34-.86,0-1.68.17-2.48.5-.8.33-1.51.9-2.12,1.7l.2-1.44v9.02l-.2-1.56c.61.78,1.32,1.34,2.12,1.68.8.35,1.63.52,2.48.52Z"/>
    </g>
    <g>
      <path class="cls-9" d="M1203.04,411.43v-3.04h2.77v-17.27h-2.77v-3.05h20.2v7.49h-2.84v-4.45h-10.38v6.61h5.49v-2.52h2.61v8.33h-2.61v-2.72h-5.49v7.57h3.73v3.04h-10.7Z"/>
      <path class="cls-9" d="M1225.25,411.43v-2.84h2.56v-10.3h-2.76v-2.81h6.29v4.45l-.4-.36c.64-1.5,1.4-2.62,2.26-3.37s1.82-1.12,2.87-1.12c.91,0,1.76.24,2.57.72l-1.24,3.73c-.38-.32-.75-.55-1.12-.7-.38-.15-.74-.22-1.08-.22-.78,0-1.48.26-2.1.78s-1.13,1.24-1.5,2.14v7.05h2.97v2.84h-9.3Z"/>
      <path class="cls-9" d="M1246.28,411.83c-1.92,0-3.39-.44-4.41-1.32-1.02-.88-1.52-2.04-1.52-3.49,0-1.52.55-2.71,1.66-3.55,1.11-.84,2.73-1.26,4.87-1.26.72,0,1.53.07,2.42.2.89.13,1.73.31,2.5.52l-.64.44v-1.92c0-1.01-.33-1.8-1-2.34s-1.67-.82-3.01-.82c-.91,0-1.8.12-2.68.36s-1.72.59-2.52,1.04l-.92-2.97c1.01-.56,2.11-.97,3.29-1.24,1.17-.27,2.24-.4,3.21-.4,2.4,0,4.23.54,5.49,1.62,1.25,1.08,1.88,2.68,1.88,4.79v7.09h2.36v2.84h-5.81v-2.56l.52.44c-.7.8-1.56,1.42-2.61,1.86-1.04.44-2.07.66-3.08.66ZM1247.12,408.95c.8,0,1.62-.16,2.46-.48.84-.32,1.49-.73,1.94-1.24l-.36,1.12v-3.89l.64,1.04c-.75-.21-1.48-.37-2.2-.46-.72-.09-1.42-.14-2.08-.14-1.12,0-1.99.17-2.61.52-.61.35-.92.87-.92,1.56,0,.64.27,1.13.8,1.46s1.31.5,2.32.5ZM1247.97,392.72c-.99,0-1.82-.33-2.5-.98-.68-.65-1.02-1.46-1.02-2.42s.34-1.82,1.02-2.49c.68-.67,1.52-1,2.5-1s1.82.33,2.5.98c.68.66,1.02,1.49,1.02,2.5,0,.96-.34,1.77-1.02,2.42-.68.66-1.52.98-2.5.98ZM1247.97,391.23c.56,0,1.02-.19,1.38-.56s.54-.83.54-1.36-.18-.99-.54-1.36c-.36-.37-.82-.56-1.38-.56s-1.02.19-1.38.56c-.36.38-.54.83-.54,1.36s.18.99.54,1.36c.36.37.82.56,1.38.56Z"/>
      <path class="cls-9" d="M1268.16,418.69c-1.26,0-2.49-.15-3.71-.46-1.22-.31-2.25-.71-3.11-1.22l1.36-3.05c.8.48,1.64.86,2.53,1.14.88.28,1.78.42,2.68.42,1.58,0,2.73-.4,3.47-1.2.74-.8,1.1-1.9,1.1-3.29v-2.44l.6-.48c-.59.94-1.41,1.66-2.46,2.16-1.06.51-2.18.76-3.39.76-1.74,0-3.19-.38-4.37-1.14-1.18-.76-2.06-1.76-2.64-2.99-.59-1.23-.88-2.52-.88-3.89s.29-2.65.88-3.85c.59-1.2,1.47-2.18,2.64-2.95,1.18-.76,2.63-1.14,4.37-1.14,1.2,0,2.33.25,3.39.76,1.05.51,1.88,1.23,2.46,2.16l-.32.16v-2.68h5.89v2.81h-2.36v12.5c0,1.68-.33,3.11-.98,4.29-.66,1.18-1.58,2.07-2.79,2.69-1.2.61-2.66.92-4.37.92ZM1267.92,407.87c.91,0,1.78-.16,2.62-.48.84-.32,1.57-.84,2.18-1.56l-.2,1.36v-8.17l.2,1.28c-.61-.72-1.34-1.24-2.18-1.56-.84-.32-1.72-.48-2.62-.48-1.42,0-2.6.41-3.55,1.22-.95.82-1.42,2-1.42,3.55s.47,2.75,1.42,3.59c.95.84,2.13,1.26,3.55,1.26Z"/>
      <path class="cls-9" d="M1290.4,411.83c-2.06,0-3.79-.38-5.19-1.12-1.4-.75-2.45-1.76-3.15-3.03-.7-1.27-1.04-2.69-1.04-4.27s.34-2.95,1.02-4.21c.68-1.25,1.66-2.26,2.95-3s2.78-1.12,4.49-1.12,3.27.37,4.53,1.12c1.25.75,2.22,1.75,2.88,3,.67,1.26,1,2.67,1,4.25v1.52h-14.79v-2.93h11.22c0-.67-.19-1.32-.58-1.94-.39-.63-.94-1.16-1.64-1.58-.71-.43-1.58-.64-2.62-.64s-1.92.22-2.65.66c-.72.44-1.28,1.01-1.66,1.7-.39.7-.58,1.42-.58,2.16v1c0,1.63.49,2.92,1.48,3.87.99.95,2.47,1.42,4.45,1.42,1.12,0,2.18-.19,3.19-.56,1-.37,1.84-.85,2.5-1.44l1.56,2.64c-.86.78-1.93,1.38-3.23,1.82-1.3.44-2.68.66-4.15.66Z"/>
      <path class="cls-9" d="M1309.44,411.83c-1.87,0-3.31-.31-4.31-.94-1-.63-1.69-1.5-2.06-2.62l.92-.28v3.45h-2.68v-5.49h2.4c.13.75.44,1.38.92,1.9.48.52,1.08.92,1.8,1.18.72.27,1.5.4,2.32.4,1.12,0,1.95-.19,2.49-.56.53-.37.8-.85.8-1.44,0-.43-.17-.79-.5-1.1-.33-.31-1.01-.59-2.02-.86l-3.73-.92c-1.39-.37-2.48-.92-3.29-1.64-.8-.72-1.2-1.68-1.2-2.89,0-1.04.26-1.94.78-2.68.52-.75,1.26-1.32,2.22-1.7.96-.39,2.07-.58,3.33-.58,1.47,0,2.64.28,3.51.84.87.56,1.46,1.35,1.78,2.37l-.88.04v-2.81h2.73v5.09h-2.44c-.05-.75-.28-1.35-.68-1.8s-.9-.79-1.48-1c-.59-.21-1.22-.32-1.88-.32-1.1,0-1.92.19-2.46.56-.55.38-.82.86-.82,1.44,0,.51.19.89.56,1.16.37.27,1,.52,1.88.76l3.73.88c1.47.35,2.6.88,3.39,1.6.79.72,1.18,1.76,1.18,3.12,0,.99-.26,1.84-.78,2.57-.52.72-1.25,1.28-2.18,1.68-.94.4-2.04.6-3.33.6Z"/>
      <path class="cls-9" d="M1317.53,395.48h6.25v2.64l-.28.04c.56-1.01,1.36-1.78,2.4-2.3,1.04-.52,2.14-.78,3.29-.78,1.71,0,3.13.4,4.25,1.2,1.12.8,1.97,1.83,2.54,3.09s.86,2.6.86,4.05-.29,2.81-.86,4.09-1.42,2.32-2.54,3.13c-1.12.8-2.54,1.2-4.25,1.2-1.15,0-2.24-.27-3.29-.8s-1.84-1.3-2.4-2.28l.56.04v6.65h2.36v2.84h-8.74v-2.84h2.61v-17.15h-2.77v-2.81ZM1328.47,408.67c1.34,0,2.46-.45,3.39-1.36.92-.91,1.38-2.2,1.38-3.89s-.46-2.93-1.38-3.83c-.92-.89-2.05-1.34-3.39-1.34-.86,0-1.68.17-2.48.5-.8.33-1.51.9-2.12,1.7l.2-1.44v9.02l-.2-1.56c.61.78,1.32,1.34,2.12,1.68.8.35,1.63.52,2.48.52Z"/>
      <path class="cls-9" d="M1348.35,411.83c-1.74,0-3.25-.38-4.55-1.12-1.3-.75-2.3-1.76-3-3.03-.71-1.27-1.06-2.69-1.06-4.27s.35-2.99,1.06-4.25c.71-1.25,1.71-2.25,3-2.99,1.3-.73,2.81-1.1,4.55-1.1s3.21.37,4.51,1.1c1.3.74,2.3,1.73,3.03,2.99.72,1.26,1.08,2.67,1.08,4.25s-.36,3-1.08,4.27c-.72,1.27-1.73,2.28-3.03,3.03-1.3.75-2.8,1.12-4.51,1.12ZM1348.35,408.75c1.47,0,2.67-.49,3.59-1.48.92-.99,1.38-2.27,1.38-3.85s-.46-2.81-1.38-3.79c-.92-.97-2.12-1.46-3.59-1.46s-2.74.49-3.65,1.46c-.91.98-1.36,2.24-1.36,3.79s.45,2.86,1.36,3.85c.91.99,2.12,1.48,3.65,1.48Z"/>
      <path class="cls-9" d="M1359.21,411.43v-2.84h2.56v-10.3h-2.76v-2.81h6.29v4.45l-.4-.36c.64-1.5,1.4-2.62,2.26-3.37s1.82-1.12,2.87-1.12c.91,0,1.76.24,2.57.72l-1.24,3.73c-.38-.32-.75-.55-1.12-.7-.38-.15-.74-.22-1.08-.22-.78,0-1.48.26-2.1.78s-1.13,1.24-1.5,2.14v7.05h2.97v2.84h-9.3Z"/>
      <path class="cls-9" d="M1381.49,411.83c-1.68,0-3.07-.46-4.15-1.38s-1.62-2.41-1.62-4.47v-7.69h-2.77v-2.81h2.77v-5.29l3.77-.68v5.97h4.41v2.81h-4.41v7.17c0,1.2.26,2.03.78,2.48.52.46,1.24.68,2.14.68.35,0,.69-.05,1.04-.14.35-.09.65-.19.92-.3l.48,2.81c-.4.24-.9.44-1.5.6-.6.16-1.22.24-1.86.24Z"/>
      <path class="cls-9" d="M1388.06,405.14l-1.24-9.06v-8.02h4.21v8.02l-1.2,9.06h-1.76ZM1387.1,411.43v-3.53h3.69v3.53h-3.69Z"/>
    </g>
    <g>
      <path class="cls-9" d="M455.77,636.43v-3.04h2.56l6.65-17.27h-2.8v-3.05h13.42v3.05h-2.81l6.65,17.27h2.56v3.04h-9.54v-3.04h2.72l-2.48-6.77,1.32,1.12h-10.22l1.12-1.12-2.44,6.77h2.72v3.04h-9.46ZM465.19,625.93l-.68-1.04h8.62l-.6,1.04-3.61-9.78h-.12l-3.61,9.78Z"/>
      <path class="cls-9" d="M482.94,636.43v-2.84h2.56v-10.3h-2.76v-2.81h2.76v-2.16c0-1.12.24-2.11.72-2.97.48-.85,1.13-1.52,1.94-1.98.81-.47,1.77-.7,2.87-.7,1.26,0,2.28.27,3.07.8s1.34,1.24,1.66,2.12l-2.28,1.8c-.19-.53-.45-.95-.78-1.24-.33-.29-.78-.44-1.34-.44-.67,0-1.18.2-1.54.6-.36.4-.54.99-.54,1.76v2.4h4.05v2.81h-4.05v10.3h3.65v2.84h-9.98Z"/>
      <path class="cls-9" d="M495,636.43v-2.84h2.56v-10.3h-2.76v-2.81h2.76v-2.16c0-1.12.24-2.11.72-2.97.48-.85,1.13-1.52,1.94-1.98.81-.47,1.77-.7,2.87-.7,1.26,0,2.28.27,3.07.8s1.34,1.24,1.66,2.12l-2.28,1.8c-.19-.53-.45-.95-.78-1.24-.33-.29-.78-.44-1.34-.44-.67,0-1.18.2-1.54.6-.36.4-.54.99-.54,1.76v2.4h4.05v2.81h-4.05v10.3h3.65v2.84h-9.98Z"/>
      <path class="cls-9" d="M513.76,636.83c-1.92,0-3.39-.44-4.41-1.32-1.02-.88-1.52-2.04-1.52-3.49,0-1.52.55-2.71,1.66-3.55,1.11-.84,2.73-1.26,4.87-1.26.72,0,1.53.07,2.42.2.89.13,1.73.31,2.5.52l-.64.44v-1.92c0-1.01-.33-1.8-1-2.34s-1.67-.82-3.01-.82c-.91,0-1.8.12-2.68.36s-1.72.59-2.52,1.04l-.92-2.97c1.01-.56,2.11-.97,3.29-1.24,1.17-.27,2.24-.4,3.21-.4,2.4,0,4.23.54,5.49,1.62,1.25,1.08,1.88,2.68,1.88,4.79v7.09h2.36v2.84h-5.81v-2.56l.52.44c-.7.8-1.56,1.42-2.61,1.86-1.04.44-2.07.66-3.08.66ZM512.27,617.72c-.53,0-1-.16-1.38-.48-.39-.32-.58-.77-.58-1.36s.19-1.08.58-1.4c.39-.32.85-.48,1.38-.48s.99.16,1.36.48c.37.32.56.79.56,1.4s-.19,1.04-.56,1.36c-.38.32-.83.48-1.36.48ZM514.6,633.95c.8,0,1.62-.16,2.46-.48.84-.32,1.49-.73,1.94-1.24l-.36,1.12v-3.89l.64,1.04c-.75-.21-1.48-.37-2.2-.46-.72-.09-1.42-.14-2.08-.14-1.12,0-1.99.17-2.61.52-.61.35-.92.87-.92,1.56,0,.64.27,1.13.8,1.46s1.31.5,2.32.5ZM518.65,617.72c-.54,0-1-.15-1.38-.46-.39-.31-.58-.77-.58-1.38s.19-1.08.58-1.4c.39-.32.85-.48,1.38-.48.51,0,.96.16,1.34.48.39.32.58.8.58,1.44,0,.59-.19,1.04-.58,1.34-.39.31-.84.46-1.34.46Z"/>
      <path class="cls-9" d="M526.22,636.43v-2.84h2.56v-10.3h-2.76v-2.81h6.29v4.45l-.4-.36c.64-1.5,1.4-2.62,2.26-3.37s1.82-1.12,2.87-1.12c.91,0,1.76.24,2.57.72l-1.24,3.73c-.38-.32-.75-.55-1.12-.7-.38-.15-.74-.22-1.08-.22-.78,0-1.48.26-2.1.78s-1.13,1.24-1.5,2.14v7.05h2.97v2.84h-9.3Z"/>
      <path class="cls-9" d="M549.82,636.83c-1.87,0-3.31-.31-4.31-.94-1-.63-1.69-1.5-2.06-2.62l.92-.28v3.45h-2.68v-5.49h2.4c.13.75.44,1.38.92,1.9.48.52,1.08.92,1.8,1.18.72.27,1.5.4,2.32.4,1.12,0,1.95-.19,2.49-.56.53-.37.8-.85.8-1.44,0-.43-.17-.79-.5-1.1-.33-.31-1.01-.59-2.02-.86l-3.73-.92c-1.39-.37-2.48-.92-3.29-1.64-.8-.72-1.2-1.68-1.2-2.89,0-1.04.26-1.94.78-2.68.52-.75,1.26-1.32,2.22-1.7.96-.39,2.07-.58,3.33-.58,1.47,0,2.64.28,3.51.84.87.56,1.46,1.35,1.78,2.37l-.88.04v-2.81h2.73v5.09h-2.44c-.05-.75-.28-1.35-.68-1.8s-.9-.79-1.48-1c-.59-.21-1.22-.32-1.88-.32-1.1,0-1.92.19-2.46.56-.55.38-.82.86-.82,1.44,0,.51.19.89.56,1.16.37.27,1,.52,1.88.76l3.73.88c1.47.35,2.6.88,3.39,1.6.79.72,1.18,1.76,1.18,3.12,0,.99-.26,1.84-.78,2.57-.52.72-1.25,1.28-2.18,1.68-.94.4-2.04.6-3.33.6Z"/>
      <path class="cls-9" d="M568.34,636.83c-2.06,0-3.79-.38-5.19-1.12-1.4-.75-2.45-1.76-3.15-3.03-.7-1.27-1.04-2.69-1.04-4.27s.34-2.95,1.02-4.21c.68-1.25,1.66-2.26,2.95-3s2.78-1.12,4.49-1.12,3.27.37,4.53,1.12c1.25.75,2.22,1.75,2.88,3,.67,1.26,1,2.67,1,4.25v1.52h-14.79v-2.93h11.22c0-.67-.19-1.32-.58-1.94-.39-.63-.94-1.16-1.64-1.58-.71-.43-1.58-.64-2.62-.64s-1.92.22-2.65.66c-.72.44-1.28,1.01-1.66,1.7-.39.7-.58,1.42-.58,2.16v1c0,1.63.49,2.92,1.48,3.87.99.95,2.47,1.42,4.45,1.42,1.12,0,2.18-.19,3.19-.56,1-.37,1.84-.85,2.5-1.44l1.56,2.64c-.86.78-1.93,1.38-3.23,1.82-1.3.44-2.68.66-4.15.66Z"/>
      <path class="cls-9" d="M578.11,636.43v-2.84h2.56v-10.3h-2.76v-2.81h6.29v2.4l-.52.12c1.01-1.01,2.12-1.76,3.31-2.22,1.19-.47,2.36-.7,3.51-.7,1.71,0,3.04.44,3.99,1.32.95.88,1.42,2.27,1.42,4.17v8.01h2.36v2.84h-8.7v-2.84h2.56v-7.13c0-1.09-.25-1.9-.74-2.4-.49-.51-1.29-.76-2.38-.76-.8,0-1.62.15-2.44.46-.83.31-1.7.85-2.6,1.62l.48-1.24v9.46h2.41v2.84h-8.74Z"/>
      <path class="cls-9" d="M599.47,636.43v-2.84h2.61v-17.67h-2.77v-2.85h6.53v9.82l-.76.12c1.02-1.01,2.11-1.76,3.29-2.22,1.18-.47,2.35-.7,3.53-.7,1.71,0,3.04.44,3.99,1.32.95.88,1.42,2.27,1.42,4.17v8.01h2.36v2.84h-8.74v-2.84h2.6v-7.13c0-1.09-.25-1.9-.74-2.4-.5-.51-1.29-.76-2.38-.76-.8,0-1.62.15-2.46.46-.84.31-1.72.85-2.62,1.62l.52-1.24v9.46h2.36v2.84h-8.74Z"/>
      <path class="cls-9" d="M631.13,636.83c-2.06,0-3.79-.38-5.19-1.12-1.4-.75-2.45-1.76-3.15-3.03-.7-1.27-1.04-2.69-1.04-4.27s.34-2.95,1.02-4.21c.68-1.25,1.66-2.26,2.95-3s2.78-1.12,4.49-1.12,3.27.37,4.53,1.12c1.25.75,2.22,1.75,2.88,3,.67,1.26,1,2.67,1,4.25v1.52h-14.79v-2.93h11.22c0-.67-.19-1.32-.58-1.94-.39-.63-.94-1.16-1.64-1.58-.71-.43-1.58-.64-2.62-.64s-1.92.22-2.65.66c-.72.44-1.28,1.01-1.66,1.7-.39.7-.58,1.42-.58,2.16v1c0,1.63.49,2.92,1.48,3.87.99.95,2.47,1.42,4.45,1.42,1.12,0,2.18-.19,3.19-.56,1-.37,1.84-.85,2.5-1.44l1.56,2.64c-.86.78-1.93,1.38-3.23,1.82-1.3.44-2.68.66-4.15.66Z"/>
      <path class="cls-9" d="M648.84,636.83c-1.68,0-3.07-.46-4.15-1.38s-1.62-2.41-1.62-4.47v-7.69h-2.77v-2.81h2.77v-5.29l3.77-.68v5.97h4.41v2.81h-4.41v7.17c0,1.2.26,2.03.78,2.48.52.46,1.24.68,2.14.68.35,0,.69-.05,1.04-.14.35-.09.65-.19.92-.3l.48,2.81c-.4.24-.9.44-1.5.6-.6.16-1.22.24-1.86.24Z"/>
      <path class="cls-9" d="M663.35,636.83c-2.06,0-3.79-.38-5.19-1.12-1.4-.75-2.45-1.76-3.15-3.03-.7-1.27-1.04-2.69-1.04-4.27s.34-2.95,1.02-4.21c.68-1.25,1.66-2.26,2.95-3s2.78-1.12,4.49-1.12,3.27.37,4.53,1.12c1.25.75,2.22,1.75,2.88,3,.67,1.26,1,2.67,1,4.25v1.52h-14.79v-2.93h11.22c0-.67-.19-1.32-.58-1.94-.39-.63-.94-1.16-1.64-1.58-.71-.43-1.58-.64-2.62-.64s-1.92.22-2.65.66c-.72.44-1.28,1.01-1.66,1.7-.39.7-.58,1.42-.58,2.16v1c0,1.63.49,2.92,1.48,3.87.99.95,2.47,1.42,4.45,1.42,1.12,0,2.18-.19,3.19-.56,1-.37,1.84-.85,2.5-1.44l1.56,2.64c-.86.78-1.93,1.38-3.23,1.82-1.3.44-2.68.66-4.15.66Z"/>
      <path class="cls-9" d="M673.13,636.43v-2.84h2.56v-10.3h-2.76v-2.81h6.29v4.45l-.4-.36c.64-1.5,1.4-2.62,2.26-3.37s1.82-1.12,2.87-1.12c.91,0,1.76.24,2.57.72l-1.24,3.73c-.38-.32-.75-.55-1.12-.7-.38-.15-.74-.22-1.08-.22-.78,0-1.48.26-2.1.78s-1.13,1.24-1.5,2.14v7.05h2.97v2.84h-9.3Z"/>
    </g>
    <g>
      <path class="cls-9" d="M830.45,636.43l-7.61-20.32h-2.6v-3.05h9.78v3.05h-2.81l6.17,16.71h-.8l6.17-16.71h-2.81v-3.05h9.5v3.05h-2.57l-7.65,20.32h-4.77Z"/>
      <path class="cls-9" d="M853.1,636.83c-1.92,0-3.39-.44-4.41-1.32-1.02-.88-1.52-2.04-1.52-3.49,0-1.52.55-2.71,1.66-3.55,1.11-.84,2.73-1.26,4.87-1.26.72,0,1.53.07,2.42.2.89.13,1.73.31,2.5.52l-.64.44v-1.92c0-1.01-.33-1.8-1-2.34s-1.67-.82-3.01-.82c-.91,0-1.8.12-2.68.36s-1.72.59-2.52,1.04l-.92-2.97c1.01-.56,2.11-.97,3.29-1.24,1.17-.27,2.24-.4,3.21-.4,2.4,0,4.23.54,5.49,1.62,1.25,1.08,1.88,2.68,1.88,4.79v7.09h2.36v2.84h-5.81v-2.56l.52.44c-.7.8-1.56,1.42-2.61,1.86-1.04.44-2.07.66-3.08.66ZM853.94,633.95c.8,0,1.62-.16,2.46-.48.84-.32,1.49-.73,1.94-1.24l-.36,1.12v-3.89l.64,1.04c-.75-.21-1.48-.37-2.2-.46-.72-.09-1.42-.14-2.08-.14-1.12,0-1.99.17-2.61.52-.61.35-.92.87-.92,1.56,0,.64.27,1.13.8,1.46s1.31.5,2.32.5ZM854.78,617.72c-.99,0-1.82-.33-2.5-.98-.68-.65-1.02-1.46-1.02-2.42s.34-1.82,1.02-2.49c.68-.67,1.52-1,2.5-1s1.82.33,2.5.98c.68.66,1.02,1.49,1.02,2.5,0,.96-.34,1.77-1.02,2.42-.68.66-1.52.98-2.5.98ZM854.78,616.23c.56,0,1.02-.19,1.38-.56s.54-.83.54-1.36-.18-.99-.54-1.36c-.36-.37-.82-.56-1.38-.56s-1.02.19-1.38.56c-.36.38-.54.83-.54,1.36s.18.99.54,1.36c.36.37.82.56,1.38.56Z"/>
      <path class="cls-9" d="M865.56,636.43v-2.84h2.56v-10.3h-2.76v-2.81h6.29v4.45l-.4-.36c.64-1.5,1.4-2.62,2.26-3.37s1.82-1.12,2.87-1.12c.91,0,1.76.24,2.57.72l-1.24,3.73c-.38-.32-.75-.55-1.12-.7-.38-.15-.74-.22-1.08-.22-.78,0-1.48.26-2.1.78s-1.13,1.24-1.5,2.14v7.05h2.97v2.84h-9.3Z"/>
      <path class="cls-9" d="M886.6,636.83c-1.92,0-3.39-.44-4.41-1.32-1.02-.88-1.52-2.04-1.52-3.49,0-1.52.55-2.71,1.66-3.55,1.11-.84,2.73-1.26,4.87-1.26.72,0,1.53.07,2.42.2.89.13,1.73.31,2.5.52l-.64.44v-1.92c0-1.01-.33-1.8-1-2.34s-1.67-.82-3.01-.82c-.91,0-1.8.12-2.68.36s-1.72.59-2.52,1.04l-.92-2.97c1.01-.56,2.11-.97,3.29-1.24,1.17-.27,2.24-.4,3.21-.4,2.4,0,4.23.54,5.49,1.62,1.25,1.08,1.88,2.68,1.88,4.79v7.09h2.36v2.84h-5.81v-2.56l.52.44c-.7.8-1.56,1.42-2.61,1.86-1.04.44-2.07.66-3.08.66ZM887.44,633.95c.8,0,1.62-.16,2.46-.48.84-.32,1.49-.73,1.94-1.24l-.36,1.12v-3.89l.64,1.04c-.75-.21-1.48-.37-2.2-.46-.72-.09-1.42-.14-2.08-.14-1.12,0-1.99.17-2.61.52-.61.35-.92.87-.92,1.56,0,.64.27,1.13.8,1.46s1.31.5,2.32.5Z"/>
      <path class="cls-9" d="M916.53,636.43v-3.04h3.37v-17.27h-6.17v5.49h-2.96v-8.54h22.48v8.54h-3.01v-5.49h-6.13v17.27h3.33v3.04h-10.9Z"/>
      <path class="cls-9" d="M933.08,643.28v-2.84h1.72c.93,0,1.62-.23,2.06-.7.44-.47.66-1.2.66-2.18v-14.27h-3.17v-2.81h6.93v16.71c0,2.03-.49,3.55-1.46,4.57-.98,1.01-2.41,1.52-4.31,1.52h-2.44ZM939.41,617.8c-.78,0-1.38-.23-1.8-.68-.43-.45-.64-1.01-.64-1.68,0-.72.21-1.32.64-1.78.43-.47,1.03-.7,1.8-.7s1.33.23,1.76.7c.43.47.64,1.06.64,1.78,0,.67-.21,1.23-.64,1.68-.43.46-1.02.68-1.76.68Z"/>
      <path class="cls-9" d="M951.68,636.83c-1.92,0-3.39-.44-4.41-1.32-1.02-.88-1.52-2.04-1.52-3.49,0-1.52.55-2.71,1.66-3.55,1.11-.84,2.73-1.26,4.87-1.26.72,0,1.53.07,2.42.2.89.13,1.73.31,2.5.52l-.64.44v-1.92c0-1.01-.33-1.8-1-2.34s-1.67-.82-3.01-.82c-.91,0-1.8.12-2.68.36s-1.72.59-2.52,1.04l-.92-2.97c1.01-.56,2.11-.97,3.29-1.24,1.17-.27,2.24-.4,3.21-.4,2.4,0,4.23.54,5.49,1.62,1.25,1.08,1.88,2.68,1.88,4.79v7.09h2.36v2.84h-5.81v-2.56l.52.44c-.7.8-1.56,1.42-2.61,1.86-1.04.44-2.07.66-3.08.66ZM950.19,617.72c-.53,0-1-.16-1.38-.48-.39-.32-.58-.77-.58-1.36s.19-1.08.58-1.4c.39-.32.85-.48,1.38-.48s.99.16,1.36.48c.37.32.56.79.56,1.4s-.19,1.04-.56,1.36c-.38.32-.83.48-1.36.48ZM952.52,633.95c.8,0,1.62-.16,2.46-.48.84-.32,1.49-.73,1.94-1.24l-.36,1.12v-3.89l.64,1.04c-.75-.21-1.48-.37-2.2-.46-.72-.09-1.42-.14-2.08-.14-1.12,0-1.99.17-2.61.52-.61.35-.92.87-.92,1.56,0,.64.27,1.13.8,1.46s1.31.5,2.32.5ZM956.56,617.72c-.54,0-1-.15-1.38-.46-.39-.31-.58-.77-.58-1.38s.19-1.08.58-1.4c.39-.32.85-.48,1.38-.48.51,0,.96.16,1.34.48.39.32.58.8.58,1.44,0,.59-.19,1.04-.58,1.34-.39.31-.84.46-1.34.46Z"/>
      <path class="cls-9" d="M964.14,636.43v-2.84h2.56v-10.3h-2.76v-2.81h6.29v2.4l-.52.12c1.01-1.01,2.12-1.76,3.31-2.22,1.19-.47,2.36-.7,3.51-.7,1.71,0,3.04.44,3.99,1.32.95.88,1.42,2.27,1.42,4.17v8.01h2.36v2.84h-8.7v-2.84h2.56v-7.13c0-1.09-.25-1.9-.74-2.4-.49-.51-1.29-.76-2.38-.76-.8,0-1.62.15-2.44.46-.83.31-1.7.85-2.6,1.62l.48-1.24v9.46h2.41v2.84h-8.74Z"/>
      <path class="cls-9" d="M995.04,636.83c-1.87,0-3.31-.31-4.31-.94-1-.63-1.69-1.5-2.06-2.62l.92-.28v3.45h-2.68v-5.49h2.4c.13.75.44,1.38.92,1.9.48.52,1.08.92,1.8,1.18.72.27,1.5.4,2.32.4,1.12,0,1.95-.19,2.49-.56.53-.37.8-.85.8-1.44,0-.43-.17-.79-.5-1.1-.33-.31-1.01-.59-2.02-.86l-3.73-.92c-1.39-.37-2.48-.92-3.29-1.64-.8-.72-1.2-1.68-1.2-2.89,0-1.04.26-1.94.78-2.68.52-.75,1.26-1.32,2.22-1.7.96-.39,2.07-.58,3.33-.58,1.47,0,2.64.28,3.51.84.87.56,1.46,1.35,1.78,2.37l-.88.04v-2.81h2.73v5.09h-2.44c-.05-.75-.28-1.35-.68-1.8s-.9-.79-1.48-1c-.59-.21-1.22-.32-1.88-.32-1.1,0-1.92.19-2.46.56-.55.38-.82.86-.82,1.44,0,.51.19.89.56,1.16.37.27,1,.52,1.88.76l3.73.88c1.47.35,2.6.88,3.39,1.6.79.72,1.18,1.76,1.18,3.12,0,.99-.26,1.84-.78,2.57-.52.72-1.25,1.28-2.18,1.68-.94.4-2.04.6-3.33.6Z"/>
      <path class="cls-9" d="M1011.51,636.83c-1.68,0-3.07-.46-4.15-1.38s-1.62-2.41-1.62-4.47v-7.69h-2.77v-2.81h2.77v-5.29l3.77-.68v5.97h4.41v2.81h-4.41v7.17c0,1.2.26,2.03.78,2.48.52.46,1.24.68,2.14.68.35,0,.69-.05,1.04-.14.35-.09.65-.19.92-.3l.48,2.81c-.4.24-.9.44-1.5.6-.6.16-1.22.24-1.86.24Z"/>
      <path class="cls-9" d="M1026.01,636.83c-2.06,0-3.79-.38-5.19-1.12-1.4-.75-2.45-1.76-3.15-3.03-.7-1.27-1.04-2.69-1.04-4.27s.34-2.95,1.02-4.21c.68-1.25,1.66-2.26,2.95-3s2.78-1.12,4.49-1.12,3.27.37,4.53,1.12c1.25.75,2.22,1.75,2.88,3,.67,1.26,1,2.67,1,4.25v1.52h-14.79v-2.93h11.22c0-.67-.19-1.32-.58-1.94-.39-.63-.94-1.16-1.64-1.58-.71-.43-1.58-.64-2.62-.64s-1.92.22-2.65.66c-.72.44-1.28,1.01-1.66,1.7-.39.7-.58,1.42-.58,2.16v1c0,1.63.49,2.92,1.48,3.87.99.95,2.47,1.42,4.45,1.42,1.12,0,2.18-.19,3.19-.56,1-.37,1.84-.85,2.5-1.44l1.56,2.64c-.86.78-1.93,1.38-3.23,1.82-1.3.44-2.68.66-4.15.66Z"/>
      <path class="cls-9" d="M1035.79,636.43v-2.84h2.56v-10.3h-2.76v-2.81h6.29v4.45l-.4-.36c.64-1.5,1.4-2.62,2.26-3.37s1.82-1.12,2.87-1.12c.91,0,1.76.24,2.57.72l-1.24,3.73c-.38-.32-.75-.55-1.12-.7-.38-.15-.74-.22-1.08-.22-.78,0-1.48.26-2.1.78s-1.13,1.24-1.5,2.14v7.05h2.97v2.84h-9.3Z"/>
    </g>
    <g>
      <path class="cls-9" d="M1259.61,636.43v-3.04h2.77v-17.27h-2.77v-3.05h20.2v7.49h-2.84v-4.45h-10.38v6.61h5.49v-2.52h2.61v8.33h-2.61v-2.72h-5.49v7.57h3.73v3.04h-10.7Z"/>
      <path class="cls-9" d="M1281.05,636.43v-3.04h2.56l6.65-17.27h-2.8v-3.05h13.42v3.05h-2.81l6.65,17.27h2.56v3.04h-9.54v-3.04h2.72l-2.48-6.77,1.32,1.12h-10.22l1.12-1.12-2.44,6.77h2.72v3.04h-9.46ZM1290.46,625.93l-.68-1.04h8.62l-.6,1.04-3.61-9.78h-.12l-3.61,9.78Z"/>
      <path class="cls-9" d="M1328.45,642.24c-1.92,0-3.62-.48-5.09-1.44-1.47-.96-2.66-2.32-3.57-4.09-2.19-.29-4.09-.97-5.69-2.02-1.6-1.05-2.85-2.43-3.75-4.13-.9-1.7-1.34-3.64-1.34-5.83,0-2.35.53-4.43,1.58-6.25,1.06-1.82,2.54-3.25,4.45-4.29,1.91-1.04,4.13-1.56,6.67-1.56s4.83.52,6.73,1.56c1.9,1.04,3.37,2.47,4.43,4.29,1.06,1.82,1.58,3.9,1.58,6.25,0,2.19-.44,4.13-1.32,5.83s-2.11,3.07-3.69,4.11c-1.58,1.04-3.37,1.71-5.37,2,.35.67.9,1.26,1.66,1.76.76.51,1.72.76,2.87.76.59,0,1.1-.05,1.54-.16.44-.11.87-.27,1.3-.48l.72,2.89c-.56.29-1.16.5-1.78.62-.63.12-1.28.18-1.94.18ZM1321.72,633.27c1.71,0,3.19-.34,4.43-1.02s2.22-1.66,2.93-2.95c.71-1.28,1.06-2.79,1.06-4.53s-.35-3.21-1.06-4.51c-.71-1.29-1.68-2.3-2.93-3s-2.72-1.06-4.43-1.06-3.15.35-4.41,1.06c-1.26.71-2.22,1.71-2.91,3-.68,1.3-1.02,2.8-1.02,4.51s.34,3.25,1.02,4.53c.68,1.28,1.65,2.26,2.91,2.95,1.25.68,2.72,1.02,4.41,1.02Z"/>
    </g>
    <g>
      <path class="cls-9" d="M454.97,191.43l-7.61-20.32h-2.6v-3.05h9.78v3.05h-2.81l6.17,16.71h-.8l6.17-16.71h-2.81v-3.05h9.5v3.05h-2.57l-7.65,20.32h-4.77Z"/>
      <path class="cls-9" d="M480.9,191.83c-2.06,0-3.79-.38-5.19-1.12-1.4-.75-2.45-1.76-3.15-3.03-.7-1.27-1.04-2.69-1.04-4.27s.34-2.95,1.02-4.21c.68-1.25,1.66-2.26,2.95-3s2.78-1.12,4.49-1.12,3.27.37,4.53,1.12c1.25.75,2.22,1.75,2.88,3,.67,1.26,1,2.67,1,4.25v1.52h-14.79v-2.93h11.22c0-.67-.19-1.32-.58-1.94-.39-.63-.94-1.16-1.64-1.58-.71-.43-1.58-.64-2.62-.64s-1.92.22-2.65.66c-.72.44-1.28,1.01-1.66,1.7-.39.7-.58,1.42-.58,2.16v1c0,1.63.49,2.92,1.48,3.87.99.95,2.47,1.42,4.45,1.42,1.12,0,2.18-.19,3.19-.56,1-.37,1.84-.85,2.5-1.44l1.56,2.64c-.86.78-1.93,1.38-3.23,1.82-1.3.44-2.68.66-4.15.66Z"/>
      <path class="cls-9" d="M490.67,191.43v-2.84h2.56v-10.3h-2.76v-2.81h6.29v2.4l-.52.12c1.01-1.01,2.1-1.76,3.25-2.22,1.15-.47,2.28-.7,3.41-.7,1.44,0,2.55.28,3.33.84.77.56,1.33,1.31,1.68,2.24l-.52-.2c1.01-1.01,2.09-1.75,3.23-2.2,1.13-.45,2.28-.68,3.43-.68,1.68,0,2.99.44,3.93,1.32.93.88,1.4,2.27,1.4,4.17v8.01h2.36v2.84h-8.62v-2.84h2.48v-7.13c0-1.09-.23-1.9-.7-2.4-.47-.51-1.24-.76-2.3-.76-.78,0-1.58.15-2.4.46-.83.31-1.67.85-2.52,1.62l.32-1.72c.08.32.13.67.16,1.06.03.39.04.68.04.86v8.01h2.28v2.84h-8.5v-2.84h2.48v-7.13c0-1.09-.23-1.9-.7-2.4-.47-.51-1.24-.76-2.3-.76-.77,0-1.58.15-2.4.46-.83.31-1.67.85-2.52,1.62l.48-1.08v9.3h2.28v2.84h-8.62Z"/>
      <path class="cls-9" d="M544.17,191.83c-1.87,0-3.31-.31-4.31-.94-1-.63-1.69-1.5-2.06-2.62l.92-.28v3.45h-2.68v-5.49h2.4c.13.75.44,1.38.92,1.9.48.52,1.08.92,1.8,1.18.72.27,1.5.4,2.32.4,1.12,0,1.95-.19,2.49-.56.53-.37.8-.85.8-1.44,0-.43-.17-.79-.5-1.1-.33-.31-1.01-.59-2.02-.86l-3.73-.92c-1.39-.37-2.48-.92-3.29-1.64-.8-.72-1.2-1.68-1.2-2.89,0-1.04.26-1.94.78-2.68.52-.75,1.26-1.32,2.22-1.7.96-.39,2.07-.58,3.33-.58,1.47,0,2.64.28,3.51.84.87.56,1.46,1.35,1.78,2.37l-.88.04v-2.81h2.73v5.09h-2.44c-.05-.75-.28-1.35-.68-1.8s-.9-.79-1.48-1c-.59-.21-1.22-.32-1.88-.32-1.1,0-1.92.19-2.46.56-.55.38-.82.86-.82,1.44,0,.51.19.89.56,1.16.37.27,1,.52,1.88.76l3.73.88c1.47.35,2.6.88,3.39,1.6.79.72,1.18,1.76,1.18,3.12,0,.99-.26,1.84-.78,2.57-.52.72-1.25,1.28-2.18,1.68-.94.4-2.04.6-3.33.6Z"/>
      <path class="cls-9" d="M561.92,191.83c-1.74,0-3.25-.38-4.55-1.12-1.3-.75-2.3-1.76-3-3.03-.71-1.27-1.06-2.69-1.06-4.27s.35-2.99,1.06-4.25c.71-1.25,1.71-2.25,3-2.99,1.3-.73,2.81-1.1,4.55-1.1s3.21.37,4.51,1.1c1.3.74,2.3,1.73,3.03,2.99.72,1.26,1.08,2.67,1.08,4.25s-.36,3-1.08,4.27c-.72,1.27-1.73,2.28-3.03,3.03-1.3.75-2.8,1.12-4.51,1.12ZM558.76,172.72c-.53,0-1-.16-1.38-.48-.39-.32-.58-.77-.58-1.36s.19-1.08.58-1.4c.39-.32.85-.48,1.38-.48s.99.16,1.36.48c.37.32.56.79.56,1.4s-.19,1.04-.56,1.36-.83.48-1.36.48ZM561.92,188.75c1.47,0,2.67-.49,3.59-1.48.92-.99,1.38-2.27,1.38-3.85s-.46-2.81-1.38-3.79c-.92-.97-2.12-1.46-3.59-1.46s-2.74.49-3.65,1.46c-.91.98-1.36,2.24-1.36,3.79s.45,2.86,1.36,3.85c.91.99,2.12,1.48,3.65,1.48ZM565.13,172.72c-.54,0-1-.15-1.38-.46-.39-.31-.58-.77-.58-1.38s.19-1.08.58-1.4c.39-.32.85-.48,1.38-.48.51,0,.96.16,1.34.48.39.32.58.8.58,1.44,0,.59-.19,1.04-.58,1.34-.39.31-.83.46-1.34.46Z"/>
      <path class="cls-9" d="M578.88,188.59h2.08v2.84h-8.46v-2.84h2.61v-17.67h-2.77v-2.85h6.53v15.03l6.45-4.81h-2.44v-2.81h8.13v2.81h-2.24l-7.41,5.41,1.2-1.72,6.45,6.61h2.85v2.84h-5.37l-7.61-8.01v5.17Z"/>
      <path class="cls-9" d="M602.84,191.83c-2.06,0-3.79-.38-5.19-1.12-1.4-.75-2.45-1.76-3.15-3.03-.7-1.27-1.04-2.69-1.04-4.27s.34-2.95,1.02-4.21c.68-1.25,1.66-2.26,2.95-3s2.78-1.12,4.49-1.12,3.27.37,4.53,1.12c1.25.75,2.22,1.75,2.88,3,.67,1.26,1,2.67,1,4.25v1.52h-14.79v-2.93h11.22c0-.67-.19-1.32-.58-1.94-.39-.63-.94-1.16-1.64-1.58-.71-.43-1.58-.64-2.62-.64s-1.92.22-2.65.66c-.72.44-1.28,1.01-1.66,1.7-.39.7-.58,1.42-.58,2.16v1c0,1.63.49,2.92,1.48,3.87.99.95,2.47,1.42,4.45,1.42,1.12,0,2.18-.19,3.19-.56,1-.37,1.84-.85,2.5-1.44l1.56,2.64c-.86.78-1.93,1.38-3.23,1.82-1.3.44-2.68.66-4.15.66Z"/>
      <path class="cls-9" d="M612.62,191.43v-2.84h2.56v-10.3h-2.76v-2.81h6.29v4.45l-.4-.36c.64-1.5,1.4-2.62,2.26-3.37s1.82-1.12,2.87-1.12c.91,0,1.76.24,2.57.72l-1.24,3.73c-.38-.32-.75-.55-1.12-.7-.38-.15-.74-.22-1.08-.22-.78,0-1.48.26-2.1.78s-1.13,1.24-1.5,2.14v7.05h2.97v2.84h-9.3Z"/>
      <path class="cls-9" d="M646.92,191.83c-1.68,0-3.09-.4-4.23-1.2-1.14-.8-1.99-1.84-2.56-3.13-.58-1.28-.86-2.65-.86-4.09s.29-2.79.86-4.05c.57-1.26,1.43-2.29,2.56-3.09,1.13-.8,2.54-1.2,4.23-1.2,1.15,0,2.24.26,3.29.78,1.04.52,1.84,1.29,2.4,2.3l-.56-.04v-7.21h-2.77v-2.85h6.53v20.52h2.44v2.84h-5.97v-2.88l.32.2c-.56.99-1.36,1.75-2.4,2.28s-2.14.8-3.29.8ZM647.64,188.67c.85,0,1.69-.17,2.5-.52.82-.35,1.52-.91,2.1-1.68l-.2,1.56v-9.02l.2,1.44c-.59-.8-1.29-1.37-2.1-1.7-.81-.33-1.65-.5-2.5-.5-1.34,0-2.46.45-3.39,1.34-.92.9-1.38,2.17-1.38,3.83s.46,2.98,1.38,3.89,2.05,1.36,3.39,1.36Z"/>
      <path class="cls-9" d="M667.44,191.83c-1.58,0-2.88-.45-3.91-1.34-1.03-.89-1.54-2.28-1.54-4.15v-8.05h-2.77v-2.81h6.53v9.98c0,1.1.25,1.9.74,2.4.49.51,1.29.76,2.38.76.8,0,1.63-.17,2.48-.5.85-.33,1.72-.89,2.6-1.66l-.8,1.24v-9.42h-2.57v-2.81h6.33v13.1h2.36v2.84h-5.81v-2.4l.76-.12c-1.02.99-2.11,1.72-3.29,2.2-1.18.48-2.35.72-3.53.72Z"/>
      <path class="cls-9" d="M687.71,185.14v-1.68c0-.88.15-1.62.44-2.22.29-.6.67-1.17,1.12-1.7l1.68-1.8c.51-.56.89-1.13,1.14-1.7.25-.57.38-1.21.38-1.9,0-.93-.27-1.72-.82-2.34-.55-.63-1.44-.94-2.67-.94s-2.2.35-2.83,1.06c-.63.71-.94,1.65-.94,2.83,0,.32.02.66.06,1,.04.35.1.72.18,1.12h-3.29c-.11-.4-.19-.82-.24-1.26-.05-.44-.08-.9-.08-1.38,0-2.03.66-3.63,1.98-4.79,1.32-1.16,3.09-1.74,5.31-1.74s3.87.55,5.11,1.66c1.24,1.11,1.86,2.6,1.86,4.47,0,1.12-.2,2.12-.6,2.99-.4.87-1.03,1.72-1.88,2.54l-2.48,2.24c-.46.43-.82.89-1.1,1.38-.28.5-.42,1.06-.42,1.7v.48h-1.92ZM686.83,191.43v-3.53h3.73v3.53h-3.73Z"/>
    </g>
    <g>
      <path class="cls-9" d="M783.73,191.43v-3.04h2.77v-17.27h-2.77v-3.05h9.74v3.05h-2.77v6.97h11.42v-6.97h-2.81v-3.05h9.78v3.05h-2.77v17.27h2.77v3.04h-9.78v-3.04h2.81v-7.37h-11.42v7.37h2.77v3.04h-9.74Z"/>
      <path class="cls-9" d="M811.38,191.43v-2.84h2.56v-10.3h-2.76v-2.81h6.53v13.1h2.36v2.84h-8.7ZM815.83,172.8c-.78,0-1.38-.23-1.8-.68-.43-.45-.64-1.01-.64-1.68,0-.72.21-1.32.64-1.78.43-.47,1.03-.7,1.8-.7s1.33.23,1.76.7c.43.47.64,1.06.64,1.78,0,.67-.21,1.23-.64,1.68-.43.46-1.02.68-1.76.68Z"/>
      <path class="cls-9" d="M829.85,191.83c-1.68,0-3.07-.46-4.15-1.38s-1.62-2.41-1.62-4.47v-7.69h-2.77v-2.81h2.77v-5.29l3.77-.68v5.97h4.41v2.81h-4.41v7.17c0,1.2.26,2.03.78,2.48.52.46,1.24.68,2.14.68.35,0,.69-.05,1.04-.14.35-.09.65-.19.92-.3l.48,2.81c-.4.24-.9.44-1.5.6-.6.16-1.22.24-1.86.24Z"/>
      <path class="cls-9" d="M842.32,191.83c-1.68,0-3.07-.46-4.15-1.38s-1.62-2.41-1.62-4.47v-7.69h-2.77v-2.81h2.77v-5.29l3.77-.68v5.97h4.41v2.81h-4.41v7.17c0,1.2.26,2.03.78,2.48.52.46,1.24.68,2.14.68.35,0,.69-.05,1.04-.14.35-.09.65-.19.92-.3l.48,2.81c-.4.24-.9.44-1.5.6-.6.16-1.22.24-1.86.24Z"/>
      <path class="cls-9" d="M853.54,191.83c-1.92,0-3.39-.44-4.41-1.32-1.02-.88-1.52-2.04-1.52-3.49,0-1.52.55-2.71,1.66-3.55,1.11-.84,2.73-1.26,4.87-1.26.72,0,1.53.07,2.42.2.89.13,1.73.31,2.5.52l-.64.44v-1.92c0-1.01-.33-1.8-1-2.34s-1.67-.82-3.01-.82c-.91,0-1.8.12-2.68.36s-1.72.59-2.52,1.04l-.92-2.97c1.01-.56,2.11-.97,3.29-1.24,1.17-.27,2.24-.4,3.21-.4,2.4,0,4.23.54,5.49,1.62,1.25,1.08,1.88,2.68,1.88,4.79v7.09h2.36v2.84h-5.81v-2.56l.52.44c-.7.8-1.56,1.42-2.61,1.86-1.04.44-2.07.66-3.08.66ZM854.38,188.95c.8,0,1.62-.16,2.46-.48.84-.32,1.49-.73,1.94-1.24l-.36,1.12v-3.89l.64,1.04c-.75-.21-1.48-.37-2.2-.46-.72-.09-1.42-.14-2.08-.14-1.12,0-1.99.17-2.61.52-.61.35-.92.87-.92,1.56,0,.64.27,1.13.8,1.46s1.31.5,2.32.5Z"/>
      <path class="cls-9" d="M877.26,175.48h6.25v2.64l-.28.04c.56-1.01,1.36-1.78,2.4-2.3,1.04-.52,2.14-.78,3.29-.78,1.71,0,3.13.4,4.25,1.2,1.12.8,1.97,1.83,2.54,3.09s.86,2.6.86,4.05-.29,2.81-.86,4.09-1.42,2.32-2.54,3.13c-1.12.8-2.54,1.2-4.25,1.2-1.15,0-2.24-.27-3.29-.8s-1.84-1.3-2.4-2.28l.56.04v6.65h2.36v2.84h-8.74v-2.84h2.61v-17.15h-2.77v-2.81ZM888.2,188.67c1.34,0,2.46-.45,3.39-1.36.92-.91,1.38-2.2,1.38-3.89s-.46-2.93-1.38-3.83c-.92-.89-2.05-1.34-3.39-1.34-.86,0-1.68.17-2.48.5-.8.33-1.51.9-2.12,1.7l.2-1.44v9.02l-.2-1.56c.61.78,1.32,1.34,2.12,1.68.8.35,1.63.52,2.48.52Z"/>
      <path class="cls-9" d="M905.55,191.83c-1.92,0-3.39-.44-4.41-1.32-1.02-.88-1.52-2.04-1.52-3.49,0-1.52.55-2.71,1.66-3.55,1.11-.84,2.73-1.26,4.87-1.26.72,0,1.53.07,2.42.2.89.13,1.73.31,2.5.52l-.64.44v-1.92c0-1.01-.33-1.8-1-2.34s-1.67-.82-3.01-.82c-.91,0-1.8.12-2.68.36s-1.72.59-2.52,1.04l-.92-2.97c1.01-.56,2.11-.97,3.29-1.24,1.17-.27,2.24-.4,3.21-.4,2.4,0,4.23.54,5.49,1.62,1.25,1.08,1.88,2.68,1.88,4.79v7.09h2.36v2.84h-5.81v-2.56l.52.44c-.7.8-1.56,1.42-2.61,1.86-1.04.44-2.07.66-3.08.66ZM906.39,188.95c.8,0,1.62-.16,2.46-.48.84-.32,1.49-.73,1.94-1.24l-.36,1.12v-3.89l.64,1.04c-.75-.21-1.48-.37-2.2-.46-.72-.09-1.42-.14-2.08-.14-1.12,0-1.99.17-2.61.52-.61.35-.92.87-.92,1.56,0,.64.27,1.13.8,1.46s1.31.5,2.32.5ZM907.23,172.72c-.99,0-1.82-.33-2.5-.98-.68-.65-1.02-1.46-1.02-2.42s.34-1.82,1.02-2.49c.68-.67,1.52-1,2.5-1s1.82.33,2.5.98c.68.66,1.02,1.49,1.02,2.5,0,.96-.34,1.77-1.02,2.42-.68.66-1.52.98-2.5.98ZM907.23,171.23c.56,0,1.02-.19,1.38-.56s.54-.83.54-1.36-.18-.99-.54-1.36c-.36-.37-.82-.56-1.38-.56s-1.02.19-1.38.56c-.36.38-.54.83-.54,1.36s.18.99.54,1.36c.36.37.82.56,1.38.56Z"/>
      <path class="cls-9" d="M935.81,188.59h2.08v2.84h-8.46v-2.84h2.61v-17.67h-2.77v-2.85h6.53v15.03l6.45-4.81h-2.44v-2.81h8.13v2.81h-2.24l-7.41,5.41,1.2-1.72,6.45,6.61h2.85v2.84h-5.37l-7.61-8.01v5.17Z"/>
      <path class="cls-9" d="M959.01,191.83c-1.74,0-3.25-.38-4.55-1.12-1.3-.75-2.3-1.76-3-3.03-.71-1.27-1.06-2.69-1.06-4.27s.35-2.99,1.06-4.25c.71-1.25,1.71-2.25,3-2.99,1.3-.73,2.81-1.1,4.55-1.1s3.21.37,4.51,1.1c1.3.74,2.3,1.73,3.03,2.99.72,1.26,1.08,2.67,1.08,4.25s-.36,3-1.08,4.27c-.72,1.27-1.73,2.28-3.03,3.03-1.3.75-2.8,1.12-4.51,1.12ZM959.01,188.75c1.47,0,2.67-.49,3.59-1.48.92-.99,1.38-2.27,1.38-3.85s-.46-2.81-1.38-3.79c-.92-.97-2.12-1.46-3.59-1.46s-2.74.49-3.65,1.46c-.91.98-1.36,2.24-1.36,3.79s.45,2.86,1.36,3.85c.91.99,2.12,1.48,3.65,1.48Z"/>
      <path class="cls-9" d="M969.87,191.43v-2.84h2.56v-10.3h-2.76v-2.81h6.29v2.4l-.52.12c1.01-1.01,2.12-1.76,3.31-2.22,1.19-.47,2.36-.7,3.51-.7,1.71,0,3.04.44,3.99,1.32.95.88,1.42,2.27,1.42,4.17v8.01h2.36v2.84h-8.7v-2.84h2.56v-7.13c0-1.09-.25-1.9-.74-2.4-.49-.51-1.29-.76-2.38-.76-.8,0-1.62.15-2.44.46-.83.31-1.7.85-2.6,1.62l.48-1.24v9.46h2.41v2.84h-8.74Z"/>
      <path class="cls-9" d="M999.44,191.83c-1.68,0-3.07-.46-4.15-1.38s-1.62-2.41-1.62-4.47v-7.69h-2.77v-2.81h2.77v-5.29l3.77-.68v5.97h4.41v2.81h-4.41v7.17c0,1.2.26,2.03.78,2.48.52.46,1.24.68,2.14.68.35,0,.69-.05,1.04-.14.35-.09.65-.19.92-.3l.48,2.81c-.4.24-.9.44-1.5.6-.6.16-1.22.24-1.86.24Z"/>
      <path class="cls-9" d="M1013.19,191.83c-1.74,0-3.25-.38-4.55-1.12-1.3-.75-2.3-1.76-3-3.03-.71-1.27-1.06-2.69-1.06-4.27s.35-2.99,1.06-4.25c.71-1.25,1.71-2.25,3-2.99,1.3-.73,2.81-1.1,4.55-1.1s3.21.37,4.51,1.1c1.3.74,2.3,1.73,3.03,2.99.72,1.26,1.08,2.67,1.08,4.25s-.36,3-1.08,4.27c-.72,1.27-1.73,2.28-3.03,3.03-1.3.75-2.8,1.12-4.51,1.12ZM1013.19,188.75c1.47,0,2.67-.49,3.59-1.48.92-.99,1.38-2.27,1.38-3.85s-.46-2.81-1.38-3.79c-.92-.97-2.12-1.46-3.59-1.46s-2.74.49-3.65,1.46c-.91.98-1.36,2.24-1.36,3.79s.45,2.86,1.36,3.85c.91.99,2.12,1.48,3.65,1.48Z"/>
      <path class="cls-9" d="M1024.05,191.43v-2.84h2.56v-10.3h-2.76v-2.81h6.29v4.45l-.4-.36c.64-1.5,1.4-2.62,2.26-3.37s1.82-1.12,2.87-1.12c.91,0,1.76.24,2.57.72l-1.24,3.73c-.38-.32-.75-.55-1.12-.7-.38-.15-.74-.22-1.08-.22-.78,0-1.48.26-2.1.78s-1.13,1.24-1.5,2.14v7.05h2.97v2.84h-9.3Z"/>
      <path class="cls-9" d="M1048.37,191.83c-2.06,0-3.79-.38-5.19-1.12-1.4-.75-2.45-1.76-3.15-3.03-.7-1.27-1.04-2.69-1.04-4.27s.34-2.95,1.02-4.21c.68-1.25,1.66-2.26,2.95-3s2.78-1.12,4.49-1.12,3.27.37,4.53,1.12c1.25.75,2.22,1.75,2.88,3,.67,1.26,1,2.67,1,4.25v1.52h-14.79v-2.93h11.22c0-.67-.19-1.32-.58-1.94-.39-.63-.94-1.16-1.64-1.58-.71-.43-1.58-.64-2.62-.64s-1.92.22-2.65.66c-.72.44-1.28,1.01-1.66,1.7-.39.7-.58,1.42-.58,2.16v1c0,1.63.49,2.92,1.48,3.87.99.95,2.47,1.42,4.45,1.42,1.12,0,2.18-.19,3.19-.56,1-.37,1.84-.85,2.5-1.44l1.56,2.64c-.86.78-1.93,1.38-3.23,1.82-1.3.44-2.68.66-4.15.66Z"/>
      <path class="cls-9" d="M1066.08,191.83c-1.68,0-3.07-.46-4.15-1.38s-1.62-2.41-1.62-4.47v-7.69h-2.77v-2.81h2.77v-5.29l3.77-.68v5.97h4.41v2.81h-4.41v7.17c0,1.2.26,2.03.78,2.48.52.46,1.24.68,2.14.68.35,0,.69-.05,1.04-.14.35-.09.65-.19.92-.3l.48,2.81c-.4.24-.9.44-1.5.6-.6.16-1.22.24-1.86.24Z"/>
      <path class="cls-9" d="M1077.15,185.14v-1.68c0-.88.15-1.62.44-2.22.29-.6.67-1.17,1.12-1.7l1.68-1.8c.51-.56.89-1.13,1.14-1.7.25-.57.38-1.21.38-1.9,0-.93-.27-1.72-.82-2.34-.55-.63-1.44-.94-2.67-.94s-2.2.35-2.83,1.06c-.63.71-.94,1.65-.94,2.83,0,.32.02.66.06,1,.04.35.1.72.18,1.12h-3.29c-.11-.4-.19-.82-.24-1.26-.05-.44-.08-.9-.08-1.38,0-2.03.66-3.63,1.98-4.79,1.32-1.16,3.09-1.74,5.31-1.74s3.87.55,5.11,1.66c1.24,1.11,1.86,2.6,1.86,4.47,0,1.12-.2,2.12-.6,2.99-.4.87-1.03,1.72-1.88,2.54l-2.48,2.24c-.46.43-.82.89-1.1,1.38-.28.5-.42,1.06-.42,1.7v.48h-1.92ZM1076.26,191.43v-3.53h3.73v3.53h-3.73Z"/>
    </g>
    <g>
      <path class="cls-9" d="M1204.63,191.43l-7.61-20.32h-2.6v-3.05h9.78v3.05h-2.81l6.17,16.71h-.8l6.17-16.71h-2.81v-3.05h9.5v3.05h-2.57l-7.65,20.32h-4.77Z"/>
      <path class="cls-9" d="M1227.27,191.83c-1.92,0-3.39-.44-4.41-1.32-1.02-.88-1.52-2.04-1.52-3.49,0-1.52.55-2.71,1.66-3.55,1.11-.84,2.73-1.26,4.87-1.26.72,0,1.53.07,2.42.2.89.13,1.73.31,2.5.52l-.64.44v-1.92c0-1.01-.33-1.8-1-2.34s-1.67-.82-3.01-.82c-.91,0-1.8.12-2.68.36s-1.72.59-2.52,1.04l-.92-2.97c1.01-.56,2.11-.97,3.29-1.24,1.17-.27,2.24-.4,3.21-.4,2.4,0,4.23.54,5.49,1.62,1.25,1.08,1.88,2.68,1.88,4.79v7.09h2.36v2.84h-5.81v-2.56l.52.44c-.7.8-1.56,1.42-2.61,1.86-1.04.44-2.07.66-3.08.66ZM1228.11,188.95c.8,0,1.62-.16,2.46-.48.84-.32,1.49-.73,1.94-1.24l-.36,1.12v-3.89l.64,1.04c-.75-.21-1.48-.37-2.2-.46-.72-.09-1.42-.14-2.08-.14-1.12,0-1.99.17-2.61.52-.61.35-.92.87-.92,1.56,0,.64.27,1.13.8,1.46s1.31.5,2.32.5ZM1228.95,172.72c-.99,0-1.82-.33-2.5-.98-.68-.65-1.02-1.46-1.02-2.42s.34-1.82,1.02-2.49c.68-.67,1.52-1,2.5-1s1.82.33,2.5.98c.68.66,1.02,1.49,1.02,2.5,0,.96-.34,1.77-1.02,2.42-.68.66-1.52.98-2.5.98ZM1228.95,171.23c.56,0,1.02-.19,1.38-.56s.54-.83.54-1.36-.18-.99-.54-1.36c-.36-.37-.82-.56-1.38-.56s-1.02.19-1.38.56c-.36.38-.54.83-.54,1.36s.18.99.54,1.36c.36.37.82.56,1.38.56Z"/>
      <path class="cls-9" d="M1239.73,191.43v-2.84h2.56v-10.3h-2.76v-2.81h6.29v4.45l-.4-.36c.64-1.5,1.4-2.62,2.26-3.37s1.82-1.12,2.87-1.12c.91,0,1.76.24,2.57.72l-1.24,3.73c-.38-.32-.75-.55-1.12-.7-.38-.15-.74-.22-1.08-.22-.78,0-1.48.26-2.1.78s-1.13,1.24-1.5,2.14v7.05h2.97v2.84h-9.3Z"/>
      <path class="cls-9" d="M1260.77,191.83c-1.92,0-3.39-.44-4.41-1.32-1.02-.88-1.52-2.04-1.52-3.49,0-1.52.55-2.71,1.66-3.55,1.11-.84,2.73-1.26,4.87-1.26.72,0,1.53.07,2.42.2.89.13,1.73.31,2.5.52l-.64.44v-1.92c0-1.01-.33-1.8-1-2.34s-1.67-.82-3.01-.82c-.91,0-1.8.12-2.68.36s-1.72.59-2.52,1.04l-.92-2.97c1.01-.56,2.11-.97,3.29-1.24,1.17-.27,2.24-.4,3.21-.4,2.4,0,4.23.54,5.49,1.62,1.25,1.08,1.88,2.68,1.88,4.79v7.09h2.36v2.84h-5.81v-2.56l.52.44c-.7.8-1.56,1.42-2.61,1.86-1.04.44-2.07.66-3.08.66ZM1261.61,188.95c.8,0,1.62-.16,2.46-.48.84-.32,1.49-.73,1.94-1.24l-.36,1.12v-3.89l.64,1.04c-.75-.21-1.48-.37-2.2-.46-.72-.09-1.42-.14-2.08-.14-1.12,0-1.99.17-2.61.52-.61.35-.92.87-.92,1.56,0,.64.27,1.13.8,1.46s1.31.5,2.32.5Z"/>
      <path class="cls-9" d="M1285.54,191.43v-3.04h2.77v-17.27h-2.77v-3.05h20.2v7.49h-2.84v-4.45h-10.38v6.93h5.49v-2.52h2.61v8.29h-2.61v-2.72h-5.49v7.29h11.06v-4.65h2.81v7.69h-20.84Z"/>
      <path class="cls-9" d="M1316.47,191.43l-6.29-13.14h-2.08v-2.81h8.46v2.81h-2.45l4.81,10.58h-1.48l5.01-10.58h-2.4v-2.81h8.17v2.81h-2.08l-6.29,13.14h-3.37Z"/>
      <path class="cls-9" d="M1339.15,191.83c-2.06,0-3.79-.38-5.19-1.12-1.4-.75-2.45-1.76-3.15-3.03-.7-1.27-1.04-2.69-1.04-4.27s.34-2.95,1.02-4.21c.68-1.25,1.66-2.26,2.95-3s2.78-1.12,4.49-1.12,3.27.37,4.53,1.12c1.25.75,2.22,1.75,2.88,3,.67,1.26,1,2.67,1,4.25v1.52h-14.79v-2.93h11.22c0-.67-.19-1.32-.58-1.94-.39-.63-.94-1.16-1.64-1.58-.71-.43-1.58-.64-2.62-.64s-1.92.22-2.65.66c-.72.44-1.28,1.01-1.66,1.7-.39.7-.58,1.42-.58,2.16v1c0,1.63.49,2.92,1.48,3.87.99.95,2.47,1.42,4.45,1.42,1.12,0,2.18-.19,3.19-.56,1-.37,1.84-.85,2.5-1.44l1.56,2.64c-.86.78-1.93,1.38-3.23,1.82-1.3.44-2.68.66-4.15.66Z"/>
      <path class="cls-9" d="M1348.93,191.43v-2.84h2.56v-10.3h-2.76v-2.81h6.29v2.4l-.52.12c1.01-1.01,2.12-1.76,3.31-2.22,1.19-.47,2.36-.7,3.51-.7,1.71,0,3.04.44,3.99,1.32.95.88,1.42,2.27,1.42,4.17v8.01h2.36v2.84h-8.7v-2.84h2.56v-7.13c0-1.09-.25-1.9-.74-2.4-.49-.51-1.29-.76-2.38-.76-.8,0-1.62.15-2.44.46-.83.31-1.7.85-2.6,1.62l.48-1.24v9.46h2.41v2.84h-8.74Z"/>
      <path class="cls-9" d="M1378.51,191.83c-1.68,0-3.07-.46-4.15-1.38s-1.62-2.41-1.62-4.47v-7.69h-2.77v-2.81h2.77v-5.29l3.77-.68v5.97h4.41v2.81h-4.41v7.17c0,1.2.26,2.03.78,2.48.52.46,1.24.68,2.14.68.35,0,.69-.05,1.04-.14.35-.09.65-.19.92-.3l.48,2.81c-.4.24-.9.44-1.5.6-.6.16-1.22.24-1.86.24Z"/>
      <path class="cls-9" d="M1392.29,191.83c-1.87,0-3.31-.31-4.31-.94-1-.63-1.69-1.5-2.06-2.62l.92-.28v3.45h-2.68v-5.49h2.4c.13.75.44,1.38.92,1.9.48.52,1.08.92,1.8,1.18.72.27,1.5.4,2.32.4,1.12,0,1.95-.19,2.49-.56.53-.37.8-.85.8-1.44,0-.43-.17-.79-.5-1.1-.33-.31-1.01-.59-2.02-.86l-3.73-.92c-1.39-.37-2.48-.92-3.29-1.64-.8-.72-1.2-1.68-1.2-2.89,0-1.04.26-1.94.78-2.68.52-.75,1.26-1.32,2.22-1.7.96-.39,2.07-.58,3.33-.58,1.47,0,2.64.28,3.51.84.87.56,1.46,1.35,1.78,2.37l-.88.04v-2.81h2.73v5.09h-2.44c-.05-.75-.28-1.35-.68-1.8s-.9-.79-1.48-1c-.59-.21-1.22-.32-1.88-.32-1.1,0-1.92.19-2.46.56-.55.38-.82.86-.82,1.44,0,.51.19.89.56,1.16.37.27,1,.52,1.88.76l3.73.88c1.47.35,2.6.88,3.39,1.6.79.72,1.18,1.76,1.18,3.12,0,.99-.26,1.84-.78,2.57-.52.72-1.25,1.28-2.18,1.68-.94.4-2.04.6-3.33.6Z"/>
    </g>
    <path class="cls-9" d="M1308.98,117.88c-3.32,0-6.12-1.14-8.41-3.43-2.29-2.29-3.43-5.09-3.43-8.41s1.14-6.12,3.43-8.41c2.29-2.29,5.09-3.43,8.41-3.43s6.12,1.14,8.41,3.43,3.43,5.09,3.43,8.41-1.14,6.12-3.43,8.41c-2.29,2.29-5.09,3.43-8.41,3.43ZM1263.98,136.83c-2.61,0-4.84-.93-6.69-2.78-1.86-1.86-2.78-4.09-2.78-6.69V61.03c0-2.61.93-4.84,2.78-6.69,1.86-1.86,4.09-2.78,6.69-2.78h4.74v-9.47h9.47v9.47h37.9v-9.47h9.47v9.47h4.74c2.61,0,4.84.93,6.69,2.78,1.86,1.86,2.78,4.09,2.78,6.69v66.32c0,2.61-.93,4.84-2.78,6.69s-4.09,2.78-6.69,2.78h-66.32ZM1263.98,127.35h66.32v-47.37h-66.32v47.37ZM1263.98,70.51h66.32v-9.47h-66.32v9.47ZM1263.98,70.51v-9.47,9.47Z"/>
    <path class="cls-9" d="M560.5,89.62c-5.21,0-9.67-1.86-13.38-5.57-3.71-3.71-5.57-8.17-5.57-13.38s1.86-9.67,5.57-13.38c3.71-3.71,8.17-5.57,13.38-5.57s9.67,1.86,13.38,5.57c3.71,3.71,5.57,8.17,5.57,13.38s-1.86,9.67-5.57,13.38c-3.71,3.71-8.17,5.57-13.38,5.57ZM560.5,80.15c2.61,0,4.84-.93,6.69-2.78,1.86-1.86,2.78-4.09,2.78-6.69s-.93-4.84-2.78-6.69c-1.86-1.86-4.09-2.78-6.69-2.78s-4.84.93-6.69,2.78-2.78,4.09-2.78,6.69.93,4.84,2.78,6.69,4.09,2.78,6.69,2.78ZM613.08,144.1l-15.16-15.16c-1.66.95-3.43,1.74-5.33,2.37-1.89.63-3.91.95-6.04.95-5.92,0-10.95-2.07-15.1-6.22-4.14-4.14-6.22-9.18-6.22-15.1s2.07-10.95,6.22-15.1c4.14-4.14,9.18-6.22,15.1-6.22s10.95,2.07,15.1,6.22c4.14,4.14,6.22,9.18,6.22,15.1,0,2.13-.32,4.14-.95,6.04s-1.42,3.67-2.37,5.33l15.16,15.16-6.63,6.63ZM586.56,122.78c3.32,0,6.12-1.14,8.41-3.43s3.43-5.09,3.43-8.41-1.14-6.12-3.43-8.41-5.09-3.43-8.41-3.43-6.12,1.14-8.41,3.43-3.43,5.09-3.43,8.41,1.14,6.12,3.43,8.41,5.09,3.43,8.41,3.43ZM522.6,127.52v-13.15c0-2.68.67-5.17,2.01-7.46,1.34-2.29,3.2-4.03,5.57-5.21,4.03-2.05,8.57-3.79,13.62-5.21,5.05-1.42,10.66-2.13,16.82-2.13-.95,1.42-1.76,2.94-2.43,4.56-.67,1.62-1.2,3.3-1.6,5.03-4.74.39-8.96,1.2-12.67,2.43-3.71,1.22-6.83,2.51-9.36,3.85-.79.39-1.4.97-1.84,1.72-.43.75-.65,1.56-.65,2.43v3.67h24.51c.39,1.74.93,3.39,1.6,4.97.67,1.58,1.48,3.08,2.43,4.5h-38.02Z"/>
    <path class="cls-9" d="M915.76,109.04h9.47v-14.21h16.58v11.84l16.58-16.58-16.58-16.58v11.84h-21.32c-1.34,0-2.47.45-3.38,1.36s-1.36,2.03-1.36,3.38v18.95ZM934.7,142.2c-1.18,0-2.35-.24-3.49-.71s-2.19-1.18-3.14-2.13l-37.9-37.9c-.95-.95-1.66-1.99-2.13-3.14s-.71-2.31-.71-3.49.24-2.35.71-3.49c.47-1.14,1.18-2.19,2.13-3.14l37.9-37.9c.95-.95,1.99-1.66,3.14-2.13s2.31-.71,3.49-.71,2.35.24,3.49.71c1.14.47,2.19,1.18,3.14,2.13l37.9,37.9c.95.95,1.66,1.99,2.13,3.14.47,1.14.71,2.31.71,3.49s-.24,2.35-.71,3.49-1.18,2.19-2.13,3.14l-37.9,37.9c-.95.95-1.99,1.66-3.14,2.13-1.14.47-2.31.71-3.49.71ZM915.76,113.78l18.95,18.95,37.9-37.9-37.9-37.9-37.9,37.9,18.95,18.95Z"/>
    <path class="cls-9" d="M901.54,353.29v-9.47h23.69v-9.47c-6.55,0-12.14-2.31-16.76-6.93s-6.93-10.2-6.93-16.76c0-4.82,1.32-9.2,3.97-13.15,2.64-3.95,6.22-6.83,10.72-8.65.63-2.68,2.03-4.86,4.2-6.51s4.64-2.49,7.4-2.49l-2.61-7.34,4.5-1.66-1.66-4.26,9-3.32,1.42,4.5,4.5-1.66,13.03,35.53-4.5,1.66,1.66,4.5-9,3.32-1.42-4.5-4.5,1.66-2.84-7.82c-1.18,1.11-2.55,1.93-4.09,2.49s-3.1.75-4.68.59c-1.74-.16-3.36-.69-4.86-1.6s-2.8-2.03-3.91-3.38c-2.13,1.26-3.81,2.96-5.03,5.09-1.22,2.13-1.84,4.46-1.84,6.99,0,3.95,1.38,7.3,4.14,10.07,2.76,2.76,6.12,4.14,10.07,4.14h37.9v9.47h-23.69v9.47h28.42v9.47h-66.32ZM942.52,299.05l4.26-1.66-8.05-22.26-4.5,1.66,8.29,22.26ZM927.6,296.45c1.34,0,2.47-.45,3.38-1.36.91-.91,1.36-2.03,1.36-3.38s-.45-2.47-1.36-3.38-2.03-1.36-3.38-1.36-2.47.45-3.38,1.36-1.36,2.03-1.36,3.38.45,2.47,1.36,3.38,2.03,1.36,3.38,1.36Z"/>
    <path class="cls-9" d="M1266.32,356.5v-20.37c-4.5-4.11-7.99-8.9-10.48-14.39s-3.73-11.27-3.73-17.35c0-11.84,4.14-21.91,12.43-30.2,8.29-8.29,18.36-12.43,30.2-12.43,9.87,0,18.61,2.9,26.23,8.7,7.62,5.8,12.57,13.36,14.86,22.68l6.16,24.28c.39,1.5.12,2.86-.83,4.09s-2.21,1.84-3.79,1.84h-9.47v14.21c0,2.61-.93,4.84-2.78,6.69-1.86,1.86-4.09,2.78-6.69,2.78h-9.47v9.47h-9.47v-18.95h18.95v-23.69h12.79l-4.5-18.36c-1.82-7.18-5.68-13.03-11.61-17.53-5.92-4.5-12.71-6.75-20.37-6.75-9.16,0-16.97,3.2-23.45,9.59-6.47,6.4-9.71,14.17-9.71,23.33,0,4.74.97,9.24,2.9,13.5,1.93,4.26,4.68,8.05,8.23,11.37l3.08,2.84v24.63h-9.47ZM1294.74,328.08c1.34,0,2.47-.45,3.38-1.36.91-.91,1.36-2.03,1.36-3.38s-.45-2.47-1.36-3.38c-.91-.91-2.03-1.36-3.38-1.36s-2.47.45-3.38,1.36-1.36,2.03-1.36,3.38.45,2.47,1.36,3.38,2.03,1.36,3.38,1.36ZM1291.19,312.92h7.22c0-1.97.26-3.57.77-4.8.51-1.22,1.56-2.7,3.14-4.44,1.42-1.58,2.8-3.18,4.14-4.8,1.34-1.62,2.01-3.73,2.01-6.34,0-3.32-1.28-6.12-3.85-8.41-2.57-2.29-5.74-3.43-9.53-3.43-3.16,0-6.02.91-8.59,2.72s-4.36,4.18-5.39,7.11l6.51,2.72c.55-1.74,1.52-3.14,2.9-4.2,1.38-1.07,2.9-1.6,4.56-1.6s3.18.47,4.32,1.42c1.14.95,1.72,2.17,1.72,3.67,0,1.66-.49,3.14-1.48,4.44-.99,1.3-2.15,2.63-3.49,3.97-1.58,1.66-2.8,3.32-3.67,4.97-.87,1.66-1.3,3.99-1.3,6.99Z"/>
    <path class="cls-9" d="M556.95,540.39h9.47v-13.03h9.47v13.03h9.47v-22.5l-14.21-9.47-14.21,9.47v22.5ZM571.16,570.48c9.63-8.84,16.78-16.88,21.44-24.1,4.66-7.22,6.99-13.64,6.99-19.24,0-8.61-2.74-15.65-8.23-21.14-5.49-5.49-12.22-8.23-20.19-8.23s-14.7,2.74-20.19,8.23c-5.49,5.49-8.23,12.53-8.23,21.14,0,5.61,2.33,12.02,6.99,19.24,4.66,7.22,11.8,15.26,21.44,24.1ZM571.16,583.03c-12.71-10.82-22.21-20.86-28.48-30.14-6.28-9.28-9.42-17.86-9.42-25.76,0-11.84,3.81-21.28,11.43-28.3,7.62-7.03,16.44-10.54,26.47-10.54s18.85,3.51,26.47,10.54c7.62,7.03,11.43,16.46,11.43,28.3,0,7.9-3.14,16.48-9.42,25.76-6.28,9.28-15.77,19.32-28.48,30.14Z"/>
    <path class="cls-9" d="M920.39,534.7l9.62-9.73-6.26-6.37-4.92,4.92-6.26-6.26,4.81-4.92-5.03-5.03-9.73,9.73,17.78,17.67ZM957.07,571.5l9.73-9.73-5.03-5.03-4.92,4.81-6.26-6.26,4.81-4.92-6.37-6.26-9.62,9.62,17.67,17.78ZM959.76,508.08l6.37,6.37-6.37-6.37ZM913.45,579.66h-19.01v-19.01l19.57-19.57-24.05-24.05,22.37-22.37,24.16,24.16,16.89-17c.89-.89,1.9-1.57,3.02-2.01s2.27-.67,3.47-.67,2.35.22,3.47.67,2.12,1.12,3.02,2.01l5.93,6.04c.89.89,1.57,1.9,2.01,3.02s.67,2.27.67,3.47-.22,2.33-.67,3.41-1.12,2.07-2.01,2.96l-16.89,17,24.05,24.05-22.37,22.37-24.05-24.05-19.57,19.57ZM903.39,570.71h6.26l43.84-43.73-6.37-6.37-43.73,43.84v6.26ZM950.36,523.85l-3.24-3.24,6.37,6.37-3.13-3.13Z"/>
    <path class="cls-9" d="M1264.47,584.31c-2.57,0-4.76-.91-6.59-2.74-1.83-1.83-2.74-4.02-2.74-6.59v-18.67h9.33v18.67h18.67v9.33h-18.67ZM1329.8,584.31h-18.67v-9.33h18.67v-18.67h9.33v18.67c0,2.57-.91,4.76-2.74,6.59-1.83,1.83-4.02,2.74-6.59,2.74ZM1255.14,509.64c0-2.57.91-4.76,2.74-6.59,1.83-1.83,4.02-2.74,6.59-2.74h18.67v9.33h-18.67v18.67h-9.33v-18.67ZM1339.14,509.64v18.67h-9.33v-18.67h-18.67v-9.33h18.67c2.57,0,4.76.91,6.59,2.74s2.74,4.02,2.74,6.59ZM1297.14,570.31c1.63,0,3.01-.56,4.14-1.69,1.13-1.13,1.69-2.51,1.69-4.14s-.56-3.01-1.69-4.14c-1.13-1.13-2.51-1.69-4.14-1.69s-3.01.56-4.14,1.69c-1.13,1.13-1.69,2.51-1.69,4.14s.56,3.01,1.69,4.14c1.13,1.13,2.51,1.69,4.14,1.69ZM1292.94,552.46h8.52c0-2.64.31-4.67.93-6.07s1.98-3.15,4.08-5.25c2.72-2.72,4.53-4.92,5.42-6.59s1.34-3.67,1.34-6.01c0-4.2-1.52-7.62-4.55-10.27-3.03-2.64-6.88-3.97-11.55-3.97-3.89,0-7.23,1.01-10.03,3.03s-4.82,4.9-6.07,8.63l7.7,3.15c.54-2.02,1.57-3.67,3.09-4.96s3.29-1.92,5.31-1.92c2.26,0,4.06.6,5.42,1.81,1.36,1.21,2.04,2.82,2.04,4.84,0,1.56-.37,3.01-1.11,4.37s-2,2.78-3.79,4.26c-2.57,2.26-4.34,4.43-5.31,6.53s-1.46,4.9-1.46,8.4Z"/>
  </g>
</svg>