<?xml version="1.0" encoding="UTF-8"?>
<svg id="Lager_2" data-name="Lager 2" xmlns="http://www.w3.org/2000/svg" viewBox="0 0 355.06 222.26">
  <defs>
    <style>
      .cls-1 {
        fill: #b5b04d;
      }

      .cls-1, .cls-2 {
        stroke-width: 0px;
      }

      .cls-2 {
        fill: #fff;
      }
    </style>
  </defs>
  <g id="Lager_1-2" data-name="Lager 1">
    <path class="cls-1" d="M355.06,0H0v222.13c.43,0,.85,0,1.26,0l353.8.12V0Z"/>
    <g>
      <path class="cls-2" d="M62.28,182.2v-3.04h2.56l6.65-17.27h-2.8v-3.05h13.42v3.05h-2.81l6.65,17.27h2.56v3.04h-9.54v-3.04h2.72l-2.48-6.77,1.32,1.12h-10.22l1.12-1.12-2.44,6.77h2.72v3.04h-9.46ZM71.7,171.7l-.68-1.04h8.62l-.6,1.04-3.61-9.78h-.12l-3.61,9.78Z"/>
      <path class="cls-2" d="M89.45,182.2v-2.84h2.56v-10.3h-2.76v-2.81h2.76v-2.16c0-1.12.24-2.11.72-2.97.48-.85,1.13-1.52,1.94-1.98.81-.47,1.77-.7,2.87-.7,1.26,0,2.28.27,3.07.8s1.34,1.24,1.66,2.12l-2.28,1.8c-.19-.53-.45-.95-.78-1.24-.33-.29-.78-.44-1.34-.44-.67,0-1.18.2-1.54.6-.36.4-.54.99-.54,1.76v2.4h4.05v2.81h-4.05v10.3h3.65v2.84h-9.98Z"/>
      <path class="cls-2" d="M101.52,182.2v-2.84h2.56v-10.3h-2.76v-2.81h2.76v-2.16c0-1.12.24-2.11.72-2.97.48-.85,1.13-1.52,1.94-1.98.81-.47,1.77-.7,2.87-.7,1.26,0,2.28.27,3.07.8s1.34,1.24,1.66,2.12l-2.28,1.8c-.19-.53-.45-.95-.78-1.24-.33-.29-.78-.44-1.34-.44-.67,0-1.18.2-1.54.6-.36.4-.54.99-.54,1.76v2.4h4.05v2.81h-4.05v10.3h3.65v2.84h-9.98Z"/>
      <path class="cls-2" d="M120.27,182.6c-1.92,0-3.39-.44-4.41-1.32-1.02-.88-1.52-2.04-1.52-3.49,0-1.52.55-2.71,1.66-3.55,1.11-.84,2.73-1.26,4.87-1.26.72,0,1.53.07,2.42.2.89.13,1.73.31,2.5.52l-.64.44v-1.92c0-1.01-.33-1.8-1-2.34s-1.67-.82-3.01-.82c-.91,0-1.8.12-2.68.36s-1.72.59-2.52,1.04l-.92-2.97c1.01-.56,2.11-.97,3.29-1.24,1.17-.27,2.24-.4,3.21-.4,2.4,0,4.23.54,5.49,1.62,1.25,1.08,1.88,2.68,1.88,4.79v7.09h2.36v2.84h-5.81v-2.56l.52.44c-.7.8-1.56,1.42-2.61,1.86-1.04.44-2.07.66-3.08.66ZM118.79,163.49c-.53,0-1-.16-1.38-.48-.39-.32-.58-.77-.58-1.36s.19-1.08.58-1.4c.39-.32.85-.48,1.38-.48s.99.16,1.36.48c.37.32.56.79.56,1.4s-.19,1.04-.56,1.36c-.38.32-.83.48-1.36.48ZM121.11,179.72c.8,0,1.62-.16,2.46-.48.84-.32,1.49-.73,1.94-1.24l-.36,1.12v-3.89l.64,1.04c-.75-.21-1.48-.37-2.2-.46-.72-.09-1.42-.14-2.08-.14-1.12,0-1.99.17-2.61.52-.61.35-.92.87-.92,1.56,0,.64.27,1.13.8,1.46s1.31.5,2.32.5ZM125.16,163.49c-.54,0-1-.15-1.38-.46-.39-.31-.58-.77-.58-1.38s.19-1.08.58-1.4c.39-.32.85-.48,1.38-.48.51,0,.96.16,1.34.48.39.32.58.8.58,1.44,0,.59-.19,1.04-.58,1.34-.39.31-.84.46-1.34.46Z"/>
      <path class="cls-2" d="M132.73,182.2v-2.84h2.56v-10.3h-2.76v-2.81h6.29v4.45l-.4-.36c.64-1.5,1.4-2.62,2.26-3.37s1.82-1.12,2.87-1.12c.91,0,1.76.24,2.57.72l-1.24,3.73c-.38-.32-.75-.55-1.12-.7-.38-.15-.74-.22-1.08-.22-.78,0-1.48.26-2.1.78s-1.13,1.24-1.5,2.14v7.05h2.97v2.84h-9.3Z"/>
      <path class="cls-2" d="M156.34,182.6c-1.87,0-3.31-.31-4.31-.94-1-.63-1.69-1.5-2.06-2.62l.92-.28v3.45h-2.68v-5.49h2.4c.13.75.44,1.38.92,1.9.48.52,1.08.92,1.8,1.18.72.27,1.5.4,2.32.4,1.12,0,1.95-.19,2.49-.56.53-.37.8-.85.8-1.44,0-.43-.17-.79-.5-1.1-.33-.31-1.01-.59-2.02-.86l-3.73-.92c-1.39-.37-2.48-.92-3.29-1.64-.8-.72-1.2-1.68-1.2-2.89,0-1.04.26-1.94.78-2.68.52-.75,1.26-1.32,2.22-1.7.96-.39,2.07-.58,3.33-.58,1.47,0,2.64.28,3.51.84.87.56,1.46,1.35,1.78,2.37l-.88.04v-2.81h2.73v5.09h-2.44c-.05-.75-.28-1.35-.68-1.8s-.9-.79-1.48-1c-.59-.21-1.22-.32-1.88-.32-1.1,0-1.92.19-2.46.56-.55.38-.82.86-.82,1.44,0,.51.19.89.56,1.16.37.27,1,.52,1.88.76l3.73.88c1.47.35,2.6.88,3.39,1.6.79.72,1.18,1.76,1.18,3.12,0,.99-.26,1.84-.78,2.57-.52.72-1.25,1.28-2.18,1.68-.94.4-2.04.6-3.33.6Z"/>
      <path class="cls-2" d="M174.85,182.6c-2.06,0-3.79-.38-5.19-1.12-1.4-.75-2.45-1.76-3.15-3.03-.7-1.27-1.04-2.69-1.04-4.27s.34-2.95,1.02-4.21c.68-1.25,1.66-2.26,2.95-3s2.78-1.12,4.49-1.12,3.27.37,4.53,1.12c1.25.75,2.22,1.75,2.88,3,.67,1.26,1,2.67,1,4.25v1.52h-14.79v-2.93h11.22c0-.67-.19-1.32-.58-1.94-.39-.63-.94-1.16-1.64-1.58-.71-.43-1.58-.64-2.62-.64s-1.92.22-2.65.66c-.72.44-1.28,1.01-1.66,1.7-.39.7-.58,1.42-.58,2.16v1c0,1.63.49,2.92,1.48,3.87.99.95,2.47,1.42,4.45,1.42,1.12,0,2.18-.19,3.19-.56,1-.37,1.84-.85,2.5-1.44l1.56,2.64c-.86.78-1.93,1.38-3.23,1.82-1.3.44-2.68.66-4.15.66Z"/>
      <path class="cls-2" d="M184.63,182.2v-2.84h2.56v-10.3h-2.76v-2.81h6.29v2.4l-.52.12c1.01-1.01,2.12-1.76,3.31-2.22,1.19-.47,2.36-.7,3.51-.7,1.71,0,3.04.44,3.99,1.32.95.88,1.42,2.27,1.42,4.17v8.01h2.36v2.84h-8.7v-2.84h2.56v-7.13c0-1.09-.25-1.9-.74-2.4-.49-.51-1.29-.76-2.38-.76-.8,0-1.62.15-2.44.46-.83.31-1.7.85-2.6,1.62l.48-1.24v9.46h2.41v2.84h-8.74Z"/>
      <path class="cls-2" d="M205.99,182.2v-2.84h2.61v-17.67h-2.77v-2.85h6.53v9.82l-.76.12c1.02-1.01,2.11-1.76,3.29-2.22,1.18-.47,2.35-.7,3.53-.7,1.71,0,3.04.44,3.99,1.32.95.88,1.42,2.27,1.42,4.17v8.01h2.36v2.84h-8.74v-2.84h2.6v-7.13c0-1.09-.25-1.9-.74-2.4-.5-.51-1.29-.76-2.38-.76-.8,0-1.62.15-2.46.46-.84.31-1.72.85-2.62,1.62l.52-1.24v9.46h2.36v2.84h-8.74Z"/>
      <path class="cls-2" d="M237.65,182.6c-2.06,0-3.79-.38-5.19-1.12-1.4-.75-2.45-1.76-3.15-3.03-.7-1.27-1.04-2.69-1.04-4.27s.34-2.95,1.02-4.21c.68-1.25,1.66-2.26,2.95-3s2.78-1.12,4.49-1.12,3.27.37,4.53,1.12c1.25.75,2.22,1.75,2.88,3,.67,1.26,1,2.67,1,4.25v1.52h-14.79v-2.93h11.22c0-.67-.19-1.32-.58-1.94-.39-.63-.94-1.16-1.64-1.58-.71-.43-1.58-.64-2.62-.64s-1.92.22-2.65.66c-.72.44-1.28,1.01-1.66,1.7-.39.7-.58,1.42-.58,2.16v1c0,1.63.49,2.92,1.48,3.87.99.95,2.47,1.42,4.45,1.42,1.12,0,2.18-.19,3.19-.56,1-.37,1.84-.85,2.5-1.44l1.56,2.64c-.86.78-1.93,1.38-3.23,1.82-1.3.44-2.68.66-4.15.66Z"/>
      <path class="cls-2" d="M255.36,182.6c-1.68,0-3.07-.46-4.15-1.38s-1.62-2.41-1.62-4.47v-7.69h-2.77v-2.81h2.77v-5.29l3.77-.68v5.97h4.41v2.81h-4.41v7.17c0,1.2.26,2.03.78,2.48.52.46,1.24.68,2.14.68.35,0,.69-.05,1.04-.14.35-.09.65-.19.92-.3l.48,2.81c-.4.24-.9.44-1.5.6-.6.16-1.22.24-1.86.24Z"/>
      <path class="cls-2" d="M269.86,182.6c-2.06,0-3.79-.38-5.19-1.12-1.4-.75-2.45-1.76-3.15-3.03-.7-1.27-1.04-2.69-1.04-4.27s.34-2.95,1.02-4.21c.68-1.25,1.66-2.26,2.95-3s2.78-1.12,4.49-1.12,3.27.37,4.53,1.12c1.25.75,2.22,1.75,2.88,3,.67,1.26,1,2.67,1,4.25v1.52h-14.79v-2.93h11.22c0-.67-.19-1.32-.58-1.94-.39-.63-.94-1.16-1.64-1.58-.71-.43-1.58-.64-2.62-.64s-1.92.22-2.65.66c-.72.44-1.28,1.01-1.66,1.7-.39.7-.58,1.42-.58,2.16v1c0,1.63.49,2.92,1.48,3.87.99.95,2.47,1.42,4.45,1.42,1.12,0,2.18-.19,3.19-.56,1-.37,1.84-.85,2.5-1.44l1.56,2.64c-.86.78-1.93,1.38-3.23,1.82-1.3.44-2.68.66-4.15.66Z"/>
      <path class="cls-2" d="M279.64,182.2v-2.84h2.56v-10.3h-2.76v-2.81h6.29v4.45l-.4-.36c.64-1.5,1.4-2.62,2.26-3.37s1.82-1.12,2.87-1.12c.91,0,1.76.24,2.57.72l-1.24,3.73c-.38-.32-.75-.55-1.12-.7-.38-.15-.74-.22-1.08-.22-.78,0-1.48.26-2.1.78s-1.13,1.24-1.5,2.14v7.05h2.97v2.84h-9.3Z"/>
    </g>
    <path class="cls-2" d="M163.46,86.16h9.47v-13.03h9.47v13.03h9.47v-22.5l-14.21-9.47-14.21,9.47v22.5ZM177.67,116.24c9.63-8.84,16.78-16.88,21.44-24.1,4.66-7.22,6.99-13.64,6.99-19.24,0-8.61-2.74-15.65-8.23-21.14-5.49-5.49-12.22-8.23-20.19-8.23s-14.7,2.74-20.19,8.23c-5.49,5.49-8.23,12.53-8.23,21.14,0,5.61,2.33,12.02,6.99,19.24,4.66,7.22,11.8,15.26,21.44,24.1ZM177.67,128.8c-12.71-10.82-22.21-20.86-28.48-30.14-6.28-9.28-9.42-17.86-9.42-25.76,0-11.84,3.81-21.28,11.43-28.3,7.62-7.03,16.44-10.54,26.47-10.54s18.85,3.51,26.47,10.54c7.62,7.03,11.43,16.46,11.43,28.3,0,7.9-3.14,16.48-9.42,25.76-6.28,9.28-15.77,19.32-28.48,30.14Z"/>
  </g>
</svg>