<?xml version="1.0" encoding="UTF-8"?>
<svg id="Lager_2" data-name="Lager 2" xmlns="http://www.w3.org/2000/svg" viewBox="0 0 355.06 221.1">
  <defs>
    <style>
      .cls-1 {
        fill: #ed3b21;
      }

      .cls-1, .cls-2 {
        stroke-width: 0px;
      }

      .cls-2 {
        fill: #fff;
      }
    </style>
  </defs>
  <g id="Lager_1-2" data-name="Lager 1">
    <path class="cls-1" d="M0,221.1h355.06V0L1.26.12c-.41,0-.83,0-1.26,0v220.97Z"/>
    <g>
      <path class="cls-2" d="M61.48,191.19l-7.61-20.32h-2.6v-3.05h9.78v3.05h-2.81l6.17,16.71h-.8l6.17-16.71h-2.81v-3.05h9.5v3.05h-2.57l-7.65,20.32h-4.77Z"/>
      <path class="cls-2" d="M87.41,191.59c-2.06,0-3.79-.38-5.19-1.12-1.4-.75-2.45-1.76-3.15-3.03-.7-1.27-1.04-2.69-1.04-4.27s.34-2.95,1.02-4.21c.68-1.25,1.66-2.26,2.95-3s2.78-1.12,4.49-1.12,3.27.37,4.53,1.12c1.25.75,2.22,1.75,2.88,3,.67,1.26,1,2.67,1,4.25v1.52h-14.79v-2.93h11.22c0-.67-.19-1.32-.58-1.94-.39-.63-.94-1.16-1.64-1.58-.71-.43-1.58-.64-2.62-.64s-1.92.22-2.65.66c-.72.44-1.28,1.01-1.66,1.7-.39.7-.58,1.42-.58,2.16v1c0,1.63.49,2.92,1.48,3.87.99.95,2.47,1.42,4.45,1.42,1.12,0,2.18-.19,3.19-.56,1-.37,1.84-.85,2.5-1.44l1.56,2.64c-.86.78-1.93,1.38-3.23,1.82-1.3.44-2.68.66-4.15.66Z"/>
      <path class="cls-2" d="M97.19,191.19v-2.84h2.56v-10.3h-2.76v-2.81h6.29v2.4l-.52.12c1.01-1.01,2.1-1.76,3.25-2.22,1.15-.47,2.28-.7,3.41-.7,1.44,0,2.55.28,3.33.84.77.56,1.33,1.31,1.68,2.24l-.52-.2c1.01-1.01,2.09-1.75,3.23-2.2,1.13-.45,2.28-.68,3.43-.68,1.68,0,2.99.44,3.93,1.32.93.88,1.4,2.27,1.4,4.17v8.01h2.36v2.84h-8.62v-2.84h2.48v-7.13c0-1.09-.23-1.9-.7-2.4-.47-.51-1.24-.76-2.3-.76-.78,0-1.58.15-2.4.46-.83.31-1.67.85-2.52,1.62l.32-1.72c.08.32.13.67.16,1.06.03.39.04.68.04.86v8.01h2.28v2.84h-8.5v-2.84h2.48v-7.13c0-1.09-.23-1.9-.7-2.4-.47-.51-1.24-.76-2.3-.76-.77,0-1.58.15-2.4.46-.83.31-1.67.85-2.52,1.62l.48-1.08v9.3h2.28v2.84h-8.62Z"/>
      <path class="cls-2" d="M150.69,191.59c-1.87,0-3.31-.31-4.31-.94-1-.63-1.69-1.5-2.06-2.62l.92-.28v3.45h-2.68v-5.49h2.4c.13.75.44,1.38.92,1.9.48.52,1.08.92,1.8,1.18.72.27,1.5.4,2.32.4,1.12,0,1.95-.19,2.49-.56.53-.37.8-.85.8-1.44,0-.43-.17-.79-.5-1.1-.33-.31-1.01-.59-2.02-.86l-3.73-.92c-1.39-.37-2.48-.92-3.29-1.64-.8-.72-1.2-1.68-1.2-2.89,0-1.04.26-1.94.78-2.68.52-.75,1.26-1.32,2.22-1.7.96-.39,2.07-.58,3.33-.58,1.47,0,2.64.28,3.51.84.87.56,1.46,1.35,1.78,2.37l-.88.04v-2.81h2.73v5.09h-2.44c-.05-.75-.28-1.35-.68-1.8s-.9-.79-1.48-1c-.59-.21-1.22-.32-1.88-.32-1.1,0-1.92.19-2.46.56-.55.38-.82.86-.82,1.44,0,.51.19.89.56,1.16.37.27,1,.52,1.88.76l3.73.88c1.47.35,2.6.88,3.39,1.6.79.72,1.18,1.76,1.18,3.12,0,.99-.26,1.84-.78,2.57-.52.72-1.25,1.28-2.18,1.68-.94.4-2.04.6-3.33.6Z"/>
      <path class="cls-2" d="M168.44,191.59c-1.74,0-3.25-.38-4.55-1.12-1.3-.75-2.3-1.76-3-3.03-.71-1.27-1.06-2.69-1.06-4.27s.35-2.99,1.06-4.25c.71-1.25,1.71-2.25,3-2.99,1.3-.73,2.81-1.1,4.55-1.1s3.21.37,4.51,1.1c1.3.74,2.3,1.73,3.03,2.99.72,1.26,1.08,2.67,1.08,4.25s-.36,3-1.08,4.27c-.72,1.27-1.73,2.28-3.03,3.03-1.3.75-2.8,1.12-4.51,1.12ZM165.27,172.48c-.53,0-1-.16-1.38-.48-.39-.32-.58-.77-.58-1.36s.19-1.08.58-1.4c.39-.32.85-.48,1.38-.48s.99.16,1.36.48c.37.32.56.79.56,1.4s-.19,1.04-.56,1.36-.83.48-1.36.48ZM168.44,188.5c1.47,0,2.67-.49,3.59-1.48.92-.99,1.38-2.27,1.38-3.85s-.46-2.81-1.38-3.79c-.92-.97-2.12-1.46-3.59-1.46s-2.74.49-3.65,1.46c-.91.98-1.36,2.24-1.36,3.79s.45,2.86,1.36,3.85c.91.99,2.12,1.48,3.65,1.48ZM171.64,172.48c-.54,0-1-.15-1.38-.46-.39-.31-.58-.77-.58-1.38s.19-1.08.58-1.4c.39-.32.85-.48,1.38-.48.51,0,.96.16,1.34.48.39.32.58.8.58,1.44,0,.59-.19,1.04-.58,1.34-.39.31-.83.46-1.34.46Z"/>
      <path class="cls-2" d="M185.39,188.34h2.08v2.84h-8.46v-2.84h2.61v-17.67h-2.77v-2.85h6.53v15.03l6.45-4.81h-2.44v-2.81h8.13v2.81h-2.24l-7.41,5.41,1.2-1.72,6.45,6.61h2.85v2.84h-5.37l-7.61-8.01v5.17Z"/>
      <path class="cls-2" d="M209.35,191.59c-2.06,0-3.79-.38-5.19-1.12-1.4-.75-2.45-1.76-3.15-3.03-.7-1.27-1.04-2.69-1.04-4.27s.34-2.95,1.02-4.21c.68-1.25,1.66-2.26,2.95-3s2.78-1.12,4.49-1.12,3.27.37,4.53,1.12c1.25.75,2.22,1.75,2.88,3,.67,1.26,1,2.67,1,4.25v1.52h-14.79v-2.93h11.22c0-.67-.19-1.32-.58-1.94-.39-.63-.94-1.16-1.64-1.58-.71-.43-1.58-.64-2.62-.64s-1.92.22-2.65.66c-.72.44-1.28,1.01-1.66,1.7-.39.7-.58,1.42-.58,2.16v1c0,1.63.49,2.92,1.48,3.87.99.95,2.47,1.42,4.45,1.42,1.12,0,2.18-.19,3.19-.56,1-.37,1.84-.85,2.5-1.44l1.56,2.64c-.86.78-1.93,1.38-3.23,1.82-1.3.44-2.68.66-4.15.66Z"/>
      <path class="cls-2" d="M219.13,191.19v-2.84h2.56v-10.3h-2.76v-2.81h6.29v4.45l-.4-.36c.64-1.5,1.4-2.62,2.26-3.37s1.82-1.12,2.87-1.12c.91,0,1.76.24,2.57.72l-1.24,3.73c-.38-.32-.75-.55-1.12-.7-.38-.15-.74-.22-1.08-.22-.78,0-1.48.26-2.1.78s-1.13,1.24-1.5,2.14v7.05h2.97v2.84h-9.3Z"/>
      <path class="cls-2" d="M253.43,191.59c-1.68,0-3.09-.4-4.23-1.2-1.14-.8-1.99-1.84-2.56-3.13-.58-1.28-.86-2.65-.86-4.09s.29-2.79.86-4.05c.57-1.26,1.43-2.29,2.56-3.09,1.13-.8,2.54-1.2,4.23-1.2,1.15,0,2.24.26,3.29.78,1.04.52,1.84,1.29,2.4,2.3l-.56-.04v-7.21h-2.77v-2.85h6.53v20.52h2.44v2.84h-5.97v-2.88l.32.2c-.56.99-1.36,1.75-2.4,2.28s-2.14.8-3.29.8ZM254.16,188.42c.85,0,1.69-.17,2.5-.52.82-.35,1.52-.91,2.1-1.68l-.2,1.56v-9.02l.2,1.44c-.59-.8-1.29-1.37-2.1-1.7-.81-.33-1.65-.5-2.5-.5-1.34,0-2.46.45-3.39,1.34-.92.9-1.38,2.17-1.38,3.83s.46,2.98,1.38,3.89,2.05,1.36,3.39,1.36Z"/>
      <path class="cls-2" d="M273.95,191.59c-1.58,0-2.88-.45-3.91-1.34-1.03-.89-1.54-2.28-1.54-4.15v-8.05h-2.77v-2.81h6.53v9.98c0,1.1.25,1.9.74,2.4.49.51,1.29.76,2.38.76.8,0,1.63-.17,2.48-.5.85-.33,1.72-.89,2.6-1.66l-.8,1.24v-9.42h-2.57v-2.81h6.33v13.1h2.36v2.84h-5.81v-2.4l.76-.12c-1.02.99-2.11,1.72-3.29,2.2-1.18.48-2.35.72-3.53.72Z"/>
      <path class="cls-2" d="M294.23,184.9v-1.68c0-.88.15-1.62.44-2.22.29-.6.67-1.17,1.12-1.7l1.68-1.8c.51-.56.89-1.13,1.14-1.7.25-.57.38-1.21.38-1.9,0-.93-.27-1.72-.82-2.34-.55-.63-1.44-.94-2.67-.94s-2.2.35-2.83,1.06c-.63.71-.94,1.65-.94,2.83,0,.32.02.66.06,1,.04.35.1.72.18,1.12h-3.29c-.11-.4-.19-.82-.24-1.26-.05-.44-.08-.9-.08-1.38,0-2.03.66-3.63,1.98-4.79,1.32-1.16,3.09-1.74,5.31-1.74s3.87.55,5.11,1.66c1.24,1.11,1.86,2.6,1.86,4.47,0,1.12-.2,2.12-.6,2.99-.4.87-1.03,1.72-1.88,2.54l-2.48,2.24c-.46.43-.82.89-1.1,1.38-.28.5-.42,1.06-.42,1.7v.48h-1.92ZM293.35,191.19v-3.53h3.73v3.53h-3.73Z"/>
    </g>
    <path class="cls-2" d="M167.02,89.38c-5.21,0-9.67-1.86-13.38-5.57-3.71-3.71-5.57-8.17-5.57-13.38s1.86-9.67,5.57-13.38c3.71-3.71,8.17-5.57,13.38-5.57s9.67,1.86,13.38,5.57c3.71,3.71,5.57,8.17,5.57,13.38s-1.86,9.67-5.57,13.38c-3.71,3.71-8.17,5.57-13.38,5.57ZM167.02,79.91c2.61,0,4.84-.93,6.69-2.78,1.86-1.86,2.78-4.09,2.78-6.69s-.93-4.84-2.78-6.69c-1.86-1.86-4.09-2.78-6.69-2.78s-4.84.93-6.69,2.78-2.78,4.09-2.78,6.69.93,4.84,2.78,6.69,4.09,2.78,6.69,2.78ZM219.6,143.86l-15.16-15.16c-1.66.95-3.43,1.74-5.33,2.37-1.89.63-3.91.95-6.04.95-5.92,0-10.95-2.07-15.1-6.22-4.14-4.14-6.22-9.18-6.22-15.1s2.07-10.95,6.22-15.1c4.14-4.14,9.18-6.22,15.1-6.22s10.95,2.07,15.1,6.22c4.14,4.14,6.22,9.18,6.22,15.1,0,2.13-.32,4.14-.95,6.04s-1.42,3.67-2.37,5.33l15.16,15.16-6.63,6.63ZM193.07,122.54c3.32,0,6.12-1.14,8.41-3.43s3.43-5.09,3.43-8.41-1.14-6.12-3.43-8.41-5.09-3.43-8.41-3.43-6.12,1.14-8.41,3.43-3.43,5.09-3.43,8.41,1.14,6.12,3.43,8.41,5.09,3.43,8.41,3.43ZM129.12,127.28v-13.15c0-2.68.67-5.17,2.01-7.46,1.34-2.29,3.2-4.03,5.57-5.21,4.03-2.05,8.57-3.79,13.62-5.21,5.05-1.42,10.66-2.13,16.82-2.13-.95,1.42-1.76,2.94-2.43,4.56-.67,1.62-1.2,3.3-1.6,5.03-4.74.39-8.96,1.2-12.67,2.43-3.71,1.22-6.83,2.51-9.36,3.85-.79.39-1.4.97-1.84,1.72-.43.75-.65,1.56-.65,2.43v3.67h24.51c.39,1.74.93,3.39,1.6,4.97.67,1.58,1.48,3.08,2.43,4.5h-38.02Z"/>
  </g>
</svg>