<?xml version="1.0" encoding="UTF-8"?>
<svg id="Lager_2" data-name="Lager 2" xmlns="http://www.w3.org/2000/svg" viewBox="0 0 355.06 221.22">
  <defs>
    <style>
      .cls-1 {
        fill: #ffaa01;
      }

      .cls-1, .cls-2 {
        stroke-width: 0px;
      }

      .cls-2 {
        fill: #fff;
      }
    </style>
  </defs>
  <g id="Lager_1-2" data-name="Lager 1">
    <polygon class="cls-1" points="0 .12 0 221.22 355.06 221.22 355.06 0 0 .12"/>
    <g>
      <path class="cls-2" d="M27.3,191.31v-3.04h2.77v-17.27h-2.77v-3.05h9.74v3.05h-2.77v6.97h11.42v-6.97h-2.81v-3.05h9.78v3.05h-2.77v17.27h2.77v3.04h-9.78v-3.04h2.81v-7.37h-11.42v7.37h2.77v3.04h-9.74Z"/>
      <path class="cls-2" d="M54.95,191.31v-2.84h2.56v-10.3h-2.76v-2.81h6.53v13.1h2.36v2.84h-8.7ZM59.4,172.68c-.78,0-1.38-.23-1.8-.68-.43-.45-.64-1.01-.64-1.68,0-.72.21-1.32.64-1.78.43-.47,1.03-.7,1.8-.7s1.33.23,1.76.7c.43.47.64,1.06.64,1.78,0,.67-.21,1.23-.64,1.68-.43.46-1.02.68-1.76.68Z"/>
      <path class="cls-2" d="M73.42,191.72c-1.68,0-3.07-.46-4.15-1.38s-1.62-2.41-1.62-4.47v-7.69h-2.77v-2.81h2.77v-5.29l3.77-.68v5.97h4.41v2.81h-4.41v7.17c0,1.2.26,2.03.78,2.48.52.46,1.24.68,2.14.68.35,0,.69-.05,1.04-.14.35-.09.65-.19.92-.3l.48,2.81c-.4.24-.9.44-1.5.6-.6.16-1.22.24-1.86.24Z"/>
      <path class="cls-2" d="M85.88,191.72c-1.68,0-3.07-.46-4.15-1.38s-1.62-2.41-1.62-4.47v-7.69h-2.77v-2.81h2.77v-5.29l3.77-.68v5.97h4.41v2.81h-4.41v7.17c0,1.2.26,2.03.78,2.48.52.46,1.24.68,2.14.68.35,0,.69-.05,1.04-.14.35-.09.65-.19.92-.3l.48,2.81c-.4.24-.9.44-1.5.6-.6.16-1.22.24-1.86.24Z"/>
      <path class="cls-2" d="M97.1,191.72c-1.92,0-3.39-.44-4.41-1.32-1.02-.88-1.52-2.04-1.52-3.49,0-1.52.55-2.71,1.66-3.55,1.11-.84,2.73-1.26,4.87-1.26.72,0,1.53.07,2.42.2.89.13,1.73.31,2.5.52l-.64.44v-1.92c0-1.01-.33-1.8-1-2.34s-1.67-.82-3.01-.82c-.91,0-1.8.12-2.68.36s-1.72.59-2.52,1.04l-.92-2.97c1.01-.56,2.11-.97,3.29-1.24,1.17-.27,2.24-.4,3.21-.4,2.4,0,4.23.54,5.49,1.62,1.25,1.08,1.88,2.68,1.88,4.79v7.09h2.36v2.84h-5.81v-2.56l.52.44c-.7.8-1.56,1.42-2.61,1.86-1.04.44-2.07.66-3.08.66ZM97.94,188.83c.8,0,1.62-.16,2.46-.48.84-.32,1.49-.73,1.94-1.24l-.36,1.12v-3.89l.64,1.04c-.75-.21-1.48-.37-2.2-.46-.72-.09-1.42-.14-2.08-.14-1.12,0-1.99.17-2.61.52-.61.35-.92.87-.92,1.56,0,.64.27,1.13.8,1.46s1.31.5,2.32.5Z"/>
      <path class="cls-2" d="M120.83,175.36h6.25v2.64l-.28.04c.56-1.01,1.36-1.78,2.4-2.3,1.04-.52,2.14-.78,3.29-.78,1.71,0,3.13.4,4.25,1.2,1.12.8,1.97,1.83,2.54,3.09s.86,2.6.86,4.05-.29,2.81-.86,4.09-1.42,2.32-2.54,3.13c-1.12.8-2.54,1.2-4.25,1.2-1.15,0-2.24-.27-3.29-.8s-1.84-1.3-2.4-2.28l.56.04v6.65h2.36v2.84h-8.74v-2.84h2.61v-17.15h-2.77v-2.81ZM131.77,188.55c1.34,0,2.46-.45,3.39-1.36.92-.91,1.38-2.2,1.38-3.89s-.46-2.93-1.38-3.83c-.92-.89-2.05-1.34-3.39-1.34-.86,0-1.68.17-2.48.5-.8.33-1.51.9-2.12,1.7l.2-1.44v9.02l-.2-1.56c.61.78,1.32,1.34,2.12,1.68.8.35,1.63.52,2.48.52Z"/>
      <path class="cls-2" d="M149.12,191.72c-1.92,0-3.39-.44-4.41-1.32-1.02-.88-1.52-2.04-1.52-3.49,0-1.52.55-2.71,1.66-3.55,1.11-.84,2.73-1.26,4.87-1.26.72,0,1.53.07,2.42.2.89.13,1.73.31,2.5.52l-.64.44v-1.92c0-1.01-.33-1.8-1-2.34s-1.67-.82-3.01-.82c-.91,0-1.8.12-2.68.36s-1.72.59-2.52,1.04l-.92-2.97c1.01-.56,2.11-.97,3.29-1.24,1.17-.27,2.24-.4,3.21-.4,2.4,0,4.23.54,5.49,1.62,1.25,1.08,1.88,2.68,1.88,4.79v7.09h2.36v2.84h-5.81v-2.56l.52.44c-.7.8-1.56,1.42-2.61,1.86-1.04.44-2.07.66-3.08.66ZM149.96,188.83c.8,0,1.62-.16,2.46-.48.84-.32,1.49-.73,1.94-1.24l-.36,1.12v-3.89l.64,1.04c-.75-.21-1.48-.37-2.2-.46-.72-.09-1.42-.14-2.08-.14-1.12,0-1.99.17-2.61.52-.61.35-.92.87-.92,1.56,0,.64.27,1.13.8,1.46s1.31.5,2.32.5ZM150.8,172.6c-.99,0-1.82-.33-2.5-.98-.68-.65-1.02-1.46-1.02-2.42s.34-1.82,1.02-2.49c.68-.67,1.52-1,2.5-1s1.82.33,2.5.98c.68.66,1.02,1.49,1.02,2.5,0,.96-.34,1.77-1.02,2.42-.68.66-1.52.98-2.5.98ZM150.8,171.12c.56,0,1.02-.19,1.38-.56s.54-.83.54-1.36-.18-.99-.54-1.36c-.36-.37-.82-.56-1.38-.56s-1.02.19-1.38.56c-.36.38-.54.83-.54,1.36s.18.99.54,1.36c.36.37.82.56,1.38.56Z"/>
      <path class="cls-2" d="M179.37,188.47h2.08v2.84h-8.46v-2.84h2.61v-17.67h-2.77v-2.85h6.53v15.03l6.45-4.81h-2.44v-2.81h8.13v2.81h-2.24l-7.41,5.41,1.2-1.72,6.45,6.61h2.85v2.84h-5.37l-7.61-8.01v5.17Z"/>
      <path class="cls-2" d="M202.58,191.72c-1.74,0-3.25-.38-4.55-1.12-1.3-.75-2.3-1.76-3-3.03-.71-1.27-1.06-2.69-1.06-4.27s.35-2.99,1.06-4.25c.71-1.25,1.71-2.25,3-2.99,1.3-.73,2.81-1.1,4.55-1.1s3.21.37,4.51,1.1c1.3.74,2.3,1.73,3.03,2.99.72,1.26,1.08,2.67,1.08,4.25s-.36,3-1.08,4.27c-.72,1.27-1.73,2.28-3.03,3.03-1.3.75-2.8,1.12-4.51,1.12ZM202.58,188.63c1.47,0,2.67-.49,3.59-1.48.92-.99,1.38-2.27,1.38-3.85s-.46-2.81-1.38-3.79c-.92-.97-2.12-1.46-3.59-1.46s-2.74.49-3.65,1.46c-.91.98-1.36,2.24-1.36,3.79s.45,2.86,1.36,3.85c.91.99,2.12,1.48,3.65,1.48Z"/>
      <path class="cls-2" d="M213.44,191.31v-2.84h2.56v-10.3h-2.76v-2.81h6.29v2.4l-.52.12c1.01-1.01,2.12-1.76,3.31-2.22,1.19-.47,2.36-.7,3.51-.7,1.71,0,3.04.44,3.99,1.32.95.88,1.42,2.27,1.42,4.17v8.01h2.36v2.84h-8.7v-2.84h2.56v-7.13c0-1.09-.25-1.9-.74-2.4-.49-.51-1.29-.76-2.38-.76-.8,0-1.62.15-2.44.46-.83.31-1.7.85-2.6,1.62l.48-1.24v9.46h2.41v2.84h-8.74Z"/>
      <path class="cls-2" d="M243.01,191.72c-1.68,0-3.07-.46-4.15-1.38s-1.62-2.41-1.62-4.47v-7.69h-2.77v-2.81h2.77v-5.29l3.77-.68v5.97h4.41v2.81h-4.41v7.17c0,1.2.26,2.03.78,2.48.52.46,1.24.68,2.14.68.35,0,.69-.05,1.04-.14.35-.09.65-.19.92-.3l.48,2.81c-.4.24-.9.44-1.5.6-.6.16-1.22.24-1.86.24Z"/>
      <path class="cls-2" d="M256.75,191.72c-1.74,0-3.25-.38-4.55-1.12-1.3-.75-2.3-1.76-3-3.03-.71-1.27-1.06-2.69-1.06-4.27s.35-2.99,1.06-4.25c.71-1.25,1.71-2.25,3-2.99,1.3-.73,2.81-1.1,4.55-1.1s3.21.37,4.51,1.1c1.3.74,2.3,1.73,3.03,2.99.72,1.26,1.08,2.67,1.08,4.25s-.36,3-1.08,4.27c-.72,1.27-1.73,2.28-3.03,3.03-1.3.75-2.8,1.12-4.51,1.12ZM256.75,188.63c1.47,0,2.67-.49,3.59-1.48.92-.99,1.38-2.27,1.38-3.85s-.46-2.81-1.38-3.79c-.92-.97-2.12-1.46-3.59-1.46s-2.74.49-3.65,1.46c-.91.98-1.36,2.24-1.36,3.79s.45,2.86,1.36,3.85c.91.99,2.12,1.48,3.65,1.48Z"/>
      <path class="cls-2" d="M267.62,191.31v-2.84h2.56v-10.3h-2.76v-2.81h6.29v4.45l-.4-.36c.64-1.5,1.4-2.62,2.26-3.37s1.82-1.12,2.87-1.12c.91,0,1.76.24,2.57.72l-1.24,3.73c-.38-.32-.75-.55-1.12-.7-.38-.15-.74-.22-1.08-.22-.78,0-1.48.26-2.1.78s-1.13,1.24-1.5,2.14v7.05h2.97v2.84h-9.3Z"/>
      <path class="cls-2" d="M291.94,191.72c-2.06,0-3.79-.38-5.19-1.12-1.4-.75-2.45-1.76-3.15-3.03-.7-1.27-1.04-2.69-1.04-4.27s.34-2.95,1.02-4.21c.68-1.25,1.66-2.26,2.95-3s2.78-1.12,4.49-1.12,3.27.37,4.53,1.12c1.25.75,2.22,1.75,2.88,3,.67,1.26,1,2.67,1,4.25v1.52h-14.79v-2.93h11.22c0-.67-.19-1.32-.58-1.94-.39-.63-.94-1.16-1.64-1.58-.71-.43-1.58-.64-2.62-.64s-1.92.22-2.65.66c-.72.44-1.28,1.01-1.66,1.7-.39.7-.58,1.42-.58,2.16v1c0,1.63.49,2.92,1.48,3.87.99.95,2.47,1.42,4.45,1.42,1.12,0,2.18-.19,3.19-.56,1-.37,1.84-.85,2.5-1.44l1.56,2.64c-.86.78-1.93,1.38-3.23,1.82-1.3.44-2.68.66-4.15.66Z"/>
      <path class="cls-2" d="M309.65,191.72c-1.68,0-3.07-.46-4.15-1.38s-1.62-2.41-1.62-4.47v-7.69h-2.77v-2.81h2.77v-5.29l3.77-.68v5.97h4.41v2.81h-4.41v7.17c0,1.2.26,2.03.78,2.48.52.46,1.24.68,2.14.68.35,0,.69-.05,1.04-.14.35-.09.65-.19.92-.3l.48,2.81c-.4.24-.9.44-1.5.6-.6.16-1.22.24-1.86.24Z"/>
      <path class="cls-2" d="M320.71,185.02v-1.68c0-.88.15-1.62.44-2.22.29-.6.67-1.17,1.12-1.7l1.68-1.8c.51-.56.89-1.13,1.14-1.7.25-.57.38-1.21.38-1.9,0-.93-.27-1.72-.82-2.34-.55-.63-1.44-.94-2.67-.94s-2.2.35-2.83,1.06c-.63.71-.94,1.65-.94,2.83,0,.32.02.66.06,1,.04.35.1.72.18,1.12h-3.29c-.11-.4-.19-.82-.24-1.26-.05-.44-.08-.9-.08-1.38,0-2.03.66-3.63,1.98-4.79,1.32-1.16,3.09-1.74,5.31-1.74s3.87.55,5.11,1.66c1.24,1.11,1.86,2.6,1.86,4.47,0,1.12-.2,2.12-.6,2.99-.4.87-1.03,1.72-1.88,2.54l-2.48,2.24c-.46.43-.82.89-1.1,1.38-.28.5-.42,1.06-.42,1.7v.48h-1.92ZM319.83,191.31v-3.53h3.73v3.53h-3.73Z"/>
    </g>
    <path class="cls-2" d="M159.32,108.92h9.47v-14.21h16.58v11.84l16.58-16.58-16.58-16.58v11.84h-21.32c-1.34,0-2.47.45-3.38,1.36s-1.36,2.03-1.36,3.38v18.95ZM178.27,142.08c-1.18,0-2.35-.24-3.49-.71s-2.19-1.18-3.14-2.13l-37.9-37.9c-.95-.95-1.66-1.99-2.13-3.14s-.71-2.31-.71-3.49.24-2.35.71-3.49c.47-1.14,1.18-2.19,2.13-3.14l37.9-37.9c.95-.95,1.99-1.66,3.14-2.13s2.31-.71,3.49-.71,2.35.24,3.49.71c1.14.47,2.19,1.18,3.14,2.13l37.9,37.9c.95.95,1.66,1.99,2.13,3.14.47,1.14.71,2.31.71,3.49s-.24,2.35-.71,3.49-1.18,2.19-2.13,3.14l-37.9,37.9c-.95.95-1.99,1.66-3.14,2.13-1.14.47-2.31.71-3.49.71ZM159.32,113.66l18.95,18.95,37.9-37.9-37.9-37.9-37.9,37.9,18.95,18.95Z"/>
  </g>
</svg>