<?xml version="1.0" encoding="UTF-8"?>
<svg id="Lager_2" data-name="Lager 2" xmlns="http://www.w3.org/2000/svg" xmlns:xlink="http://www.w3.org/1999/xlink" viewBox="0 0 386.78 675.57">
  <defs>
    <style>
      .cls-1 {
        fill: #15484e;
      }

      .cls-1, .cls-2 {
        stroke-width: 0px;
      }

      .cls-2 {
        fill: #fff;
      }
    </style>
  </defs>
  <g id="Lager_1-2" data-name="Lager 1">
    <path class="cls-1" d="M385.6,0c-12.58.78-29.81,4.42-48.7,21.48L7,321.8c-4.33,4.01-7,9.7-7,15.98s2.67,11.97,7,15.98l329.9,300.32c18.89,17.06,36.12,20.7,48.7,21.48V0Z"/>
    <image width="508" height="981" transform="translate(95.25 407.42) rotate(-90) scale(.3)" xlink:href="../../Prevas-handen-singel-robot-01.png"/>
    <g>
      <path class="cls-2" d="M240.34,229.26c-2.19,0-4.08-.39-5.65-1.18-1.58-.79-2.78-1.92-3.61-3.41s-1.24-3.28-1.24-5.39v-10.06h-2.52v-3.73h10.5v3.73h-2.48v10.02c0,1.28.21,2.34.64,3.19.43.84,1.04,1.46,1.84,1.86.8.4,1.76.6,2.89.6s2.09-.2,2.91-.6c.81-.4,1.44-1.02,1.86-1.86.43-.84.64-1.9.64-3.19v-10.02h-2.53v-3.73h9.74v3.73h-2.52v10.06c0,2.19-.42,4.03-1.24,5.51-.83,1.48-2.02,2.6-3.59,3.35-1.56.75-3.44,1.12-5.63,1.12Z"/>
      <path class="cls-2" d="M254.77,212.83h6.97v2.72l-.2-.08c.59-1.01,1.4-1.78,2.42-2.28,1.03-.51,2.09-.76,3.19-.76,1.63,0,2.99.39,4.09,1.16,1.09.77,1.93,1.8,2.5,3.07.57,1.27.86,2.65.86,4.15s-.29,2.93-.86,4.21c-.58,1.28-1.41,2.31-2.5,3.09-1.1.77-2.46,1.16-4.09,1.16-1.1,0-2.16-.25-3.19-.76s-1.84-1.27-2.42-2.28l.6-.08v6.13h2.08v3.45h-9.3v-3.45h2.37v-15.99h-2.53v-3.45ZM265.87,225.33c1.12,0,2.07-.39,2.85-1.18.77-.79,1.16-1.9,1.16-3.35s-.39-2.51-1.16-3.29c-.78-.77-1.72-1.16-2.85-1.16-.7,0-1.39.14-2.08.42s-1.32.78-1.88,1.5l.24-1.72v8.62l-.24-1.76c.56.7,1.19,1.19,1.88,1.48s1.39.44,2.08.44Z"/>
      <path class="cls-2" d="M276.16,212.83h6.97v2.72l-.2-.08c.59-1.01,1.4-1.78,2.42-2.28,1.03-.51,2.09-.76,3.19-.76,1.63,0,2.99.39,4.09,1.16,1.09.77,1.93,1.8,2.5,3.07.57,1.27.86,2.65.86,4.15s-.29,2.93-.86,4.21c-.58,1.28-1.41,2.31-2.5,3.09-1.1.77-2.46,1.16-4.09,1.16-1.1,0-2.16-.25-3.19-.76s-1.84-1.27-2.42-2.28l.6-.08v6.13h2.08v3.45h-9.3v-3.45h2.37v-15.99h-2.53v-3.45ZM287.27,225.33c1.12,0,2.07-.39,2.85-1.18.77-.79,1.16-1.9,1.16-3.35s-.39-2.51-1.16-3.29c-.78-.77-1.72-1.16-2.85-1.16-.7,0-1.39.14-2.08.42s-1.32.78-1.88,1.5l.24-1.72v8.62l-.24-1.76c.56.7,1.19,1.19,1.88,1.48s1.39.44,2.08.44Z"/>
      <path class="cls-2" d="M306.1,229.26c-1.87,0-3.37-.49-4.49-1.48-1.12-.99-1.68-2.56-1.68-4.73v-6.77h-2.52v-3.45h2.52v-5.21l4.81-.8v6.01h4.37v3.45h-4.33v6.13c0,1.12.23,1.88.7,2.28.47.4,1.13.6,1.98.6.37,0,.73-.05,1.06-.14.33-.09.63-.19.9-.3l.64,3.45c-.45.27-1.03.49-1.72.68-.7.19-1.44.28-2.24.28Z"/>
      <path class="cls-2" d="M317.6,229.26c-1.92,0-3.4-.45-4.43-1.36-1.03-.91-1.54-2.08-1.54-3.53s.55-2.67,1.64-3.53c1.09-.85,2.74-1.28,4.93-1.28.75,0,1.56.07,2.42.2.87.13,1.62.29,2.26.48l-.68.48v-1.56c0-.88-.31-1.56-.92-2.04-.62-.48-1.54-.72-2.77-.72-.91,0-1.8.12-2.67.36-.87.24-1.7.59-2.5,1.04l-1.16-3.61c1.09-.59,2.28-1.03,3.55-1.32s2.46-.44,3.59-.44c2.56,0,4.49.57,5.79,1.72,1.29,1.15,1.94,2.83,1.94,5.05v6.21h2.08v3.45h-6.53v-2.64l.72.56c-.75.75-1.62,1.35-2.61,1.8s-2.03.68-3.13.68ZM316.36,210.5c-.64,0-1.2-.2-1.68-.6-.48-.4-.72-.96-.72-1.68s.24-1.32.72-1.72c.48-.4,1.04-.6,1.68-.6s1.2.2,1.66.6c.47.4.7.98.7,1.72s-.23,1.28-.7,1.68c-.47.4-1.02.6-1.66.6ZM318.92,225.93c.72,0,1.43-.14,2.12-.42.7-.28,1.23-.63,1.6-1.06l-.44,1.28v-3.73l.68,1.12c-.59-.21-1.19-.36-1.8-.44-.62-.08-1.22-.12-1.8-.12-.94,0-1.66.15-2.16.44-.51.29-.76.72-.76,1.28s.23.94.68,1.22c.45.28,1.08.42,1.88.42ZM323.13,210.5c-.64,0-1.2-.19-1.68-.58-.48-.39-.72-.96-.72-1.7s.24-1.32.72-1.72c.48-.4,1.04-.6,1.68-.6s1.16.2,1.64.6c.48.4.72.98.72,1.72s-.24,1.32-.72,1.7c-.48.39-1.03.58-1.64.58Z"/>
      <path class="cls-2" d="M340.04,229.26c-1.84,0-3.45-.37-4.81-1.1s-2.41-1.75-3.15-3.05c-.74-1.29-1.1-2.76-1.1-4.39s.33-2.95.98-4.21c.65-1.25,1.58-2.25,2.79-2.99,1.2-.73,2.61-1.1,4.21-1.1.8,0,1.56.13,2.28.4.72.27,1.32.66,1.8,1.16.48.51.75,1.1.8,1.76l-.48.04v-2.97h3.41v6.09h-3.05c-.61-1.71-1.91-2.56-3.89-2.56-1.36,0-2.39.42-3.09,1.24-.7.83-1.04,1.9-1.04,3.21s.4,2.4,1.2,3.27c.8.87,1.99,1.3,3.57,1.3.85,0,1.7-.18,2.52-.54.83-.36,1.54-.82,2.12-1.38l2,3.25c-.83.8-1.89,1.43-3.19,1.88s-2.6.68-3.91.68Z"/>
      <path class="cls-2" d="M355.83,225.41h1.8v3.45h-9.02v-3.45h2.37v-16.47h-2.53v-3.45h7.37v15.03l5.89-4.25h-2.16v-3.45h8.46v3.45h-2.04l-6.93,4.89,1.52-2.04,5.77,6.29h2.61v3.45h-6.05l-7.05-7.89v4.45Z"/>
    </g>
    <g>
      <path class="cls-2" d="M216.86,456.85v-3.73h2.48v-15.91h-2.48v-3.73h9.5l5.85,13.34h-.68l5.85-13.34h9.74v3.73h-2.52v15.91h2.52v3.73h-9.74v-3.73h2.24v-13.42l-5.93,13.79h-3.69l-6.05-13.79v13.42h2.24v3.73h-9.34Z"/>
      <path class="cls-2" d="M258.49,457.26c-1.76,0-3.31-.37-4.63-1.1-1.32-.73-2.36-1.74-3.11-3.03s-1.12-2.71-1.12-4.29.37-3.07,1.12-4.33c.75-1.25,1.79-2.25,3.13-2.99,1.33-.73,2.88-1.1,4.65-1.1s3.31.37,4.65,1.1c1.34.74,2.37,1.73,3.11,2.99.73,1.26,1.1,2.7,1.1,4.33s-.37,3.01-1.1,4.29-1.77,2.29-3.11,3.03-2.9,1.1-4.69,1.1ZM258.53,453.41c1.26,0,2.26-.43,3.03-1.28.76-.85,1.14-1.96,1.14-3.33s-.38-2.42-1.14-3.27c-.76-.84-1.77-1.26-3.03-1.26s-2.3.42-3.05,1.26c-.75.84-1.12,1.93-1.12,3.27s.38,2.47,1.14,3.33c.76.86,1.77,1.28,3.03,1.28Z"/>
      <path class="cls-2" d="M269.43,456.85v-3.45h2.32v-9.14h-2.52v-3.45h6.97v2.52l-.52.08c1.02-1.04,2.12-1.8,3.31-2.28,1.19-.48,2.4-.72,3.63-.72,1.66,0,2.97.45,3.95,1.36s1.46,2.31,1.46,4.21v7.41h2.12v3.45h-9.26v-3.45h2.32v-6.17c0-1.02-.22-1.74-.66-2.18-.44-.44-1.13-.66-2.06-.66-.72,0-1.45.14-2.18.42-.74.28-1.46.75-2.18,1.42l.44-1.32v8.5h2.16v3.45h-9.3Z"/>
      <path class="cls-2" d="M299.65,457.26c-1.87,0-3.37-.49-4.49-1.48-1.12-.99-1.68-2.56-1.68-4.73v-6.77h-2.52v-3.45h2.52v-5.21l4.81-.8v6.01h4.37v3.45h-4.33v6.13c0,1.12.23,1.88.7,2.28.47.4,1.13.6,1.98.6.37,0,.73-.05,1.06-.14.33-.09.63-.19.9-.3l.64,3.45c-.45.27-1.03.49-1.72.68-.7.19-1.44.28-2.24.28Z"/>
      <path class="cls-2" d="M314.76,457.26c-2.06,0-3.81-.37-5.25-1.1s-2.53-1.74-3.27-3.03c-.74-1.28-1.1-2.72-1.1-4.33s.35-2.99,1.06-4.25c.71-1.25,1.71-2.26,3-3s2.83-1.12,4.59-1.12,3.24.37,4.51,1.12,2.25,1.75,2.95,3c.69,1.26,1.04,2.67,1.04,4.25v1.6h-14.55v-3.17h9.94c0-.56-.16-1.11-.48-1.64-.32-.53-.77-.97-1.34-1.32-.57-.35-1.29-.52-2.14-.52s-1.54.18-2.12.54c-.59.36-1.04.83-1.34,1.4-.31.57-.46,1.2-.46,1.86v1.24c0,1.42.43,2.53,1.3,3.35.87.81,2.18,1.22,3.95,1.22,1.04,0,2.03-.16,2.97-.48.93-.32,1.72-.76,2.36-1.32l1.84,3.29c-.86.72-1.94,1.3-3.27,1.74-1.32.44-2.72.66-4.19.66Z"/>
      <path class="cls-2" d="M324.29,456.85v-3.45h2.32v-9.14h-2.52v-3.45h6.97v4.81l-.36-.48c.69-1.63,1.5-2.83,2.42-3.59s1.9-1.14,2.95-1.14c.91,0,1.72.24,2.44.72l-1.56,4.57c-.37-.32-.74-.55-1.1-.7-.36-.15-.71-.22-1.06-.22-.72,0-1.37.24-1.94.72-.58.48-1.05,1.15-1.42,2v5.89h2.81v3.45h-9.94Z"/>
      <path class="cls-2" d="M339.36,456.85v-3.45h2.32v-9.14h-2.52v-3.45h6.97v2.52l-.52.08c1.02-1.04,2.12-1.8,3.31-2.28,1.19-.48,2.4-.72,3.63-.72,1.66,0,2.97.45,3.95,1.36s1.46,2.31,1.46,4.21v7.41h2.12v3.45h-9.26v-3.45h2.32v-6.17c0-1.02-.22-1.74-.66-2.18-.44-.44-1.13-.66-2.06-.66-.72,0-1.45.14-2.18.42-.74.28-1.46.75-2.18,1.42l.44-1.32v8.5h2.16v3.45h-9.3Z"/>
      <path class="cls-2" d="M363.81,450.2l-1.64-8.7v-8.02h5.49v8.02l-1.6,8.7h-2.24ZM362.72,456.85v-4.17h4.41v4.17h-4.41Z"/>
    </g>
  </g>
</svg>