<?xml version="1.0" encoding="UTF-8"?>
<svg id="Lager_2" data-name="Lager 2" xmlns="http://www.w3.org/2000/svg" viewBox="0 0 52.35 65.44">
  <defs>
    <style>
      .cls-1 {
        fill: #fff;
        stroke-width: 0px;
      }
    </style>
  </defs>
  <g id="Lager_1-2" data-name="Lager 1">
    <path class="cls-1" d="M16.36,35.99h6.54v-9h6.54v9h6.54v-15.54l-9.82-6.54-9.82,6.54v15.54ZM26.17,56.77c6.65-6.11,11.59-11.66,14.81-16.65s4.83-9.42,4.83-13.29c0-5.94-1.89-10.81-5.68-14.6-3.79-3.79-8.44-5.68-13.95-5.68s-10.16,1.89-13.95,5.68c-3.79,3.79-5.68,8.66-5.68,14.6,0,3.87,1.61,8.3,4.83,13.29,3.22,4.99,8.15,10.54,14.81,16.65ZM26.17,65.44c-8.78-7.47-15.34-14.41-19.67-20.82C2.17,38.21,0,32.28,0,26.83,0,18.65,2.63,12.13,7.89,7.28,13.16,2.43,19.25,0,26.17,0s13.02,2.43,18.28,7.28,7.89,11.37,7.89,19.55c0,5.45-2.17,11.38-6.5,17.79-4.34,6.41-10.89,13.35-19.67,20.82Z"/>
  </g>
</svg>