<?xml version="1.0" encoding="UTF-8"?>
<svg id="Lager_2" data-name="Lager 2" xmlns="http://www.w3.org/2000/svg" viewBox="0 0 44.43 60.3">
  <defs>
    <style>
      .cls-1 {
        fill: #FFFFFF;
        stroke-width: 0px;
      }
    </style>
  </defs>
  <g id="Lager_1-2" data-name="Lager 1">
    <path class="cls-1" d="M0,60.3v-6.35h15.87v-6.35c-4.39,0-8.13-1.55-11.23-4.64-3.09-3.09-4.64-6.84-4.64-11.23,0-3.23.89-6.16,2.66-8.81s4.17-4.58,7.18-5.79c.42-1.8,1.36-3.25,2.82-4.36s3.11-1.67,4.96-1.67l-1.75-4.92,3.01-1.11-1.11-2.86,6.03-2.22.95,3.01,3.01-1.11,8.73,23.8-3.01,1.11,1.11,3.01-6.03,2.22-.95-3.01-3.01,1.11-1.9-5.24c-.79.74-1.71,1.3-2.74,1.67s-2.08.5-3.13.4c-1.16-.11-2.25-.46-3.25-1.07s-1.88-1.36-2.62-2.26c-1.43.85-2.55,1.98-3.37,3.41-.82,1.43-1.23,2.99-1.23,4.68,0,2.64.93,4.89,2.78,6.74,1.85,1.85,4.1,2.78,6.74,2.78h25.39v6.35h-15.87v6.35h19.04v6.35H0ZM27.45,23.96l2.86-1.11-5.39-14.92-3.01,1.11,5.55,14.92ZM17.45,22.21c.9,0,1.65-.3,2.26-.91s.91-1.36.91-2.26-.3-1.65-.91-2.26-1.36-.91-2.26-.91-1.65.3-2.26.91-.91,1.36-.91,2.26.3,1.65.91,2.26,1.36.91,2.26.91Z"/>
  </g>
</svg>