<?xml version="1.0" encoding="UTF-8"?>
<svg id="Lager_2" data-name="Lager 2" xmlns="http://www.w3.org/2000/svg" viewBox="0 0 62.63 62.63">
  <defs>
    <style>
      .cls-1 {
        fill: #fff;
        stroke-width: 0px;
      }
    </style>
  </defs>
  <g id="Lager_1-2" data-name="Lager 1">
    <path class="cls-1" d="M21.29,28.03l6.73-6.81-4.38-4.46-3.44,3.44-4.38-4.38,3.37-3.44-3.52-3.52-6.81,6.81,12.45,12.37ZM46.97,53.78l6.81-6.81-3.52-3.52-3.44,3.37-4.38-4.38,3.37-3.44-4.46-4.38-6.73,6.73,12.37,12.45ZM48.85,9.39l4.46,4.46-4.46-4.46ZM16.44,59.5H3.13v-13.31l13.7-13.7L0,15.66,15.66,0l16.91,16.91,11.82-11.9c.63-.63,1.33-1.1,2.11-1.41.78-.31,1.59-.47,2.43-.47s1.64.16,2.43.47,1.49.78,2.11,1.41l4.15,4.23c.63.63,1.1,1.33,1.41,2.11s.47,1.59.47,2.43-.16,1.63-.47,2.39-.78,1.45-1.41,2.07l-11.82,11.9,16.83,16.83-15.66,15.66-16.83-16.83-13.7,13.7ZM9.39,53.24h4.38l30.69-30.61-4.46-4.46-30.61,30.69v4.38ZM42.28,20.43l-2.27-2.27,4.46,4.46-2.19-2.19Z"/>
  </g>
</svg>