<?xml version="1.0" encoding="UTF-8"?>
<svg id="Lager_2" data-name="Lager 2" xmlns="http://www.w3.org/2000/svg" viewBox="0 0 62.45 59.4">
  <defs>
    <style>
      .cls-1 {
        fill: #fff;
        stroke-width: 0px;
      }
    </style>
  </defs>
  <g id="Lager_1-2" data-name="Lager 1">
    <path class="cls-1" d="M24.37,24.37c-3.35,0-6.22-1.19-8.61-3.58-2.39-2.39-3.58-5.25-3.58-8.61s1.19-6.22,3.58-8.61c2.39-2.39,5.25-3.58,8.61-3.58s6.22,1.19,8.61,3.58,3.58,5.25,3.58,8.61-1.19,6.22-3.58,8.61c-2.39,2.39-5.25,3.58-8.61,3.58ZM24.37,18.28c1.68,0,3.11-.6,4.3-1.79,1.19-1.19,1.79-2.63,1.79-4.3s-.6-3.11-1.79-4.3c-1.19-1.19-2.63-1.79-4.3-1.79s-3.11.6-4.3,1.79-1.79,2.63-1.79,4.3.6,3.11,1.79,4.3,2.63,1.79,4.3,1.79ZM58.18,59.4l-9.75-9.75c-1.07.61-2.21,1.12-3.43,1.52-1.22.41-2.51.61-3.88.61-3.81,0-7.04-1.33-9.71-4s-4-5.9-4-9.71,1.33-7.04,4-9.71,5.9-4,9.71-4,7.04,1.33,9.71,4c2.67,2.67,4,5.9,4,9.71,0,1.37-.2,2.67-.61,3.88s-.91,2.36-1.52,3.43l9.75,9.75-4.26,4.26ZM41.12,45.69c2.13,0,3.93-.74,5.41-2.21s2.21-3.27,2.21-5.41-.74-3.93-2.21-5.41-3.27-2.21-5.41-2.21-3.93.74-5.41,2.21-2.21,3.27-2.21,5.41.74,3.93,2.21,5.41,3.27,2.21,5.41,2.21ZM0,48.74v-8.45c0-1.73.43-3.33,1.29-4.8.86-1.47,2.06-2.59,3.58-3.35,2.59-1.32,5.51-2.44,8.76-3.35s6.85-1.37,10.81-1.37c-.61.91-1.13,1.89-1.56,2.93s-.77,2.12-1.03,3.24c-3.05.25-5.76.77-8.15,1.56-2.39.79-4.39,1.61-6.02,2.47-.51.25-.9.62-1.18,1.1s-.42,1-.42,1.56v2.36h15.76c.25,1.12.6,2.18,1.03,3.2s.95,1.98,1.56,2.89H0Z"/>
  </g>
</svg>