<?xml version="1.0" encoding="UTF-8"?>
<svg id="Lager_2" data-name="Lager 2" xmlns="http://www.w3.org/2000/svg" viewBox="0 0 62.81 62.81">
  <defs>
    <style>
      .cls-1 {
        fill: #fff;
        stroke-width: 0px;
      }
    </style>
  </defs>
  <g id="Lager_1-2" data-name="Lager 1">
    <path class="cls-1" d="M18.84,40.83h6.28v-9.42h10.99v7.85l10.99-10.99-10.99-10.99v7.85h-14.13c-.89,0-1.64.3-2.24.9s-.9,1.35-.9,2.24v12.56ZM31.41,62.81c-.79,0-1.56-.16-2.32-.47s-1.45-.79-2.08-1.41L1.88,35.8c-.63-.63-1.1-1.32-1.41-2.08s-.47-1.53-.47-2.32.16-1.56.47-2.32c.31-.76.79-1.45,1.41-2.08L27.01,1.88c.63-.63,1.32-1.1,2.08-1.41s1.53-.47,2.32-.47,1.56.16,2.32.47c.76.31,1.45.79,2.08,1.41l25.13,25.13c.63.63,1.1,1.32,1.41,2.08.31.76.47,1.53.47,2.32s-.16,1.56-.47,2.32-.79,1.45-1.41,2.08l-25.13,25.13c-.63.63-1.32,1.1-2.08,1.41-.76.31-1.53.47-2.32.47ZM18.84,43.97l12.56,12.56,25.13-25.13L31.41,6.28,6.28,31.41l12.56,12.56Z"/>
  </g>
</svg>