<?xml version="1.0" encoding="UTF-8"?>
<svg id="Lager_2" data-name="Lager 2" xmlns="http://www.w3.org/2000/svg" viewBox="0 0 55.99 57.46">
  <defs>
    <style>
      .cls-1 {
        fill: #fff;
        stroke-width: 0px;
      }
    </style>
  </defs>
  <g id="Lager_1-2" data-name="Lager 1">
    <path class="cls-1" d="M3.11,57.46v-9.32h9.63l-7.92-25.93c-1.4-.78-2.55-1.91-3.45-3.42-.91-1.5-1.36-3.11-1.36-4.81,0-2.59.91-4.79,2.72-6.6s4.01-2.72,6.6-2.72c2.02,0,3.82.58,5.4,1.75,1.58,1.16,2.68,2.65,3.3,4.46h9.94v-3.11c0-.88.3-1.62.89-2.21s1.33-.89,2.21-.89c.47,0,.92.1,1.36.31s.82.52,1.13.93l5.28-4.97c.47-.47,1.02-.76,1.67-.89s1.28-.04,1.9.27l12.11,5.59c.62.31,1.05.76,1.28,1.36s.22,1.18-.04,1.75c-.31.62-.76,1.02-1.36,1.2s-1.18.14-1.75-.12l-11.18-5.12-7.3,6.83v4.35l7.3,6.68,11.18-5.12c.57-.26,1.16-.28,1.79-.08.62.21,1.06.6,1.32,1.16.31.62.34,1.22.08,1.79s-.7,1.01-1.32,1.32l-12.11,5.74c-.62.31-1.25.4-1.9.27s-1.2-.43-1.67-.89l-5.28-4.97c-.31.31-.69.6-1.13.85s-.89.39-1.36.39c-.88,0-1.62-.3-2.21-.89s-.89-1.33-.89-2.21v-3.11h-9.94c-.16.41-.32.8-.5,1.16s-.43.75-.74,1.16l15.53,28.72h11.18v9.32H3.11ZM9.32,17.1c.88,0,1.62-.3,2.21-.89.6-.6.89-1.33.89-2.21s-.3-1.62-.89-2.21c-.6-.6-1.33-.89-2.21-.89s-1.62.3-2.21.89-.89,1.33-.89,2.21.3,1.62.89,2.21c.6.6,1.33.89,2.21.89ZM19.1,48.15h6.05l-13.35-24.84h-.31l7.61,24.84Z"/>
  </g>
</svg>