<?xml version="1.0" encoding="UTF-8"?>
<svg id="Lager_2" data-name="Lager 2" xmlns="http://www.w3.org/2000/svg" viewBox="0 0 59.38 62.47">
  <defs>
    <style>
      .cls-1 {
        fill: #fff;
        stroke-width: 0px;
      }
    </style>
  </defs>
  <g id="Lager_1-2" data-name="Lager 1">
    <path class="cls-1" d="M9.37,62.47v-13.43c-2.97-2.71-5.27-5.87-6.91-9.49-1.64-3.62-2.46-7.43-2.46-11.44,0-7.81,2.73-14.45,8.2-19.91S20.3,0,28.11,0c6.51,0,12.27,1.91,17.3,5.74,5.02,3.83,8.29,8.81,9.8,14.95l4.06,16.01c.26.99.08,1.89-.55,2.69s-1.46,1.21-2.5,1.21h-6.25v9.37c0,1.72-.61,3.19-1.84,4.41-1.22,1.22-2.69,1.84-4.41,1.84h-6.25v6.25h-6.25v-12.49h12.49v-15.62h8.43l-2.97-12.1c-1.2-4.74-3.75-8.59-7.65-11.56s-8.38-4.45-13.43-4.45c-6.04,0-11.19,2.11-15.46,6.33-4.27,4.22-6.4,9.34-6.4,15.38,0,3.12.64,6.09,1.91,8.9,1.28,2.81,3.08,5.31,5.43,7.5l2.03,1.87v16.24h-6.25ZM28.11,43.73c.89,0,1.63-.3,2.23-.9.6-.6.9-1.34.9-2.23s-.3-1.63-.9-2.23c-.6-.6-1.34-.9-2.23-.9s-1.63.3-2.23.9-.9,1.34-.9,2.23.3,1.63.9,2.23,1.34.9,2.23.9ZM25.77,33.73h4.76c0-1.3.17-2.36.51-3.16.34-.81,1.03-1.78,2.07-2.93.94-1.04,1.85-2.1,2.73-3.16s1.33-2.46,1.33-4.18c0-2.19-.85-4.03-2.54-5.54-1.69-1.51-3.79-2.26-6.29-2.26-2.08,0-3.97.6-5.66,1.8s-2.88,2.76-3.55,4.69l4.29,1.8c.36-1.15,1-2.07,1.91-2.77s1.91-1.05,3.01-1.05,2.1.31,2.85.94c.75.62,1.13,1.43,1.13,2.42,0,1.09-.33,2.07-.98,2.93-.65.86-1.42,1.73-2.3,2.62-1.04,1.09-1.85,2.19-2.42,3.28s-.86,2.63-.86,4.61Z"/>
  </g>
</svg>