<?xml version="1.0" encoding="UTF-8"?>
<svg id="Lager_2" data-name="Lager 2" xmlns="http://www.w3.org/2000/svg" viewBox="0 0 57.12 57.12">
  <defs>
    <style>
      .cls-1 {
        fill: #fff;
        stroke-width: 0px;
      }
    </style>
  </defs>
  <g id="Lager_1-2" data-name="Lager 1">
    <path class="cls-1" d="M6.35,57.12c-1.75,0-3.24-.62-4.48-1.86-1.24-1.24-1.86-2.74-1.86-4.48v-12.69h6.35v12.69h12.69v6.35H6.35ZM50.77,57.12h-12.69v-6.35h12.69v-12.69h6.35v12.69c0,1.75-.62,3.24-1.86,4.48-1.24,1.24-2.74,1.86-4.48,1.86ZM0,6.35c0-1.75.62-3.24,1.86-4.48C3.11.62,4.6,0,6.35,0h12.69v6.35H6.35v12.69H0V6.35ZM57.12,6.35v12.69h-6.35V6.35h-12.69V0h12.69c1.75,0,3.24.62,4.48,1.86,1.24,1.24,1.86,2.74,1.86,4.48ZM28.56,47.6c1.11,0,2.05-.38,2.82-1.15.77-.77,1.15-1.71,1.15-2.82s-.38-2.05-1.15-2.82c-.77-.77-1.71-1.15-2.82-1.15s-2.05.38-2.82,1.15-1.15,1.71-1.15,2.82.38,2.05,1.15,2.82c.77.77,1.71,1.15,2.82,1.15ZM25.7,35.46h5.79c0-1.8.21-3.17.63-4.13s1.35-2.14,2.78-3.57c1.85-1.85,3.08-3.35,3.69-4.48s.91-2.5.91-4.09c0-2.86-1.03-5.18-3.09-6.98-2.06-1.8-4.68-2.7-7.85-2.7-2.64,0-4.92.69-6.82,2.06s-3.28,3.33-4.13,5.87l5.24,2.14c.37-1.38,1.07-2.5,2.1-3.37s2.23-1.31,3.61-1.31c1.53,0,2.76.41,3.69,1.23.93.82,1.39,1.92,1.39,3.29,0,1.06-.25,2.05-.75,2.97s-1.36,1.89-2.58,2.9c-1.75,1.53-2.95,3.01-3.61,4.44s-.99,3.33-.99,5.71Z"/>
  </g>
</svg>