<?xml version="1.0" encoding="UTF-8"?>
<svg id="Lager_2" data-name="Lager 2" xmlns="http://www.w3.org/2000/svg" viewBox="0 0 55.13 61.25">
  <defs>
    <style>
      .cls-1 {
        fill: #fff;
        stroke-width: 0px;
      }
    </style>
  </defs>
  <g id="Lager_1-2" data-name="Lager 1">
    <path class="cls-1" d="M35.22,49c-2.14,0-3.96-.74-5.44-2.22-1.48-1.48-2.22-3.29-2.22-5.44s.74-3.96,2.22-5.44c1.48-1.48,3.29-2.22,5.44-2.22s3.96.74,5.44,2.22,2.22,3.29,2.22,5.44-.74,3.96-2.22,5.44c-1.48,1.48-3.29,2.22-5.44,2.22ZM6.13,61.25c-1.68,0-3.13-.6-4.33-1.8-1.2-1.2-1.8-2.64-1.8-4.33V12.25c0-1.68.6-3.13,1.8-4.33,1.2-1.2,2.64-1.8,4.33-1.8h3.06V0h6.13v6.13h24.5V0h6.13v6.13h3.06c1.68,0,3.13.6,4.33,1.8s1.8,2.64,1.8,4.33v42.88c0,1.68-.6,3.13-1.8,4.33-1.2,1.2-2.64,1.8-4.33,1.8H6.13ZM6.13,55.13h42.88v-30.63H6.13v30.63ZM6.13,18.38h42.88v-6.13H6.13v6.13ZM6.13,18.38v-6.13,6.13Z"/>
  </g>
</svg>