<?xml version="1.0" encoding="UTF-8"?>
<svg id="Lager_2" data-name="Lager 2" xmlns="http://www.w3.org/2000/svg" viewBox="0 0 38.49 38.49">
  <defs>
    <style>
      .cls-1 {
        fill: #999;
        stroke-width: 0px;
      }
    </style>
  </defs>
  <g id="Lager_1-2" data-name="Lager 1">
    <path class="cls-1" d="M35.5,38.49l-13.47-13.47c-1.07.86-2.3,1.53-3.69,2.03s-2.87.75-4.44.75c-3.88,0-7.17-1.35-9.86-4.04S0,17.78,0,13.9,1.35,6.73,4.04,4.04,10.01,0,13.9,0s7.17,1.35,9.86,4.04,4.04,5.98,4.04,9.86c0,1.57-.25,3.05-.75,4.44-.5,1.39-1.18,2.62-2.03,3.69l13.47,13.47-2.99,2.99ZM13.9,23.52c2.67,0,4.95-.94,6.82-2.81,1.87-1.87,2.81-4.14,2.81-6.82s-.94-4.95-2.81-6.82c-1.87-1.87-4.14-2.81-6.82-2.81s-4.95.94-6.82,2.81-2.81,4.14-2.81,6.82.94,4.95,2.81,6.82,4.14,2.81,6.82,2.81Z"/>
  </g>
</svg>