<?xml version="1.0" encoding="UTF-8"?>
<svg id="Lager_2" data-name="Lager 2" xmlns="http://www.w3.org/2000/svg" viewBox="0 0 241.66 53.11">
  <defs>
    <style>
      .cls-1 {
        fill: #55c1d2;
        stroke-width: 0px;
      }
    </style>
  </defs>
  <g id="Lager_1-2" data-name="Lager 1">
    <g id="Lager_2-2" data-name="Lager 2">
      <g id="Lager_1-2" data-name="Lager 1-2">
        <path class="cls-1" d="M41.56,19.06c0,11.7-8.78,18.97-22.8,18.97h-6.62v14.47H0V0h18.76c14,0,22.8,7.27,22.8,19.06M29.25,19.06c0-5.78-3.73-9.15-11.2-9.15h-5.91v18.22h5.94c7.47,0,11.2-3.37,11.2-9.07"/>
        <path class="cls-1" d="M70.81,11.55v10.81c-.93-.07-1.73-.15-2.63-.15-6.44,0-10.72,3.52-10.72,11.25v19.05h-11.71V12.16h11.2v5.32c2.85-3.9,7.65-5.93,13.87-5.93"/>
        <path class="cls-1" d="M105.14,39.83l6.23,6.74c-3.73,4.28-9.34,6.54-16.66,6.54-13.95,0-23.02-8.77-23.02-20.77s9.15-20.77,21.6-20.77c11.4,0,20.77,7.47,20.85,20.4l-29.88,5.78c1.73,3.97,5.47,5.99,10.73,5.99,3.77.15,7.43-1.26,10.12-3.89M83.16,31.13l19.65-3.83c-1.13-4.13-4.67-6.9-9.52-6.9-5.85,0-9.91,3.9-10.13,10.73"/>
        <polygon class="cls-1" points="158.36 12.16 141.34 52.5 129.27 52.5 112.32 12.16 124.39 12.16 135.56 39.6 147.11 12.16 158.36 12.16"/>
        <path class="cls-1" d="M200.38,12.16v40.34h-11.2v-4.67c-2.93,3.53-7.2,5.25-12.6,5.25-11.4,0-20.17-8.09-20.17-20.77s8.77-20.77,20.17-20.77c4.95,0,9.15,1.58,12.07,4.87v-4.25h11.74ZM188.9,32.32c0-6.97-4.5-11.2-10.27-11.2s-10.34,4.2-10.34,11.2,4.5,11.2,10.34,11.2,10.27-4.2,10.27-11.2"/>
        <path class="cls-1" d="M217.35,24.15c0-2.1,2.25-3.73,7.47-3.73,3.12-.02,6.21.58,9.09,1.76l4.98-7.84c-4.45-1.89-9.24-2.84-14.07-2.8-11.77,0-18.67,5.41-18.67,13.07,0,16.12,24.37,9.34,24.37,15.97,0,2.25-2.02,3.67-7.47,3.67-4.93-.02-9.77-1.37-14-3.89l-3.9,8.4c3.73,2.48,10.65,4.35,17.48,4.35,12.07,0,19.05-5.32,19.05-12.82,0-15.87-24.37-9.22-24.37-16.12"/>
      </g>
    </g>
  </g>
</svg>