<?xml version="1.0" encoding="UTF-8"?>
<svg id="Lager_2" data-name="Lager 2" xmlns="http://www.w3.org/2000/svg" viewBox="0 0 584.94 72.19">
  <defs>
    <style>
      .cls-1 {
        fill: #fff;
        stroke-width: 0px;
      }
    </style>
  </defs>
  <g id="Lager_1-2" data-name="Lager 1">
    <g>
      <g id="Lager_2-2" data-name="Lager 2">
        <g id="Lager_1-2" data-name="Lager 1-2">
          <polygon class="cls-1" points="262.97 72.19 261.8 72.19 261.92 0 263.09 0 262.97 72.19"/>
          <path class="cls-1" d="M41.56,22.84c0,11.7-8.78,18.97-22.8,18.97h-6.62v14.47H0V3.78h18.76c14,0,22.8,7.27,22.8,19.06M29.25,22.84c0-5.78-3.73-9.15-11.2-9.15h-5.91v18.22h5.94c7.47,0,11.2-3.37,11.2-9.07"/>
          <path class="cls-1" d="M70.81,15.33v10.81c-.93-.07-1.73-.15-2.63-.15-6.44,0-10.72,3.52-10.72,11.25v19.05h-11.71V15.94h11.2v5.32c2.85-3.9,7.65-5.93,13.87-5.93"/>
          <path class="cls-1" d="M105.14,43.61l6.23,6.74c-3.73,4.28-9.34,6.54-16.66,6.54-13.95,0-23.02-8.77-23.02-20.77s9.15-20.77,21.6-20.77c11.4,0,20.77,7.47,20.85,20.4l-29.88,5.78c1.73,3.97,5.47,5.99,10.73,5.99,3.77.15,7.43-1.26,10.12-3.89M83.16,34.91l19.65-3.83c-1.13-4.13-4.67-6.9-9.52-6.9-5.85,0-9.91,3.9-10.13,10.73"/>
          <polygon class="cls-1" points="158.36 15.94 141.34 56.28 129.27 56.28 112.32 15.94 124.39 15.94 135.56 43.39 147.11 15.94 158.36 15.94"/>
          <path class="cls-1" d="M200.38,15.94v40.34h-11.2v-4.67c-2.93,3.53-7.2,5.25-12.6,5.25-11.4,0-20.17-8.09-20.17-20.77s8.77-20.77,20.17-20.77c4.95,0,9.15,1.58,12.07,4.87v-4.25h11.74ZM188.9,36.1c0-6.97-4.5-11.2-10.27-11.2s-10.34,4.2-10.34,11.2,4.5,11.2,10.34,11.2,10.27-4.2,10.27-11.2"/>
          <path class="cls-1" d="M217.35,27.93c0-2.1,2.25-3.73,7.47-3.73,3.12-.02,6.21.58,9.09,1.76l4.98-7.84c-4.45-1.89-9.24-2.84-14.07-2.8-11.77,0-18.67,5.41-18.67,13.07,0,16.12,24.37,9.34,24.37,15.97,0,2.25-2.02,3.67-7.47,3.67-4.93-.02-9.77-1.37-14-3.89l-3.9,8.4c3.73,2.48,10.65,4.35,17.48,4.35,12.07,0,19.05-5.32,19.05-12.82,0-15.87-24.37-9.22-24.37-16.12"/>
        </g>
      </g>
      <g>
        <path class="cls-1" d="M301.71,57.09c-3.39,0-6.2-.57-8.45-1.7-2.25-1.14-3.91-2.82-4.97-5.04l1.25.56v5.5h-5.01v-13.57h4.8c.18,2.88,1.07,5.06,2.64,6.54,1.58,1.48,4.31,2.23,8.21,2.23,3.15,0,5.41-.57,6.78-1.7,1.37-1.14,2.05-2.52,2.05-4.14,0-1.48-.49-2.65-1.46-3.51-.97-.86-2.67-1.52-5.08-1.98l-7.24-1.46c-3.48-.65-6.17-1.95-8.07-3.9-1.9-1.95-2.85-4.48-2.85-7.58,0-2.23.53-4.27,1.6-6.12,1.07-1.85,2.67-3.33,4.8-4.42,2.13-1.09,4.78-1.63,7.93-1.63s5.55.57,7.62,1.7c2.06,1.14,3.58,2.82,4.56,5.04h-1.25v-6.05h5.01v11.83h-4.8c-.19-2.04-1.1-3.72-2.75-5.04-1.65-1.32-4.02-1.98-7.13-1.98-1.9,0-3.46.26-4.66.77-1.21.51-2.08,1.19-2.61,2.05-.53.86-.8,1.8-.8,2.82,0,1.39.49,2.53,1.46,3.41.97.88,2.57,1.53,4.8,1.95l7.24,1.39c3.66.74,6.45,2.02,8.35,3.83,1.9,1.81,2.85,4.41,2.85,7.79,0,2.32-.57,4.42-1.7,6.3-1.14,1.88-2.79,3.37-4.97,4.49-2.18,1.11-4.89,1.67-8.14,1.67Z"/>
        <path class="cls-1" d="M334.34,57.09c-2.92,0-5.32-.8-7.2-2.4s-2.82-4.19-2.82-7.76v-13.36h-4.8v-4.87h4.8v-9.18l6.54-1.18v10.37h7.65v4.87h-7.65v12.45c0,2.09.45,3.53,1.36,4.31.9.79,2.14,1.18,3.72,1.18.6,0,1.21-.08,1.81-.24.6-.16,1.14-.34,1.6-.52l.83,4.87c-.7.42-1.57.77-2.61,1.04-1.04.28-2.12.42-3.23.42Z"/>
        <path class="cls-1" d="M357.85,57.09c-3.02,0-5.65-.65-7.9-1.95-2.25-1.3-3.99-3.05-5.22-5.25-1.23-2.2-1.84-4.67-1.84-7.41s.61-5.19,1.84-7.38c1.23-2.18,2.97-3.91,5.22-5.18,2.25-1.28,4.88-1.91,7.9-1.91s5.58.64,7.83,1.91c2.25,1.28,4,3,5.25,5.18,1.25,2.18,1.88,4.64,1.88,7.38s-.63,5.21-1.88,7.41c-1.25,2.2-3,3.96-5.25,5.25-2.25,1.3-4.86,1.95-7.83,1.95ZM357.85,51.73c2.55,0,4.63-.86,6.23-2.57,1.6-1.72,2.4-3.94,2.4-6.68s-.8-4.88-2.4-6.58c-1.6-1.69-3.68-2.54-6.23-2.54s-4.75.85-6.33,2.54c-1.58,1.69-2.37,3.89-2.37,6.58s.79,4.96,2.37,6.68c1.58,1.72,3.69,2.57,6.33,2.57Z"/>
        <path class="cls-1" d="M392.78,57.09c-3.2,0-5.95-.65-8.24-1.95-2.3-1.3-4.06-3.06-5.29-5.29-1.23-2.23-1.84-4.71-1.84-7.44s.56-5.06,1.67-7.24c1.11-2.18,2.71-3.92,4.8-5.22,2.09-1.3,4.61-1.95,7.58-1.95,1.44,0,2.81.24,4.1.73,1.3.49,2.39,1.18,3.27,2.09.88.9,1.37,1.96,1.46,3.17l-.77.14v-5.43h4.66v10.02h-4.17c-1.11-3.48-3.73-5.22-7.86-5.22-2.83,0-4.95.85-6.37,2.54-1.42,1.69-2.12,3.84-2.12,6.44s.82,4.83,2.47,6.57c1.65,1.74,3.98,2.61,6.99,2.61,1.67,0,3.29-.35,4.87-1.04,1.58-.7,2.88-1.55,3.9-2.57l2.92,4.52c-1.35,1.44-3.15,2.55-5.43,3.34-2.27.79-4.48,1.18-6.61,1.18Z"/>
        <path class="cls-1" d="M418.59,51.45h3.62v4.94h-14.68v-4.94h4.52v-30.68h-4.8v-4.94h11.34v26.09l11.2-8.35h-4.24v-4.87h14.12v4.87h-3.9l-12.87,9.39,2.09-2.99,11.2,11.48h4.94v4.94h-9.32l-13.22-13.91v8.97Z"/>
        <path class="cls-1" d="M442.03,56.39v-4.94h4.52v-30.68h-4.8v-4.94h11.34v17.05l-1.32.21c1.76-1.76,3.66-3.05,5.71-3.86,2.04-.81,4.08-1.22,6.12-1.22,2.97,0,5.28.77,6.92,2.3,1.65,1.53,2.47,3.94,2.47,7.24v13.91h4.1v4.94h-15.17v-4.94h4.52v-12.38c0-1.9-.43-3.29-1.29-4.17-.86-.88-2.24-1.32-4.14-1.32-1.39,0-2.82.27-4.28.8-1.46.53-2.98,1.47-4.56,2.82l.9-2.16v16.42h4.1v4.94h-15.17Z"/>
        <path class="cls-1" d="M495.33,57.09c-3.02,0-5.65-.65-7.9-1.95-2.25-1.3-3.99-3.05-5.22-5.25-1.23-2.2-1.84-4.67-1.84-7.41s.61-5.19,1.84-7.38c1.23-2.18,2.97-3.91,5.22-5.18,2.25-1.28,4.88-1.91,7.9-1.91s5.58.64,7.83,1.91c2.25,1.28,4,3,5.25,5.18,1.25,2.18,1.88,4.64,1.88,7.38s-.63,5.21-1.88,7.41c-1.25,2.2-3,3.96-5.25,5.25-2.25,1.3-4.86,1.95-7.83,1.95ZM495.33,51.73c2.55,0,4.63-.86,6.23-2.57,1.6-1.72,2.4-3.94,2.4-6.68s-.8-4.88-2.4-6.58c-1.6-1.69-3.68-2.54-6.23-2.54s-4.75.85-6.33,2.54c-1.58,1.69-2.37,3.89-2.37,6.58s.79,4.96,2.37,6.68c1.58,1.72,3.69,2.57,6.33,2.57Z"/>
        <path class="cls-1" d="M513.35,56.39v-4.94h4.52v-30.68h-4.8v-4.94h11.34v35.62h4.24v4.94h-15.31Z"/>
        <path class="cls-1" d="M531.02,56.39v-4.94h4.45v-17.88h-4.8v-4.87h10.92v4.17l-.9.21c1.76-1.76,3.64-3.05,5.64-3.86,1.99-.81,3.97-1.22,5.91-1.22,2.5,0,4.43.49,5.77,1.46,1.34.97,2.32,2.27,2.92,3.9l-.9-.35c1.76-1.76,3.63-3.04,5.6-3.83,1.97-.79,3.95-1.18,5.95-1.18,2.92,0,5.19.77,6.82,2.3,1.62,1.53,2.44,3.94,2.44,7.24v13.91h4.1v4.94h-14.96v-4.94h4.31v-12.38c0-1.9-.41-3.29-1.22-4.17-.81-.88-2.15-1.32-4-1.32-1.35,0-2.74.27-4.17.8-1.44.53-2.9,1.47-4.38,2.82l.56-2.99c.14.56.23,1.17.28,1.84.05.67.07,1.17.07,1.5v13.91h3.97v4.94h-14.75v-4.94h4.31v-12.38c0-1.9-.41-3.29-1.22-4.17-.81-.88-2.15-1.32-4-1.32-1.35,0-2.74.27-4.17.8-1.44.53-2.9,1.47-4.38,2.82l.83-1.88v16.14h3.97v4.94h-14.96Z"/>
      </g>
    </g>
  </g>
</svg>