<?xml version="1.0" encoding="UTF-8"?>
<svg id="Lager_2" data-name="Lager 2" xmlns="http://www.w3.org/2000/svg" viewBox="0 0 775.91 95.96">
  <defs>
    <style>
      .cls-1 {
        fill: #fff;
        stroke-width: 0px;
      }
    </style>
  </defs>
  <g id="Lager_1-2" data-name="Lager 1">
    <g>
      <path class="cls-1" d="M.73,38.27v-5.91h3.94V7.12H.73V1.21h16.66v5.91h-4v25.24h12.4v-9.41h6.04v15.32H.73Z"/>
      <path class="cls-1" d="M44.79,38.91c-3.05,0-5.39-.72-7.03-2.16-1.63-1.44-2.45-3.31-2.45-5.59s.87-4.24,2.61-5.59c1.74-1.36,4.34-2.03,7.82-2.03,1.19,0,2.47.11,3.85.32,1.38.21,2.57.47,3.59.76l-1.08.76v-2.48c0-1.4-.49-2.48-1.46-3.24-.98-.76-2.44-1.14-4.39-1.14-1.44,0-2.85.19-4.23.57-1.38.38-2.7.93-3.97,1.65l-1.84-5.72c1.74-.93,3.61-1.63,5.63-2.1,2.01-.47,3.91-.7,5.69-.7,4.07,0,7.13.91,9.19,2.73s3.08,4.49,3.08,8.01v9.85h3.31v5.47h-10.36v-4.2l1.14.89c-1.19,1.19-2.56,2.14-4.13,2.86-1.57.72-3.22,1.08-4.96,1.08ZM42.82,9.16c-1.02,0-1.91-.32-2.67-.95-.76-.64-1.14-1.53-1.14-2.67s.38-2.1,1.14-2.73c.76-.64,1.65-.95,2.67-.95s1.9.32,2.64.95,1.11,1.55,1.11,2.73-.37,2.03-1.11,2.67-1.62.95-2.64.95ZM46.88,33.63c1.14,0,2.27-.22,3.37-.67,1.1-.44,1.95-1.01,2.54-1.68l-.7,2.03v-5.91l1.08,1.78c-.93-.34-1.89-.57-2.86-.7-.98-.13-1.93-.19-2.86-.19-1.48,0-2.63.23-3.43.7-.81.47-1.21,1.14-1.21,2.03s.36,1.49,1.08,1.94c.72.45,1.72.67,2.99.67ZM53.56,9.16c-1.02,0-1.91-.31-2.67-.92-.76-.61-1.14-1.52-1.14-2.7s.38-2.1,1.14-2.73c.76-.64,1.65-.95,2.67-.95s1.84.32,2.61.95,1.14,1.55,1.14,2.73-.38,2.09-1.14,2.7-1.63.92-2.61.92Z"/>
      <path class="cls-1" d="M65.38,38.27v-5.47h3.69v-14.5h-4.01v-5.47h11.06v7.63l-.57-.76c1.1-2.58,2.38-4.48,3.85-5.69,1.46-1.21,3.02-1.81,4.67-1.81,1.44,0,2.73.38,3.88,1.14l-2.48,7.25c-.59-.51-1.18-.88-1.75-1.11-.57-.23-1.13-.35-1.68-.35-1.14,0-2.17.38-3.08,1.14-.91.76-1.66,1.82-2.26,3.18v9.35h4.45v5.47h-15.77Z"/>
      <path class="cls-1" d="M120.88,38.91c-2.54,0-4.7-.61-6.45-1.84-1.76-1.23-3.09-2.86-4-4.89-.91-2.04-1.37-4.26-1.37-6.68s.46-4.57,1.37-6.58c.91-2.01,2.25-3.63,4-4.86,1.76-1.23,3.91-1.84,6.45-1.84,1.74,0,3.42.4,5.05,1.21,1.63.81,2.91,2.01,3.85,3.62l-.95.13V6.68h-3.94V1.21h11.63v31.6h3.56v5.47h-10.68v-4.77l.38.57c-.93,1.61-2.21,2.82-3.85,3.62-1.63.8-3.32,1.21-5.05,1.21ZM122.92,32.68c1.1,0,2.2-.23,3.31-.7,1.1-.47,2.1-1.25,2.99-2.35l-.38,2.92v-13.67l.38,2.61c-.89-1.14-1.89-1.94-2.99-2.38-1.1-.45-2.2-.67-3.31-.67-1.78,0-3.29.62-4.51,1.84-1.23,1.23-1.84,2.97-1.84,5.21s.61,4.06,1.84,5.31c1.23,1.25,2.73,1.88,4.51,1.88Z"/>
      <path class="cls-1" d="M142.37,38.27v-5.47h3.69v-14.5h-4.01v-5.47h11.63v19.96h3.37v5.47h-14.69ZM149.87,9.28c-1.48,0-2.64-.42-3.46-1.27s-1.24-1.95-1.24-3.31.41-2.53,1.24-3.4c.83-.87,1.98-1.3,3.46-1.3s2.57.44,3.4,1.3c.83.87,1.24,2,1.24,3.4s-.41,2.46-1.24,3.31c-.83.85-1.96,1.27-3.4,1.27Z"/>
      <path class="cls-1" d="M174.79,49.78c-2.25,0-4.37-.26-6.36-.79-1.99-.53-3.65-1.22-4.96-2.07l2.73-5.72c1.19.72,2.45,1.29,3.78,1.72,1.33.42,2.7.64,4.1.64,2.25,0,3.91-.58,4.99-1.75,1.08-1.17,1.62-2.74,1.62-4.74v-3.18l1.02-.83c-.97,1.53-2.29,2.67-3.94,3.43-1.65.76-3.41,1.14-5.28,1.14-2.59,0-4.79-.58-6.61-1.75-1.82-1.17-3.2-2.72-4.13-4.67-.93-1.95-1.4-4.07-1.4-6.36s.47-4.33,1.4-6.26c.93-1.93,2.31-3.47,4.13-4.64,1.82-1.17,4.03-1.75,6.61-1.75,1.86,0,3.62.38,5.28,1.14,1.65.76,2.97,1.91,3.94,3.43l-.38.44v-4.39h10.49v5.47h-3.37v18.31c0,2.8-.56,5.17-1.68,7.12-1.12,1.95-2.7,3.44-4.74,4.48-2.03,1.04-4.45,1.56-7.25,1.56ZM174.54,31.41c1.19,0,2.35-.21,3.5-.64,1.14-.42,2.18-1.14,3.12-2.16l-.38,2.48v-12.21l.38,2.35c-.93-1.02-1.97-1.74-3.12-2.16-1.14-.42-2.31-.64-3.5-.64-1.87,0-3.44.55-4.74,1.65-1.29,1.1-1.94,2.69-1.94,4.77s.65,3.69,1.94,4.83,2.87,1.72,4.74,1.72Z"/>
      <path class="cls-1" d="M213.57,38.27v-5.47h3.69v-14.5h-4.01v-5.47h11.06v4.01l-.83.13c1.61-1.65,3.34-2.86,5.18-3.62s3.7-1.14,5.56-1.14c2.25,0,4.01.46,5.28,1.37,1.27.91,2.18,2.17,2.73,3.78l-1.08-.44c1.61-1.65,3.34-2.85,5.18-3.59s3.7-1.11,5.56-1.11c2.63,0,4.7.72,6.23,2.16,1.53,1.44,2.29,3.67,2.29,6.67v11.76h3.37v5.47h-14.56v-5.47h3.5v-9.79c0-1.61-.33-2.77-.99-3.46s-1.71-1.05-3.15-1.05c-1.06,0-2.16.22-3.31.67s-2.25,1.2-3.31,2.26l.38-3.24c.08.47.15,1,.19,1.59.04.59.06,1.02.06,1.27v11.76h3.18v5.47h-14.24v-5.47h3.5v-9.79c0-1.61-.33-2.77-.99-3.46-.66-.7-1.71-1.05-3.15-1.05-1.1,0-2.22.22-3.37.67s-2.27,1.2-3.37,2.26l.7-1.97v13.35h3.18v5.47h-14.5Z"/>
      <path class="cls-1" d="M281.92,38.91c-3.26,0-6.04-.58-8.33-1.75-2.29-1.17-4.02-2.77-5.18-4.8-1.17-2.03-1.75-4.32-1.75-6.87s.56-4.75,1.68-6.74,2.71-3.58,4.77-4.77c2.05-1.19,4.48-1.78,7.28-1.78s5.14.59,7.15,1.78c2.01,1.19,3.57,2.78,4.67,4.77,1.1,1.99,1.65,4.24,1.65,6.74v2.54h-23.08v-5.02h15.77c0-.89-.25-1.76-.76-2.61-.51-.85-1.22-1.55-2.13-2.1-.91-.55-2.04-.83-3.4-.83s-2.44.29-3.37.86c-.93.57-1.64,1.31-2.13,2.22-.49.91-.73,1.9-.73,2.96v1.97c0,2.25.69,4.02,2.07,5.31,1.38,1.29,3.46,1.94,6.26,1.94,1.65,0,3.22-.25,4.7-.76,1.48-.51,2.73-1.21,3.75-2.1l2.92,5.21c-1.36,1.14-3.08,2.07-5.18,2.77s-4.31,1.05-6.64,1.05Z"/>
      <path class="cls-1" d="M297.04,38.27v-5.47h3.69v-14.5h-4.01v-5.47h11.06v7.63l-.57-.76c1.1-2.58,2.38-4.48,3.85-5.69,1.46-1.21,3.02-1.81,4.67-1.81,1.44,0,2.73.38,3.88,1.14l-2.48,7.25c-.59-.51-1.18-.88-1.75-1.11-.57-.23-1.13-.35-1.68-.35-1.14,0-2.17.38-3.08,1.14-.91.76-1.66,1.82-2.26,3.18v9.35h4.45v5.47h-15.77Z"/>
      <path class="cls-1" d="M354.77,38.91c-2.8,0-5.25-.58-7.34-1.75s-3.74-2.77-4.93-4.8c-1.19-2.03-1.78-4.3-1.78-6.8s.59-4.87,1.78-6.87c1.19-1.99,2.84-3.57,4.96-4.74,2.12-1.17,4.58-1.75,7.37-1.75s5.25.58,7.38,1.75c2.12,1.17,3.76,2.74,4.93,4.74,1.17,1.99,1.75,4.28,1.75,6.87s-.58,4.77-1.75,6.8c-1.17,2.03-2.81,3.63-4.93,4.8-2.12,1.17-4.6,1.75-7.44,1.75ZM354.83,32.8c1.99,0,3.59-.68,4.8-2.04,1.21-1.36,1.81-3.11,1.81-5.28s-.6-3.85-1.81-5.18-2.81-2-4.8-2-3.65.67-4.83,2c-1.19,1.33-1.78,3.06-1.78,5.18s.6,3.92,1.81,5.28c1.21,1.36,2.81,2.04,4.8,2.04Z"/>
      <path class="cls-1" d="M372.12,38.27v-5.47h3.69v-14.5h-4.01v-5.47h11.06v4.01l-.83.13c1.61-1.65,3.34-2.86,5.18-3.62s3.7-1.14,5.56-1.14c2.25,0,4.01.46,5.28,1.37,1.27.91,2.18,2.17,2.73,3.78l-1.08-.44c1.61-1.65,3.34-2.85,5.18-3.59s3.7-1.11,5.56-1.11c2.63,0,4.7.72,6.23,2.16,1.53,1.44,2.29,3.67,2.29,6.67v11.76h3.37v5.47h-14.56v-5.47h3.5v-9.79c0-1.61-.33-2.77-.99-3.46s-1.71-1.05-3.15-1.05c-1.06,0-2.16.22-3.31.67s-2.25,1.2-3.31,2.26l.38-3.24c.08.47.15,1,.19,1.59.04.59.06,1.02.06,1.27v11.76h3.18v5.47h-14.24v-5.47h3.5v-9.79c0-1.61-.33-2.77-.99-3.46-.66-.7-1.71-1.05-3.15-1.05-1.1,0-2.22.22-3.37.67s-2.27,1.2-3.37,2.26l.7-1.97v13.35h3.18v5.47h-14.5Z"/>
      <path class="cls-1" d="M458.39,38.91c-2.8,0-5.25-.58-7.34-1.75s-3.74-2.77-4.93-4.8c-1.19-2.03-1.78-4.3-1.78-6.8s.59-4.87,1.78-6.87c1.19-1.99,2.84-3.57,4.96-4.74,2.12-1.17,4.58-1.75,7.37-1.75s5.25.58,7.38,1.75c2.12,1.17,3.76,2.74,4.93,4.74,1.17,1.99,1.75,4.28,1.75,6.87s-.58,4.77-1.75,6.8c-1.17,2.03-2.81,3.63-4.93,4.8-2.12,1.17-4.6,1.75-7.44,1.75ZM458.46,32.8c1.99,0,3.59-.68,4.8-2.04,1.21-1.36,1.81-3.11,1.81-5.28s-.6-3.85-1.81-5.18-2.81-2-4.8-2-3.65.67-4.83,2c-1.19,1.33-1.78,3.06-1.78,5.18s.6,3.92,1.81,5.28c1.21,1.36,2.81,2.04,4.8,2.04Z"/>
      <path class="cls-1" d="M490.82,38.91c-3.05,0-5.32-.49-6.8-1.46-1.48-.97-2.48-2.23-2.99-3.75l1.4-.51v5.09h-5.4v-8.65h4.77c.34.98.87,1.81,1.59,2.51.72.7,1.59,1.23,2.61,1.59s2.08.54,3.18.54c1.44,0,2.51-.23,3.21-.7.7-.47,1.05-1.06,1.05-1.78,0-.51-.21-.96-.64-1.37-.42-.4-1.29-.77-2.61-1.11l-5.72-1.4c-2.29-.64-4.11-1.55-5.47-2.73s-2.03-2.84-2.03-4.96c0-1.69.43-3.15,1.3-4.35.87-1.21,2.08-2.13,3.62-2.77,1.55-.64,3.27-.95,5.18-.95,2.42,0,4.29.46,5.63,1.37,1.33.91,2.21,2.09,2.64,3.53l-1.33.06v-4.26h5.4v8.01h-4.77c-.17-.89-.53-1.63-1.08-2.23-.55-.59-1.25-1.05-2.1-1.37-.85-.32-1.72-.48-2.61-.48-1.36,0-2.41.23-3.15.7-.74.47-1.11,1.08-1.11,1.84,0,.59.24,1.07.73,1.43.49.36,1.3.69,2.45.99l5.72,1.4c2.42.55,4.28,1.43,5.59,2.64,1.31,1.21,1.97,2.94,1.97,5.18,0,1.7-.44,3.13-1.3,4.29-.87,1.17-2.08,2.07-3.62,2.7s-3.32.95-5.31.95Z"/>
      <path class="cls-1" d="M519.23,38.91c-3.05,0-5.32-.49-6.8-1.46-1.48-.97-2.48-2.23-2.99-3.75l1.4-.51v5.09h-5.4v-8.65h4.77c.34.98.87,1.81,1.59,2.51.72.7,1.59,1.23,2.61,1.59s2.08.54,3.18.54c1.44,0,2.51-.23,3.21-.7.7-.47,1.05-1.06,1.05-1.78,0-.51-.21-.96-.64-1.37-.42-.4-1.29-.77-2.61-1.11l-5.72-1.4c-2.29-.64-4.11-1.55-5.47-2.73s-2.03-2.84-2.03-4.96c0-1.69.43-3.15,1.3-4.35.87-1.21,2.08-2.13,3.62-2.77,1.55-.64,3.27-.95,5.18-.95,2.42,0,4.29.46,5.63,1.37,1.33.91,2.21,2.09,2.64,3.53l-1.33.06v-4.26h5.4v8.01h-4.77c-.17-.89-.53-1.63-1.08-2.23-.55-.59-1.25-1.05-2.1-1.37-.85-.32-1.72-.48-2.61-.48-1.36,0-2.41.23-3.15.7-.74.47-1.11,1.08-1.11,1.84,0,.59.24,1.07.73,1.43.49.36,1.3.69,2.45.99l5.72,1.4c2.42.55,4.28,1.43,5.59,2.64,1.31,1.21,1.97,2.94,1.97,5.18,0,1.7-.44,3.13-1.3,4.29-.87,1.17-2.08,2.07-3.62,2.7s-3.32.95-5.31.95Z"/>
      <path class="cls-1" d="M536.27,27.72l-2.61-13.8V1.21h8.71v12.71l-2.54,13.8h-3.56ZM534.55,38.27v-6.61h6.99v6.61h-6.99Z"/>
      <path class="cls-1" d="M0,88.76v-3.91h2.61v-16.7H0v-3.91h11.02v3.91h-2.65v7.19l8.08-7.19h-2.1v-3.91h10.86v3.91h-2.44l-9.51,8.5-.04-2.15,10.31,10.35h2.44v3.91h-11.36v-3.91h2.1l-8.33-8.33v8.33h2.65v3.91H0Z"/>
      <path class="cls-1" d="M26.51,88.76v-3.62h2.48v-17.29h-2.65v-3.62h7.74v20.91h2.36v3.62h-9.93Z"/>
      <path class="cls-1" d="M37.95,88.76v-3.62h2.44v-9.59h-2.65v-3.62h7.7v13.21h2.23v3.62h-9.72ZM42.92,69.58c-.98,0-1.75-.28-2.29-.84-.55-.56-.82-1.29-.82-2.19s.27-1.68.82-2.25c.55-.58,1.31-.86,2.29-.86s1.7.29,2.25.86c.55.58.82,1.33.82,2.25s-.27,1.63-.82,2.19c-.55.56-1.3.84-2.25.84Z"/>
      <path class="cls-1" d="M59.37,89.18c-1.93,0-3.62-.39-5.05-1.16-1.43-.77-2.53-1.84-3.3-3.2-.77-1.36-1.16-2.9-1.16-4.61s.34-3.1,1.03-4.42,1.66-2.36,2.92-3.13c1.26-.77,2.74-1.16,4.42-1.16.84,0,1.64.14,2.4.42.76.28,1.39.69,1.89,1.22s.78,1.15.84,1.85l-.5.04v-3.11h3.58v6.4h-3.2c-.65-1.79-2.01-2.69-4.08-2.69-1.43,0-2.51.43-3.24,1.3-.73.87-1.09,1.99-1.09,3.37s.42,2.52,1.26,3.43c.84.91,2.09,1.37,3.74,1.37.9,0,1.78-.19,2.65-.57.87-.38,1.61-.86,2.23-1.45l2.1,3.41c-.87.84-1.98,1.5-3.34,1.98s-2.73.72-4.1.72Z"/>
      <path class="cls-1" d="M75.94,85.14h1.89v3.62h-9.47v-3.62h2.48v-17.29h-2.65v-3.62h7.74v15.78l6.18-4.46h-2.27v-3.62h8.88v3.62h-2.15l-7.28,5.13,1.6-2.15,6.06,6.61h2.74v3.62h-6.35l-7.41-8.29v4.67Z"/>
      <path class="cls-1" d="M97.53,89.18c-2.02,0-3.57-.48-4.65-1.43-1.08-.95-1.62-2.19-1.62-3.7s.57-2.8,1.72-3.7c1.15-.9,2.88-1.35,5.17-1.35.79,0,1.63.07,2.55.21.91.14,1.7.31,2.38.5l-.71.5v-1.64c0-.93-.32-1.64-.97-2.15-.65-.5-1.61-.76-2.9-.76-.95,0-1.89.13-2.8.38-.91.25-1.79.62-2.63,1.09l-1.22-3.79c1.15-.62,2.39-1.08,3.72-1.39,1.33-.31,2.59-.46,3.77-.46,2.69,0,4.72.6,6.08,1.81s2.04,2.97,2.04,5.3v6.52h2.19v3.62h-6.86v-2.78l.76.59c-.79.79-1.7,1.42-2.73,1.89-1.04.48-2.13.72-3.28.72ZM98.91,85.69c.76,0,1.5-.15,2.23-.44.73-.29,1.29-.67,1.68-1.11l-.46,1.35v-3.91l.71,1.18c-.62-.22-1.25-.38-1.89-.46s-1.28-.13-1.89-.13c-.98,0-1.74.15-2.27.46-.53.31-.8.76-.8,1.35s.24.99.72,1.28c.48.29,1.14.44,1.98.44Z"/>
      <path class="cls-1" d="M123.36,71.93h7.32v2.86l-.21-.08c.62-1.07,1.46-1.87,2.54-2.4,1.08-.53,2.2-.8,3.35-.8,1.71,0,3.14.41,4.29,1.22s2.03,1.89,2.63,3.22c.6,1.33.9,2.78.9,4.35s-.3,3.07-.9,4.42c-.6,1.35-1.48,2.43-2.63,3.24s-2.58,1.22-4.29,1.22c-1.15,0-2.27-.27-3.35-.8s-1.93-1.33-2.54-2.4l.63-.08v6.44h2.19v3.62h-9.76v-3.62h2.48v-16.79h-2.65v-3.62ZM135.01,85.06c1.18,0,2.17-.41,2.99-1.24.81-.83,1.22-2,1.22-3.51s-.41-2.64-1.22-3.45c-.81-.81-1.81-1.22-2.99-1.22-.73,0-1.46.15-2.19.44-.73.29-1.39.82-1.98,1.58l.25-1.81v9.05l-.25-1.85c.59.73,1.25,1.25,1.98,1.56.73.31,1.46.46,2.19.46Z"/>
      <path class="cls-1" d="M153.02,89.18c-2.02,0-3.57-.48-4.65-1.43-1.08-.95-1.62-2.19-1.62-3.7s.57-2.8,1.72-3.7c1.15-.9,2.88-1.35,5.17-1.35.79,0,1.63.07,2.55.21.91.14,1.7.31,2.38.5l-.71.5v-1.64c0-.93-.32-1.64-.97-2.15-.65-.5-1.61-.76-2.9-.76-.95,0-1.89.13-2.8.38-.91.25-1.79.62-2.63,1.09l-1.22-3.79c1.15-.62,2.39-1.08,3.72-1.39,1.33-.31,2.59-.46,3.77-.46,2.69,0,4.72.6,6.08,1.81s2.04,2.97,2.04,5.3v6.52h2.19v3.62h-6.86v-2.78l.76.59c-.79.79-1.7,1.42-2.73,1.89-1.04.48-2.13.72-3.28.72ZM155.25,69.49c-1.12,0-2.06-.36-2.82-1.09-.76-.73-1.14-1.63-1.14-2.69,0-1.12.38-2.05,1.14-2.78.76-.73,1.7-1.09,2.82-1.09s2.06.37,2.82,1.09c.76.73,1.14,1.66,1.14,2.78s-.38,1.96-1.14,2.69c-.76.73-1.7,1.09-2.82,1.09ZM154.41,85.69c.76,0,1.5-.15,2.23-.44.73-.29,1.29-.67,1.68-1.11l-.46,1.35v-3.91l.71,1.18c-.62-.22-1.25-.38-1.89-.46s-1.28-.13-1.89-.13c-.98,0-1.74.15-2.27.46-.53.31-.8.76-.8,1.35s.24.99.72,1.28c.48.29,1.14.44,1.98.44ZM155.25,67.6c.53,0,.98-.18,1.35-.55s.55-.81.55-1.35-.18-.98-.55-1.35c-.36-.36-.81-.55-1.35-.55s-.98.18-1.35.55-.55.81-.55,1.35.18.98.55,1.35c.36.36.81.55,1.35.55Z"/>
      <path class="cls-1" d="M189.83,89.18c-2.16,0-4-.39-5.51-1.16-1.51-.77-2.66-1.83-3.43-3.18s-1.16-2.86-1.16-4.54.37-3.14,1.11-4.46,1.79-2.37,3.16-3.16c1.36-.79,2.97-1.18,4.82-1.18s3.4.39,4.73,1.18,2.36,1.84,3.09,3.16,1.09,2.81,1.09,4.46v1.68h-15.27v-3.32h10.43c0-.59-.17-1.16-.5-1.73-.34-.56-.81-1.02-1.41-1.39-.6-.36-1.35-.55-2.25-.55s-1.61.19-2.23.57c-.62.38-1.09.87-1.41,1.47-.32.6-.48,1.26-.48,1.96v1.3c0,1.49.46,2.66,1.37,3.51.91.86,2.29,1.28,4.14,1.28,1.09,0,2.13-.17,3.11-.5.98-.34,1.81-.8,2.48-1.39l1.94,3.45c-.9.76-2.04,1.37-3.43,1.83s-2.85.69-4.4.69Z"/>
      <path class="cls-1" d="M208.35,89.18c-1.96,0-3.53-.52-4.71-1.56-1.18-1.04-1.77-2.69-1.77-4.96v-7.11h-2.65v-3.62h2.65v-5.47l5.05-.84v6.31h4.59v3.62h-4.54v6.44c0,1.18.25,1.98.74,2.4.49.42,1.18.63,2.08.63.39,0,.76-.05,1.12-.15.35-.1.67-.2.95-.32l.67,3.62c-.48.28-1.08.52-1.81.71s-1.51.29-2.36.29Z"/>
      <path class="cls-1" d="M222.19,89.18c-1.96,0-3.53-.52-4.71-1.56-1.18-1.04-1.77-2.69-1.77-4.96v-7.11h-2.65v-3.62h2.65v-5.47l5.05-.84v6.31h4.59v3.62h-4.54v6.44c0,1.18.25,1.98.74,2.4.49.42,1.18.63,2.08.63.39,0,.76-.05,1.12-.15.35-.1.67-.2.95-.32l.67,3.62c-.48.28-1.08.52-1.81.71s-1.51.29-2.36.29Z"/>
      <path class="cls-1" d="M247.47,85.14h1.89v3.62h-9.47v-3.62h2.48v-17.29h-2.65v-3.62h7.74v15.78l6.18-4.46h-2.27v-3.62h8.88v3.62h-2.15l-7.28,5.13,1.6-2.15,6.06,6.61h2.74v3.62h-6.35l-7.41-8.29v4.67Z"/>
      <path class="cls-1" d="M272.04,89.18c-1.85,0-3.47-.39-4.86-1.16-1.39-.77-2.48-1.83-3.26-3.18-.79-1.35-1.18-2.85-1.18-4.5s.39-3.23,1.18-4.54c.79-1.32,1.88-2.36,3.28-3.13,1.4-.77,3.03-1.16,4.88-1.16s3.48.39,4.88,1.16c1.4.77,2.49,1.82,3.26,3.13.77,1.32,1.16,2.83,1.16,4.54s-.39,3.16-1.16,4.5c-.77,1.35-1.86,2.41-3.26,3.18-1.4.77-3.04,1.16-4.92,1.16ZM272.09,85.14c1.32,0,2.38-.45,3.18-1.35.8-.9,1.2-2.06,1.2-3.49s-.4-2.55-1.2-3.43c-.8-.88-1.86-1.33-3.18-1.33s-2.41.44-3.2,1.33c-.79.88-1.18,2.03-1.18,3.43s.4,2.59,1.2,3.49c.8.9,1.86,1.35,3.18,1.35Z"/>
      <path class="cls-1" d="M283.53,88.76v-3.62h2.44v-9.59h-2.65v-3.62h7.32v5.05l-.38-.5c.73-1.71,1.58-2.97,2.55-3.77.97-.8,2-1.2,3.09-1.2.95,0,1.81.25,2.57.76l-1.64,4.8c-.39-.34-.78-.58-1.16-.74-.38-.15-.75-.23-1.11-.23-.76,0-1.44.25-2.04.76-.6.5-1.1,1.21-1.49,2.1v6.19h2.94v3.62h-10.43Z"/>
      <path class="cls-1" d="M307.85,89.18c-1.96,0-3.53-.52-4.71-1.56-1.18-1.04-1.77-2.69-1.77-4.96v-7.11h-2.65v-3.62h2.65v-5.47l5.05-.84v6.31h4.59v3.62h-4.54v6.44c0,1.18.25,1.98.74,2.4.49.42,1.18.63,2.08.63.39,0,.76-.05,1.12-.15.35-.1.67-.2.95-.32l.67,3.62c-.48.28-1.08.52-1.81.71s-1.51.29-2.36.29Z"/>
      <path class="cls-1" d="M325.86,88.76v-3.62h2.44v-9.59h-2.65v-3.62h7.32v2.65l-.55.08c1.07-1.09,2.22-1.89,3.47-2.4s2.52-.76,3.81-.76c1.74,0,3.12.48,4.14,1.43,1.02.95,1.54,2.43,1.54,4.42v7.78h2.23v3.62h-9.72v-3.62h2.44v-6.48c0-1.07-.23-1.83-.69-2.29-.46-.46-1.19-.69-2.17-.69-.76,0-1.52.15-2.29.44-.77.29-1.54.79-2.29,1.49l.46-1.39v8.92h2.27v3.62h-9.76Z"/>
      <path class="cls-1" d="M359.6,89.18c-2.16,0-4-.39-5.51-1.16-1.51-.77-2.66-1.83-3.43-3.18s-1.16-2.86-1.16-4.54.37-3.14,1.11-4.46,1.79-2.37,3.16-3.16c1.36-.79,2.97-1.18,4.82-1.18s3.4.39,4.73,1.18,2.36,1.84,3.09,3.16,1.09,2.81,1.09,4.46v1.68h-15.27v-3.32h10.43c0-.59-.17-1.16-.5-1.73-.34-.56-.81-1.02-1.41-1.39-.6-.36-1.35-.55-2.25-.55s-1.61.19-2.23.57c-.62.38-1.09.87-1.41,1.47-.32.6-.48,1.26-.48,1.96v1.3c0,1.49.46,2.66,1.37,3.51.91.86,2.29,1.28,4.14,1.28,1.09,0,2.13-.17,3.11-.5.98-.34,1.81-.8,2.48-1.39l1.94,3.45c-.9.76-2.04,1.37-3.43,1.83s-2.85.69-4.4.69Z"/>
      <path class="cls-1" d="M377.86,89.18c-1.68,0-3.11-.41-4.27-1.22s-2.05-1.89-2.65-3.24c-.6-1.35-.9-2.82-.9-4.42s.3-3.02.9-4.35c.6-1.33,1.49-2.41,2.65-3.22s2.59-1.22,4.27-1.22c1.15,0,2.26.27,3.34.8,1.08.53,1.93,1.33,2.55,2.4l-.63.08v-6.94h-2.61v-3.62h7.7v20.91h2.36v3.62h-7.07v-3.16l.25.38c-.62,1.07-1.47,1.87-2.55,2.4s-2.2.8-3.34.8ZM379.21,85.06c.73,0,1.46-.15,2.19-.46.73-.31,1.39-.83,1.98-1.56l-.25,1.94v-9.05l.25,1.73c-.59-.76-1.25-1.28-1.98-1.58s-1.46-.44-2.19-.44c-1.18,0-2.17.41-2.99,1.22-.81.81-1.22,1.96-1.22,3.45s.41,2.69,1.22,3.51c.81.83,1.81,1.24,2.99,1.24Z"/>
      <path class="cls-1" d="M398.81,89.18c-2.02,0-3.57-.48-4.65-1.43-1.08-.95-1.62-2.19-1.62-3.7s.57-2.8,1.72-3.7c1.15-.9,2.88-1.35,5.17-1.35.79,0,1.63.07,2.55.21.91.14,1.7.31,2.38.5l-.71.5v-1.64c0-.93-.32-1.64-.97-2.15-.65-.5-1.61-.76-2.9-.76-.95,0-1.89.13-2.8.38-.91.25-1.79.62-2.63,1.09l-1.22-3.79c1.15-.62,2.39-1.08,3.72-1.39,1.33-.31,2.59-.46,3.77-.46,2.69,0,4.72.6,6.08,1.81s2.04,2.97,2.04,5.3v6.52h2.19v3.62h-6.86v-2.78l.76.59c-.79.79-1.7,1.42-2.73,1.89-1.04.48-2.13.72-3.28.72ZM400.2,85.69c.76,0,1.5-.15,2.23-.44.73-.29,1.29-.67,1.68-1.11l-.46,1.35v-3.91l.71,1.18c-.62-.22-1.25-.38-1.89-.46s-1.28-.13-1.89-.13c-.98,0-1.74.15-2.27.46-.53.31-.8.76-.8,1.35s.24.99.72,1.28c.48.29,1.14.44,1.98.44Z"/>
      <path class="cls-1" d="M412.44,88.76v-3.62h2.44v-9.59h-2.65v-3.62h7.32v2.65l-.55.08c1.07-1.09,2.22-1.89,3.47-2.4s2.52-.76,3.81-.76c1.74,0,3.12.48,4.14,1.43,1.02.95,1.54,2.43,1.54,4.42v7.78h2.23v3.62h-9.72v-3.62h2.44v-6.48c0-1.07-.23-1.83-.69-2.29-.46-.46-1.19-.69-2.17-.69-.76,0-1.52.15-2.29.44-.77.29-1.54.79-2.29,1.49l.46-1.39v8.92h2.27v3.62h-9.76Z"/>
      <path class="cls-1" d="M458.05,89.18c-1.85,0-3.47-.39-4.86-1.16-1.39-.77-2.48-1.83-3.26-3.18-.79-1.35-1.18-2.85-1.18-4.5s.39-3.23,1.18-4.54c.79-1.32,1.88-2.36,3.28-3.13,1.4-.77,3.03-1.16,4.88-1.16s3.48.39,4.88,1.16c1.4.77,2.49,1.82,3.26,3.13.77,1.32,1.16,2.83,1.16,4.54s-.39,3.16-1.16,4.5c-.77,1.35-1.86,2.41-3.26,3.18-1.4.77-3.04,1.16-4.92,1.16ZM458.09,85.14c1.32,0,2.38-.45,3.18-1.35.8-.9,1.2-2.06,1.2-3.49s-.4-2.55-1.2-3.43c-.8-.88-1.86-1.33-3.18-1.33s-2.41.44-3.2,1.33c-.79.88-1.18,2.03-1.18,3.43s.4,2.59,1.2,3.49c.8.9,1.86,1.35,3.18,1.35Z"/>
      <path class="cls-1" d="M479.46,89.18c-1.93,0-3.62-.39-5.05-1.16-1.43-.77-2.53-1.84-3.3-3.2-.77-1.36-1.16-2.9-1.16-4.61s.34-3.1,1.03-4.42,1.66-2.36,2.92-3.13c1.26-.77,2.74-1.16,4.42-1.16.84,0,1.64.14,2.4.42.76.28,1.39.69,1.89,1.22s.78,1.15.84,1.85l-.5.04v-3.11h3.58v6.4h-3.2c-.65-1.79-2.01-2.69-4.08-2.69-1.43,0-2.51.43-3.24,1.3-.73.87-1.09,1.99-1.09,3.37s.42,2.52,1.26,3.43c.84.91,2.09,1.37,3.74,1.37.9,0,1.78-.19,2.65-.57.87-.38,1.61-.86,2.23-1.45l2.1,3.41c-.87.84-1.98,1.5-3.34,1.98s-2.73.72-4.1.72Z"/>
      <path class="cls-1" d="M488.47,88.76v-3.62h2.48v-17.29h-2.65v-3.62h7.74v10.35l-.97.08c1.09-1.09,2.26-1.89,3.51-2.4,1.25-.5,2.5-.76,3.77-.76,1.77,0,3.16.48,4.19,1.43,1.02.95,1.54,2.43,1.54,4.42v7.78h2.19v3.62h-9.76v-3.62h2.48v-6.48c0-1.07-.23-1.83-.69-2.29s-1.19-.69-2.17-.69c-.73,0-1.48.15-2.25.44-.77.29-1.55.79-2.33,1.49l.5-1.39v8.92h2.19v3.62h-9.76Z"/>
      <path class="cls-1" d="M532.94,89.18c-1.96,0-3.53-.52-4.71-1.56-1.18-1.04-1.77-2.69-1.77-4.96v-7.11h-2.65v-3.62h2.65v-5.47l5.05-.84v6.31h4.59v3.62h-4.54v6.44c0,1.18.25,1.98.74,2.4.49.42,1.18.63,2.08.63.39,0,.76-.05,1.12-.15.35-.1.67-.2.95-.32l.67,3.62c-.48.28-1.08.52-1.81.71s-1.51.29-2.36.29Z"/>
      <path class="cls-1" d="M545.02,89.18c-2.02,0-3.57-.48-4.65-1.43-1.08-.95-1.62-2.19-1.62-3.7s.57-2.8,1.72-3.7c1.15-.9,2.88-1.35,5.17-1.35.79,0,1.63.07,2.55.21.91.14,1.7.31,2.38.5l-.71.5v-1.64c0-.93-.32-1.64-.97-2.15-.65-.5-1.61-.76-2.9-.76-.95,0-1.89.13-2.8.38-.91.25-1.79.62-2.63,1.09l-1.22-3.79c1.15-.62,2.39-1.08,3.72-1.39,1.33-.31,2.59-.46,3.77-.46,2.69,0,4.72.6,6.08,1.81s2.04,2.97,2.04,5.3v6.52h2.19v3.62h-6.86v-2.78l.76.59c-.79.79-1.7,1.42-2.73,1.89-1.04.48-2.13.72-3.28.72ZM543.71,69.49c-.67,0-1.26-.21-1.77-.63s-.76-1.01-.76-1.77.25-1.39.76-1.81,1.09-.63,1.77-.63,1.26.21,1.75.63c.49.42.74,1.02.74,1.81s-.25,1.35-.74,1.77c-.49.42-1.07.63-1.75.63ZM546.4,85.69c.76,0,1.5-.15,2.23-.44.73-.29,1.29-.67,1.68-1.11l-.46,1.35v-3.91l.71,1.18c-.62-.22-1.25-.38-1.89-.46s-1.28-.13-1.89-.13c-.98,0-1.74.15-2.27.46-.53.31-.8.76-.8,1.35s.24.99.72,1.28c.48.29,1.14.44,1.98.44ZM550.82,69.49c-.67,0-1.26-.2-1.77-.61s-.76-1-.76-1.79.25-1.39.76-1.81,1.09-.63,1.77-.63,1.22.21,1.72.63.76,1.02.76,1.81-.25,1.38-.76,1.79-1.08.61-1.72.61Z"/>
      <path class="cls-1" d="M558.65,88.76v-3.62h2.44v-9.59h-2.65v-3.62h7.32v2.65l-.55.08c1.07-1.09,2.22-1.89,3.47-2.4s2.52-.76,3.81-.76c1.74,0,3.12.48,4.14,1.43,1.02.95,1.54,2.43,1.54,4.42v7.78h2.23v3.62h-9.72v-3.62h2.44v-6.48c0-1.07-.23-1.83-.69-2.29-.46-.46-1.19-.69-2.17-.69-.76,0-1.52.15-2.29.44-.77.29-1.54.79-2.29,1.49l.46-1.39v8.92h2.27v3.62h-9.76Z"/>
      <path class="cls-1" d="M590.12,89.18c-1.68,0-3.11-.41-4.27-1.22s-2.05-1.89-2.65-3.24c-.6-1.35-.9-2.82-.9-4.42s.3-3.02.9-4.35c.6-1.33,1.49-2.41,2.65-3.22s2.59-1.22,4.27-1.22c1.15,0,2.26.27,3.34.8,1.08.53,1.93,1.33,2.55,2.4l-.63.08v-6.94h-2.61v-3.62h7.7v20.91h2.36v3.62h-7.07v-3.16l.25.38c-.62,1.07-1.47,1.87-2.55,2.4s-2.2.8-3.34.8ZM591.46,85.06c.73,0,1.46-.15,2.19-.46.73-.31,1.39-.83,1.98-1.56l-.25,1.94v-9.05l.25,1.73c-.59-.76-1.25-1.28-1.98-1.58s-1.46-.44-2.19-.44c-1.18,0-2.17.41-2.99,1.22-.81.81-1.22,1.96-1.22,3.45s.41,2.69,1.22,3.51c.81.83,1.81,1.24,2.99,1.24Z"/>
      <path class="cls-1" d="M617.59,88.76v-3.91h2.61v-16.7h-2.61v-3.91h9.97l6.14,14.01h-.72l6.14-14.01h10.22v3.91h-2.65v16.7h2.65v3.91h-10.22v-3.91h2.36v-14.09l-6.23,14.47h-3.87l-6.35-14.47v14.09h2.36v3.91h-9.8Z"/>
      <path class="cls-1" d="M661.31,89.18c-1.85,0-3.47-.39-4.86-1.16-1.39-.77-2.48-1.83-3.26-3.18-.79-1.35-1.18-2.85-1.18-4.5s.39-3.23,1.18-4.54c.79-1.32,1.88-2.36,3.28-3.13,1.4-.77,3.03-1.16,4.88-1.16s3.48.39,4.88,1.16c1.4.77,2.49,1.82,3.26,3.13.77,1.32,1.16,2.83,1.16,4.54s-.39,3.16-1.16,4.5c-.77,1.35-1.86,2.41-3.26,3.18-1.4.77-3.04,1.16-4.92,1.16ZM661.35,85.14c1.32,0,2.38-.45,3.18-1.35.8-.9,1.2-2.06,1.2-3.49s-.4-2.55-1.2-3.43c-.8-.88-1.86-1.33-3.18-1.33s-2.41.44-3.2,1.33c-.79.88-1.18,2.03-1.18,3.43s.4,2.59,1.2,3.49c.8.9,1.86,1.35,3.18,1.35Z"/>
      <path class="cls-1" d="M672.79,88.76v-3.62h2.44v-9.59h-2.65v-3.62h7.32v2.65l-.55.08c1.07-1.09,2.22-1.89,3.47-2.4s2.52-.76,3.81-.76c1.74,0,3.12.48,4.14,1.43,1.02.95,1.54,2.43,1.54,4.42v7.78h2.23v3.62h-9.72v-3.62h2.44v-6.48c0-1.07-.23-1.83-.69-2.29-.46-.46-1.19-.69-2.17-.69-.76,0-1.52.15-2.29.44-.77.29-1.54.79-2.29,1.49l.46-1.39v8.92h2.27v3.62h-9.76Z"/>
      <path class="cls-1" d="M704.52,89.18c-1.96,0-3.53-.52-4.71-1.56-1.18-1.04-1.77-2.69-1.77-4.96v-7.11h-2.65v-3.62h2.65v-5.47l5.05-.84v6.31h4.59v3.62h-4.54v6.44c0,1.18.25,1.98.74,2.4.49.42,1.18.63,2.08.63.39,0,.76-.05,1.12-.15.35-.1.67-.2.95-.32l.67,3.62c-.48.28-1.08.52-1.81.71s-1.51.29-2.36.29Z"/>
      <path class="cls-1" d="M720.38,89.18c-2.16,0-4-.39-5.51-1.16-1.51-.77-2.66-1.83-3.43-3.18s-1.16-2.86-1.16-4.54.37-3.14,1.11-4.46,1.79-2.37,3.16-3.16c1.36-.79,2.97-1.18,4.82-1.18s3.4.39,4.73,1.18,2.36,1.84,3.09,3.16,1.09,2.81,1.09,4.46v1.68h-15.27v-3.32h10.43c0-.59-.17-1.16-.5-1.73-.34-.56-.81-1.02-1.41-1.39-.6-.36-1.35-.55-2.25-.55s-1.61.19-2.23.57c-.62.38-1.09.87-1.41,1.47-.32.6-.48,1.26-.48,1.96v1.3c0,1.49.46,2.66,1.37,3.51.91.86,2.29,1.28,4.14,1.28,1.09,0,2.13-.17,3.11-.5.98-.34,1.81-.8,2.48-1.39l1.94,3.45c-.9.76-2.04,1.37-3.43,1.83s-2.85.69-4.4.69Z"/>
      <path class="cls-1" d="M730.39,88.76v-3.62h2.44v-9.59h-2.65v-3.62h7.32v5.05l-.38-.5c.73-1.71,1.58-2.97,2.55-3.77.97-.8,2-1.2,3.09-1.2.95,0,1.81.25,2.57.76l-1.64,4.8c-.39-.34-.78-.58-1.16-.74-.38-.15-.75-.23-1.11-.23-.76,0-1.44.25-2.04.76-.6.5-1.1,1.21-1.49,2.1v6.19h2.94v3.62h-10.43Z"/>
      <path class="cls-1" d="M746.21,88.76v-3.62h2.44v-9.59h-2.65v-3.62h7.32v2.65l-.55.08c1.07-1.09,2.22-1.89,3.47-2.4s2.52-.76,3.81-.76c1.74,0,3.12.48,4.14,1.43,1.02.95,1.54,2.43,1.54,4.42v7.78h2.23v3.62h-9.72v-3.62h2.44v-6.48c0-1.07-.23-1.83-.69-2.29-.46-.46-1.19-.69-2.17-.69-.76,0-1.52.15-2.29.44-.77.29-1.54.79-2.29,1.49l.46-1.39v8.92h2.27v3.62h-9.76Z"/>
      <path class="cls-1" d="M771.88,81.78l-1.73-9.13v-8.42h5.76v8.42l-1.68,9.13h-2.36ZM770.74,88.76v-4.38h4.63v4.38h-4.63Z"/>
    </g>
  </g>
</svg>