<?xml version="1.0" encoding="UTF-8"?>
<svg id="Lager_2" data-name="Lager 2" xmlns="http://www.w3.org/2000/svg" viewBox="0 0 841.72 795.68">
  <defs>
    <style>
      .cls-1 {
        fill: #55c1d2;
      }

      .cls-1, .cls-2, .cls-3, .cls-4, .cls-5, .cls-6, .cls-7 {
        stroke-width: 0px;
      }

      .cls-2 {
        fill: #c7b299;
      }

      .cls-3 {
        fill: #e8ac03;
      }

      .cls-4 {
        fill: #0a88e5;
      }

      .cls-8, .cls-9 {
        fill: none;
      }

      .cls-8, .cls-9, .cls-10 {
        stroke: #ccc;
        stroke-miterlimit: 10;
        stroke-width: 2.08px;
      }

      .cls-5 {
        fill: #f96b1f;
      }

      .cls-9, .cls-10 {
        fill-rule: evenodd;
      }

      .cls-6 {
        fill: #9b9b9b;
      }

      .cls-10 {
        fill: #fff;
      }

      .cls-7 {
        fill: #ff1d25;
      }
    </style>
  </defs>
  <g id="Lager_1-2" data-name="Lager 1">
    <polygon class="cls-10" points="275.68 342.81 275.68 437.46 360.38 437.46 360.38 481.72 272.61 481.72 272.61 794.64 178.13 794.64 178.13 749.53 1.04 749.53 1.04 503.9 169.6 503.9 169.6 1.04 840.68 1.04 840.68 316.77 736.45 316.77 736.45 251.55 506.05 251.55 506.05 172.01 414.38 172.01 405.48 172.01 506.04 171.81 506.04 251.81 462.04 251.81 462.04 309.81 362.04 309.81 362.04 180.81 388.04 180.81 387.58 172.01 275.68 172.01 276.04 180.81 362.04 180.81 362.04 229.81 275.68 229.81 275.68 316.81 283.04 316.81 275.68 342.81"/>
    <polyline class="cls-9" points="169.6 85.15 237.25 85.15 237.25 251.55 168.99 251.55"/>
    <polyline class="cls-9" points="170.21 361.88 236.64 361.88 236.64 576.43 169.36 576.43 169.36 503.9"/>
    <polyline class="cls-9" points="272 604.47 168.38 604.47 168.38 658.72 272 658.72"/>
    <polygon class="cls-9" points="265.9 84.55 360.38 84.55 360.38 146.72 266.51 146.72 265.9 84.55"/>
    <rect class="cls-8" x="454.85" y="97.95" width="102.4" height="48.76"/>
    <polyline class="cls-9" points="840.41 145.5 794.97 145.5 794.97 85.15 643.2 85.15 643.2 151.59"/>
    <line class="cls-8" x1="794.97" y1="145.5" x2="642.59" y2="145.5"/>
    <line class="cls-8" x1="643.64" y1="250.94" x2="643.64" y2="170.49"/>
    <line class="cls-8" x1="168.38" y1="525.23" x2="236.03" y2="525.23"/>
    <line class="cls-8" x1="168.38" y1="469.39" x2="236.03" y2="469.39"/>
    <line class="cls-8" x1="168.38" y1="414.92" x2="236.03" y2="414.92"/>
    <line class="cls-8" x1="359.77" y1=".43" x2="359.77" y2="67.48"/>
    <line class="cls-8" x1="546.19" y1=".43" x2="546.19" y2="67.48"/>
    <line class="cls-8" x1="642.5" y1=".43" x2="642.5" y2="67.48"/>
    <line class="cls-8" x1="301.86" y1="84.99" x2="301.86" y2="147.33"/>
    <polyline class="cls-9" points="266.15 118.07 301.86 118.07 359.77 118.07"/>
    <line class="cls-8" x1="237.25" y1="125.99" x2="170.21" y2="125.99"/>
    <line class="cls-8" x1="237.25" y1="152.81" x2="170.21" y2="152.81"/>
    <g>
      <path class="cls-6" d="M286.12,335.15h1.56v-9.74h-1.56v-1.36h9.04v2.9h-1.54v-1.45h-4.17v4.01h4.42v1.45h-4.42v4.12h4.47v-1.5h1.54v2.95h-9.34v-1.38Z"/>
      <path class="cls-6" d="M297.21,335.21h1.4v-5.91c0-.27-.14-.39-.39-.39h-1.1v-1.33h2.02c.78,0,1.13.34,1.13.99v.46c0,.28-.05.51-.05.51h.04c.18-.48,1.22-2.18,3.48-2.18,2.05,0,2.97,1.15,2.97,3.43v4.4h1.42v1.33h-3.13v-5.34c0-1.26-.25-2.25-1.68-2.25-1.8,0-2.99,1.64-2.99,3.43v2.83h1.41v1.33h-4.53v-1.33Z"/>
      <path class="cls-6" d="M310.24,328.91h-1.5v-1.33h1.54v-2.46h1.68v2.46h2.14v1.33h-2.14v4.19c0,1.82,1.24,2.05,1.91,2.05.25,0,.41-.02.41-.02v1.43s-.25.04-.62.04c-1.13,0-3.41-.35-3.41-3.34v-4.35Z"/>
      <path class="cls-6" d="M315.66,335.21h1.34v-5.91c0-.27-.14-.39-.39-.39h-1.11v-1.33h2.02c.78,0,1.15.32,1.15,1.04v.57c0,.35-.04.62-.04.62h.04c.41-1.31,1.45-2.33,2.83-2.33.23,0,.44.04.44.04v1.7s-.21-.05-.5-.05c-1.91,0-2.72,1.93-2.72,3.68v2.37h1.33v1.33h-4.39v-1.33Z"/>
      <path class="cls-6" d="M327.46,327.37c2.55,0,3.87,1.87,3.87,4.19,0,.23-.05.65-.05.65h-6.54c.11,1.98,1.5,3.04,3.09,3.04s2.67-1.01,2.67-1.01l.71,1.26s-1.34,1.24-3.48,1.24c-2.81,0-4.74-2.03-4.74-4.69,0-2.85,1.93-4.69,4.47-4.69ZM329.56,331.12c-.05-1.57-1.01-2.39-2.14-2.39-1.31,0-2.37.88-2.62,2.39h4.76ZM328.23,324.05h1.96l-2.19,2.25h-1.61l1.84-2.25Z"/>
    </g>
    <g>
      <path class="cls-6" d="M283.4,452.86h3.31v1.01h-1.11l1.45,6.1c.07.33.11.7.11.7h.04s.05-.37.13-.7l1.95-7.12h1.12l1.94,7.12c.09.33.13.7.13.7h.05s.03-.37.09-.7l1.45-6.1h-1.11v-1.01h3.32v1.01h-.9l-2.08,8.29h-1.5l-1.82-6.61c-.09-.33-.12-.74-.12-.74h-.05s-.03.41-.12.74l-1.82,6.61h-1.5l-2.07-8.29h-.9v-1.01Z"/>
      <path class="cls-6" d="M301.73,452.7c1.12,0,3.55.41,3.55,1.85v1.13h-1.23v-.72c0-.82-1.41-1.12-2.27-1.12-1.99,0-3.45,1.46-3.45,3.57s1.5,3.77,3.53,3.77c.66,0,2.32-.24,2.32-1.09v-.73h1.23v1.13c0,1.37-2.33,1.83-3.62,1.83-2.79,0-4.81-2.15-4.81-4.87s2.07-4.76,4.76-4.76Z"/>
    </g>
    <g>
      <path class="cls-6" d="M283.4,201.86h3.31v1.02h-1.11l1.45,6.1c.07.33.11.7.11.7h.04s.05-.37.13-.7l1.95-7.12h1.12l1.94,7.12c.09.33.13.7.13.7h.05s.03-.37.09-.7l1.45-6.1h-1.11v-1.02h3.32v1.02h-.9l-2.08,8.29h-1.5l-1.82-6.6c-.09-.33-.12-.74-.12-.74h-.05s-.03.41-.12.74l-1.82,6.6h-1.5l-2.07-8.29h-.9v-1.02Z"/>
      <path class="cls-6" d="M301.73,201.7c1.12,0,3.55.41,3.55,1.85v1.13h-1.23v-.73c0-.82-1.41-1.12-2.27-1.12-1.99,0-3.45,1.46-3.45,3.57s1.5,3.77,3.53,3.77c.66,0,2.32-.24,2.32-1.09v-.73h1.23v1.13c0,1.37-2.33,1.83-3.62,1.83-2.79,0-4.81-2.15-4.81-4.86s2.07-4.76,4.76-4.76Z"/>
    </g>
    <path class="cls-4" d="M250.33,39.24l6.39-9.32h3.18v8.87h1.89v2.1h-1.89v3.81h-2.66v-3.81h-6.91v-1.64ZM253.12,38.74v.04h4.12v-4.93c0-.31.02-.58.06-.83l.06-.44h-.06l-.17.38c-.1.23-.25.48-.42.75l-3.6,5.04Z"/>
    <path class="cls-4" d="M73.83,531.45h9.32v1.89l-3.48,4.12c1.89.27,3.81,1.62,3.81,4.16s-1.87,4.85-5.27,4.85c-1.58,0-2.79-.5-3.62-1-.48-.29-.92-.62-1.27-.98l1.33-1.92c.27.27.6.52.96.75.6.4,1.46.75,2.43.75,1.56,0,2.66-1,2.66-2.35,0-1.48-1.21-2.33-2.89-2.33-.33,0-.65.04-.81.04l-.6-1.31,3.21-3.91c.15-.17.29-.31.42-.42l.21-.19v-.04c-.1,0-.19,0-.29.02-.17.02-.35.04-.54.04h-3.25v1.75h-2.33v-3.93Z"/>
    <path class="cls-4" d="M68.56,721.16c-.08-.48-.15-.89-.15-1.31,0-5.33,7.08-6.04,7.08-9.22,0-1.42-1-2.1-2.25-2.1-.85,0-1.56.44-2.04.92-.27.27-.52.58-.75.94l-1.87-1.29c.29-.54.67-1.04,1.12-1.48.81-.75,2-1.48,3.77-1.48,2.6,0,4.83,1.6,4.83,4.37,0,4.6-6.85,5.41-6.93,8.47h5.1v-1.87h2.33v4.06h-10.24Z"/>
    <path class="cls-4" d="M217.88,761.26h3.23v-8.33c0-.25.02-.5.02-.69v-.31h-.04l-.15.23c-.1.15-.25.35-.5.6l-1.19,1.12-1.58-1.67,3.7-3.56h2.35v12.59h3.18v2.19h-9.03v-2.19Z"/>
    <path class="cls-3" d="M210.91,648.01h1.04l3.4-9.76h2.38l3.4,9.76h1.04v1.56h-4.26v-1.56h1.12l-.7-2.12h-3.57l-.7,2.12h1.12v1.56h-4.24v-1.56ZM217.83,644.26l-1.07-3.21-.17-.7c-.02-.11-.03-.21-.03-.29h-.05l-.05.29c-.05.18-.08.4-.16.7l-1.08,3.21h2.61Z"/>
    <path class="cls-3" d="M178.77,648.01h1.36v-8.18h-1.36v-1.58h5.2c.85,0,1.44.06,2.03.3,1.02.4,1.72,1.34,1.72,2.62,0,1.07-.49,1.96-1.39,2.42v.03c1.26.38,1.83,1.48,1.83,2.68,0,1.58-1.02,2.69-2.25,3.08-.56.18-1.07.19-1.69.19h-5.45v-1.56ZM184.21,642.87c.89,0,1.39-.61,1.39-1.48,0-.56-.21-1.05-.65-1.29-.24-.11-.57-.18-.97-.18h-1.75v2.95h1.99ZM184.32,647.9c.27,0,.57-.02.81-.13.57-.24.91-.88.91-1.59,0-.97-.61-1.64-1.64-1.64h-2.18v3.37h2.11Z"/>
    <path class="cls-3" d="M184.05,610.02c1.37,0,4.42.48,4.42,2.26v1.53h-1.9v-.88c0-.84-1.48-1.13-2.42-1.13-2.17,0-3.78,1.55-3.78,3.92,0,2.54,1.66,4.21,3.89,4.21.69,0,2.46-.22,2.46-1.12v-.88h1.9v1.55c0,1.69-2.9,2.23-4.48,2.23-3.44,0-5.92-2.58-5.92-5.9s2.55-5.8,5.84-5.8Z"/>
    <path class="cls-3" d="M211.71,619.97h1.36v-8.18h-1.36v-1.58h4.9c.91,0,1.61.03,2.36.27,2.22.64,3.67,2.61,3.67,5.39s-1.34,4.61-3.51,5.33c-.77.27-1.55.33-2.5.33h-4.91v-1.56ZM216.52,619.86c.72,0,1.29-.05,1.85-.29,1.29-.53,2.1-1.83,2.1-3.7s-.85-3.22-2.18-3.73c-.57-.24-1.08-.26-1.77-.26h-1.37v7.97h1.37Z"/>
    <path class="cls-3" d="M248.79,619.97h1.36v-8.18h-1.36v-1.58h8.4v2.92h-1.79v-1.24h-3.17v3.11h3.73v1.67h-3.73v3.19h3.41v-1.28h1.79v2.95h-8.64v-1.56Z"/>
    <path class="cls-3" d="M199.23,557.8h1.36v-8.18h-1.36v-1.58h8.08v2.93h-1.79v-1.16h-2.85v3.25h3.68v1.67h-3.68v3.06h1.5v1.56h-4.94v-1.56Z"/>
    <path class="cls-3" d="M203.66,491.16c2.03,0,4.43.78,4.43,2.23v1.56h-1.9v-.83c0-.78-1.23-1.18-2.44-1.18-2.41,0-3.91,1.53-3.91,3.94s1.5,4.19,4,4.19c.91,0,2.6-.24,2.6-1.18v-1.21h-2.06v-1.56h3.96v3.41c0,1.72-3.03,2.33-4.7,2.33-3.48,0-5.96-2.52-5.96-5.9s2.46-5.8,5.98-5.8Z"/>
    <path class="cls-3" d="M197.1,445.65h1.36v-8.18h-1.36v-1.58h4.82v1.58h-1.37v3.27h5.15v-3.27h-1.37v-1.58h4.82v1.58h-1.36v8.18h1.36v1.56h-4.82v-1.56h1.37v-3.24h-5.15v3.24h1.37v1.56h-4.82v-1.56Z"/>
    <path class="cls-3" d="M200.7,393.84h1.36v-8.18h-1.36v-1.58h4.82v1.58h-1.37v8.18h1.37v1.56h-4.82v-1.56Z"/>
    <path class="cls-3" d="M198.92,209.15h2.01v.61c0,.91.35,1.75,1.43,1.75.78,0,1.39-.49,1.39-1.75v-6.35h-1.56v-1.58h4.85v1.58h-1.2v6.43c0,2.42-1.77,3.51-3.49,3.51s-3.43-.99-3.43-3.41v-.78Z"/>
    <path class="cls-3" d="M198.22,107.36h1.36v-8.18h-1.36v-1.58h4.53v1.58h-1.08v3.08h1.26l2.15-3.08h-.97v-1.58h4.15v1.58h-1.02l-2.73,3.75v.03c.08.05.16.1.24.18.14.13.32.33.49.67l1.74,3.16c.14.27.38.4.75.4h.53v1.56h-1.45c-.94,0-1.26-.26-1.59-.85l-1.98-3.73c-.17-.3-.4-.41-.84-.41h-.72v3.43h1.31v1.56h-4.75v-1.56Z"/>
    <path class="cls-3" d="M281.93,105.53h1.36v-8.08h-1.36v-1.67h4.82v1.67h-1.37v7.97h3.35v-1.75h1.79v3.43h-8.58v-1.56Z"/>
    <path class="cls-3" d="M278.88,135.4h1.34l.67-8.18h-1.37v-1.58h3.68l2.52,6.39c.11.27.16.51.21.69l.06.26h.03l.06-.26c.05-.18.11-.41.22-.69l2.5-6.39h3.68v1.58h-1.36l.65,8.18h1.34v1.56h-4.64v-1.56h1.26l-.41-5.71c-.02-.21,0-.46.02-.67l.03-.38h-.05c-.02.11-.05.24-.08.35-.05.21-.11.46-.19.65l-2.17,5.21h-1.79l-2.17-5.21c-.06-.19-.13-.45-.17-.65-.03-.11-.06-.24-.08-.35h-.06l.03.38c.02.21.03.46.02.67l-.42,5.71h1.28v1.56h-4.66v-1.56Z"/>
    <path class="cls-3" d="M328.68,95.58c3.35,0,5.87,2.54,5.87,5.77s-2.52,5.93-5.87,5.93-5.87-2.6-5.87-5.93,2.52-5.77,5.87-5.77ZM328.68,105.45c2.04,0,3.71-1.75,3.71-4.1s-1.67-3.94-3.71-3.94-3.72,1.71-3.72,3.94c0,2.34,1.67,4.1,3.72,4.1Z"/>
    <path class="cls-3" d="M322.72,135.4h1.36v-8.18h-1.36v-1.58h3.44l4.77,7.29c.11.18.21.43.29.62l.13.33h.05l-.03-.38c-.02-.24-.03-.48-.03-.69v-5.6h-1.4v-1.58h4.85v1.58h-1.35v9.74h-2.09l-4.77-7.26c-.11-.19-.21-.43-.29-.62l-.13-.33h-.06l.05.37c.02.21.05.48.03.69v5.6h1.4v1.56h-4.85v-1.56Z"/>
    <path class="cls-3" d="M475.53,126.87h1.36v-8.18h-1.36v-1.58h4.99c.83,0,1.51.05,2.15.24,1.28.43,2.09,1.44,2.09,3.03s-.81,2.69-2.14,3.14v.03l.19.14c.11.11.26.24.37.45l1.31,2.36c.17.3.38.37.77.37h.37v1.56h-1.32c-.92,0-1.23-.19-1.58-.85l-1.61-2.92c-.24-.43-.45-.57-1.1-.57h-1.04v2.77h1.31v1.56h-4.75v-1.56ZM480.86,122.42c1.1,0,1.82-.65,1.82-1.87,0-.75-.27-1.31-.89-1.56-.3-.14-.73-.21-1.28-.21h-1.53v3.64h1.88Z"/>
    <path class="cls-3" d="M531.4,123.56v.84c0,.72.92,1.16,1.99,1.16,1.15,0,1.96-.49,1.96-1.4,0-1.13-1.29-1.52-2.6-2.03-1.51-.59-3-1.24-3-3.28,0-2.28,1.83-3.16,3.79-3.16,1.79,0,3.59.67,3.59,1.99v1.48h-1.9v-.77c0-.57-.85-.88-1.69-.88-.92,0-1.69.38-1.69,1.24,0,1.05,1.07,1.39,2.23,1.85,1.71.59,3.38,1.29,3.38,3.4,0,2.31-1.95,3.38-4.08,3.38-1.88,0-3.89-.85-3.89-2.55v-1.29h1.9Z"/>
    <path class="cls-3" d="M668.82,118.33h1.36v-8.08h-2.14v1.71h-1.77v-3.38h9.92v3.38h-1.77v-1.71h-2.15v8.08h1.37v1.56h-4.82v-1.56Z"/>
    <path class="cls-3" d="M720.27,93.7h-1.36v-1.58h4.82v1.58h-1.37v5.49c0,.64.14,1.21.38,1.61.4.64,1.18,1,2.14,1s1.69-.33,2.12-1.02c.25-.43.38-.97.38-1.61v-5.47h-1.35v-1.58h4.8v1.58h-1.36v5.49c0,1.1-.3,2.12-.83,2.84-.83,1.08-2.23,1.61-3.76,1.61-1.61,0-2.98-.57-3.76-1.59-.59-.75-.84-1.71-.84-2.85v-5.49Z"/>
    <path class="cls-3" d="M765.44,93.7h-1.04v-1.58h4.42v1.58h-1.2l2.12,6.46c.08.24.1.49.14.69l.05.33h.06l.05-.33c.05-.19.08-.45.16-.69l2.1-6.46h-1.18v-1.58h4.42v1.58h-1.05l-3.44,9.74h-2.17l-3.44-9.74Z"/>
    <path class="cls-4" d="M438.02,38.04c0-4.1,2.23-8.37,6.91-8.37.9,0,1.62.15,2.14.31.31.1.58.21.81.31l-.77,2.25c-.19-.1-.37-.19-.6-.25-.4-.15-.92-.23-1.5-.23-2.33,0-3.58,1.98-3.98,4.04h.04c.56-.65,1.73-1.04,2.91-1.04,2.87,0,4.77,2.27,4.77,4.89s-2.1,5-5.04,5c-3.16,0-5.7-2.56-5.7-6.91ZM443.7,42.55c1.42,0,2.29-1.06,2.29-2.62,0-1.44-.89-2.69-2.89-2.69-1.33,0-2.29.77-2.29,1.87,0,1.54,1.23,3.43,2.89,3.43Z"/>
    <path class="cls-4" d="M595.22,32.89c.15-.27.25-.46.35-.6l.15-.21v-.04c-.08,0-.17,0-.27.02-.17.02-.42.04-.69.04h-4.2v1.75h-2.31v-3.93h10.34v1.87l-6.47,12.9h-2.79l5.89-11.8Z"/>
    <g>
      <path class="cls-4" d="M582.52,126.24h3.23v-8.33c0-.25.02-.5.02-.69v-.31h-.04l-.15.23c-.1.15-.25.35-.5.6l-1.19,1.12-1.58-1.67,3.71-3.56h2.35v12.59h3.18v2.19h-9.03v-2.19Z"/>
      <path class="cls-4" d="M593.11,121.02c0-4.25,1.31-7.62,5.37-7.62s5.35,3.37,5.35,7.62-1.31,7.66-5.35,7.66-5.37-3.41-5.37-7.66ZM601.08,121.02c0-2.91-.58-5.22-2.6-5.22s-2.6,2.31-2.6,5.22.56,5.27,2.6,5.27,2.6-2.31,2.6-5.27Z"/>
    </g>
    <g>
      <path class="cls-4" d="M560.58,214.63h3.23v-8.33c0-.25.02-.5.02-.69v-.31h-.04l-.15.23c-.1.15-.25.35-.5.6l-1.19,1.12-1.58-1.67,3.7-3.56h2.35v12.59h3.18v2.19h-9.03v-2.19Z"/>
      <path class="cls-4" d="M571.09,214.63h3.23v-8.33c0-.25.02-.5.02-.69v-.31h-.04l-.15.23c-.1.15-.25.35-.5.6l-1.19,1.12-1.58-1.67,3.7-3.56h2.35v12.59h3.18v2.19h-9.03v-2.19Z"/>
    </g>
    <path class="cls-4" d="M720.05,36.87c-1-.73-1.71-1.62-1.71-2.96,0-2,1.52-4.02,4.72-4.02,2.81,0,4.87,1.56,4.87,4,0,1.87-1.33,3.37-1.67,3.7,1.17.73,2.02,1.71,2.02,3.21,0,2.23-1.91,4.37-5.22,4.37s-5.31-2.02-5.31-4.43c0-2.19,1.81-3.56,2.29-3.87ZM723.06,42.84c1.35,0,2.5-.85,2.5-2.08,0-1.39-1.6-1.87-3.71-2.81-.4.33-1.42,1.17-1.42,2.5,0,1.42,1.19,2.39,2.62,2.39ZM724.33,36.66c.27-.31,1-1.25,1-2.46,0-1.27-.89-1.98-2.25-1.98s-2.1.75-2.1,1.73c0,1.46,1.58,1.94,3.35,2.71Z"/>
    <path class="cls-4" d="M815.85,90.24c3.16,0,5.7,2.58,5.7,6.91,0,4.02-2.18,8.37-6.93,8.37-.89,0-1.62-.15-2.14-.31-.31-.1-.58-.21-.83-.31l.77-2.25c.19.08.4.17.62.23.4.15.92.25,1.5.25,2.37,0,3.62-1.98,4-4.06h-.04c-.56.6-1.73,1.02-2.91,1.02-2.87,0-4.77-2.27-4.77-4.85,0-2.75,2.1-5,5.04-5ZM816.39,97.88c1.29,0,2.37-.77,2.37-1.89,0-1.62-1.33-3.35-2.91-3.35-1.39,0-2.27,1.12-2.27,2.6s.92,2.64,2.81,2.64Z"/>
    <path class="cls-4" d="M402.81,123.63c.25.27.54.5.9.71.58.35,1.42.73,2.39.73,1.6,0,2.91-1.06,2.91-2.56s-1.08-2.56-3-2.56c-.73,0-1.33.17-1.75.33-.25.1-.46.21-.65.33l-1.5-.56.69-7.62h8.03v3.93h-2.33v-1.75h-3.37l-.29,2.89c0,.12-.02.25-.04.4l-.04.19h.04c.12-.06.27-.1.46-.17.31-.08.77-.17,1.33-.17,3.18,0,5.16,2.08,5.16,4.68,0,2.83-2.27,5.02-5.5,5.02-1.56,0-2.71-.48-3.52-.96-.48-.27-.87-.58-1.23-.94l1.29-1.94Z"/>
    <g>
      <path class="cls-6" d="M726.77,223.64h1.16v-7.2h-1.16v-1.08h3.65v1.08h-1.17v7.15h3.24v-1.5h1.16v2.58h-6.88v-1.03Z"/>
      <path class="cls-6" d="M734.16,223.64h.9l2.97-8.28h1.49l2.97,8.28h.9v1.03h-3.23v-1.03h.99l-.73-2.07h-3.29l-.73,2.07h1v1.03h-3.23v-1.03ZM740.08,220.52l-1.13-3.23c-.13-.38-.16-.71-.16-.71h-.04s-.04.33-.16.71l-1.15,3.23h2.64Z"/>
      <path class="cls-6" d="M744.22,223.64h1.16v-7.26h-1.16v-1.02h4.23c.67,0,1.17.07,1.63.28.74.33,1.28,1.09,1.28,2.1,0,.91-.45,1.63-1.17,2v.03c1,.29,1.54,1.2,1.54,2.25,0,1.23-.75,2.15-1.71,2.48-.45.15-.88.17-1.4.17h-4.4v-1.03ZM748.65,219.28c.84,0,1.37-.58,1.37-1.42,0-.54-.21-1-.61-1.23-.26-.13-.57-.18-.96-.18h-1.75v2.83h1.95ZM748.68,223.59c.26,0,.58-.03.83-.13.54-.22.88-.8.88-1.5,0-.96-.63-1.6-1.61-1.6h-2.08v3.23h1.98Z"/>
      <path class="cls-6" d="M753.18,223.64h1.16v-7.26h-1.16v-1.02h4.23c.67,0,1.17.07,1.63.28.74.33,1.28,1.09,1.28,2.1,0,.91-.45,1.63-1.17,2v.03c1,.29,1.54,1.2,1.54,2.25,0,1.23-.75,2.15-1.71,2.48-.45.15-.88.17-1.4.17h-4.4v-1.03ZM757.61,219.28c.84,0,1.37-.58,1.37-1.42,0-.54-.21-1-.61-1.23-.26-.13-.57-.18-.96-.18h-1.75v2.83h1.95ZM757.63,223.59c.26,0,.58-.03.83-.13.54-.22.88-.8.88-1.5,0-.96-.63-1.6-1.61-1.6h-2.08v3.23h1.98Z"/>
    </g>
    <g>
      <path class="cls-6" d="M402.91,235.66h1.16v-7.26h-1.16v-1.02h3.49v1.02h-1.01v2.93h1.2l2.03-2.93h-.86v-1.02h3.15v1.02h-.9l-2.41,3.36v.03s.26.12.53.62l1.67,2.91c.14.25.33.34.66.34h.43v1.03h-.94c-.78,0-1-.18-1.29-.7l-1.79-3.22c-.16-.26-.34-.37-.73-.37h-.76v3.26h1.15v1.03h-3.62v-1.03Z"/>
      <path class="cls-6" d="M416.43,227.22c2.69,0,4.79,2.07,4.79,4.75s-2.1,4.88-4.79,4.88-4.79-2.14-4.79-4.88,2.08-4.75,4.79-4.75ZM416.43,235.67c1.89,0,3.42-1.61,3.42-3.7s-1.53-3.59-3.42-3.59-3.43,1.56-3.43,3.59,1.53,3.7,3.43,3.7ZM414.54,225.06h1.13v1.33h-1.13v-1.33ZM417.18,225.06h1.13v1.33h-1.13v-1.33Z"/>
      <path class="cls-6" d="M422.45,235.66h1.16v-7.26h-1.16v-1.02h3.49v1.02h-1.01v2.93h1.2l2.03-2.93h-.86v-1.02h3.15v1.02h-.9l-2.41,3.36v.03s.26.12.53.62l1.67,2.91c.14.25.33.34.66.34h.43v1.03h-.94c-.78,0-1-.18-1.29-.7l-1.79-3.22c-.16-.26-.34-.37-.73-.37h-.76v3.26h1.15v1.03h-3.62v-1.03Z"/>
      <path class="cls-6" d="M434.77,226.88h1.13l-3.36,10.36h-1.13l3.36-10.36Z"/>
      <path class="cls-6" d="M437.16,235.66h1.16v-7.26h-1.16v-1.02h4.23c.67,0,1.17.07,1.63.28.74.33,1.28,1.09,1.28,2.1,0,.91-.45,1.63-1.17,2v.03c1,.29,1.54,1.2,1.54,2.25,0,1.23-.75,2.15-1.71,2.48-.45.15-.88.17-1.4.17h-4.4v-1.03ZM441.59,231.29c.84,0,1.37-.58,1.37-1.42,0-.54-.21-1-.61-1.23-.26-.13-.57-.18-.96-.18h-1.75v2.83h1.95ZM441.61,235.6c.26,0,.58-.03.83-.13.54-.22.88-.8.88-1.5,0-.96-.63-1.6-1.61-1.6h-2.08v3.23h1.98Z"/>
      <path class="cls-6" d="M445.5,235.66h.9l2.97-8.28h1.49l2.97,8.28h.9v1.03h-3.23v-1.03h.99l-.72-2.07h-3.3l-.72,2.07h1v1.03h-3.23v-1.03ZM451.42,232.53l-1.13-3.23c-.13-.38-.16-.71-.16-.71h-.04s-.04.33-.16.71l-1.15,3.23h2.64Z"/>
      <path class="cls-6" d="M455.55,235.66h1.16v-7.26h-1.16v-1.02h4.04c.66,0,1.2.03,1.71.2.98.33,1.62,1.15,1.62,2.41,0,1.34-.74,2.31-1.92,2.61v.03s.24.13.4.44l1.32,2.29c.15.25.32.3.65.3h.28v1.03h-.79c-.79,0-.98-.15-1.29-.7l-1.44-2.54c-.24-.4-.41-.51-.98-.51h-1.11v2.73h1.15v1.03h-3.63v-1.03ZM459.9,231.85c1.01,0,1.69-.66,1.69-1.75,0-.73-.29-1.23-.87-1.46-.3-.12-.7-.17-1.15-.17h-1.54v3.39h1.87Z"/>
    </g>
    <rect class="cls-8" x="68.41" y="601.42" width="10.97" height="10.36"/>
    <rect class="cls-8" x="68.41" y="646.53" width="10.97" height="10.36"/>
    <polyline class="cls-9" points="699.27 86.37 699.27 105.88 699.27 146.11"/>
    <line class="cls-8" x1="699.27" y1="113.19" x2="793.75" y2="113.19"/>
    <line class="cls-8" x1="742.55" y1="112.58" x2="742.55" y2="85.76"/>
    <line class="cls-8" x1="167.77" y1="629.46" x2="272" y2="629.46"/>
    <line class="cls-8" x1="200.07" y1="604.91" x2="200.07" y2="658.11"/>
    <line class="cls-8" x1="234.81" y1="658.11" x2="234.81" y2="605.08"/>
    <line class="cls-8" x1="507.27" y1="97.95" x2="507.27" y2="147.33"/>
    <path class="cls-5" d="M730.42,208.63v-3.73h9.31v-3.73c-2.58,0-4.77-.91-6.59-2.72s-2.72-4.01-2.72-6.59c0-1.89.52-3.62,1.56-5.17s2.44-2.69,4.21-3.4c.25-1.06.8-1.91,1.65-2.56s1.82-.98,2.91-.98l-1.02-2.89,1.77-.65-.65-1.68,3.54-1.3.56,1.77,1.77-.65,5.12,13.97-1.77.65.65,1.77-3.54,1.3-.56-1.77-1.77.65-1.12-3.07c-.47.43-1,.76-1.61.98s-1.22.29-1.84.23c-.68-.06-1.32-.27-1.91-.63s-1.1-.8-1.54-1.33c-.84.5-1.5,1.16-1.98,2s-.72,1.75-.72,2.75c0,1.55.54,2.87,1.63,3.96,1.09,1.09,2.41,1.63,3.96,1.63h14.9v3.73h-9.31v3.73h11.18v3.73h-26.08ZM746.53,187.3l1.68-.65-3.17-8.76-1.77.65,3.26,8.76ZM740.67,186.27c.53,0,.97-.18,1.33-.54s.54-.8.54-1.33-.18-.97-.54-1.33-.8-.54-1.33-.54-.97.18-1.33.54-.54.8-.54,1.33.18.97.54,1.33.8.54,1.33.54Z"/>
    <path class="cls-2" d="M428.61,213.37h1.81v-7.23c.75,0,1.39-.26,1.92-.79s.79-1.17.79-1.92v-5.42h-1.81v5.42h-.9v-5.42h-1.81v5.42h-.9v-5.42h-1.81v5.42c0,.75.26,1.39.79,1.92s1.17.79,1.92.79v7.23ZM435.84,213.37h1.81v-15.36c-.99,0-1.84.35-2.55,1.06s-1.06,1.56-1.06,2.55v5.42h1.81v6.33ZM417.77,218.79v-21.69l14.46-10.84,14.46,10.84v21.69h-28.92ZM421.38,215.18h21.69v-16.27l-10.84-8.13-10.84,8.13v16.27Z"/>
    <path class="cls-1" d="M323.06,218.19v-9.74h-1.95v-7.14c0-.71.25-1.33.76-1.83s1.12-.76,1.83-.76h3.9c.71,0,1.33.25,1.83.76s.76,1.12.76,1.83v7.14h-1.95v9.74h-5.2ZM325.66,197.4c-.71,0-1.33-.25-1.83-.76-.51-.51-.76-1.12-.76-1.83s.25-1.33.76-1.83c.51-.51,1.12-.76,1.83-.76s1.33.25,1.83.76.76,1.12.76,1.83-.25,1.33-.76,1.83-1.12.76-1.83.76ZM335.4,218.19v-7.79h-3.9l3.31-9.94c.17-.56.49-1,.96-1.3s.99-.45,1.58-.45,1.11.15,1.58.45.78.74.96,1.3l3.31,9.94h-3.9v7.79h-3.9ZM337.35,197.4c-.71,0-1.33-.25-1.83-.76s-.76-1.12-.76-1.83.25-1.33.76-1.83,1.12-.76,1.83-.76,1.33.25,1.83.76.76,1.12.76,1.83-.25,1.33-.76,1.83-1.12.76-1.83.76Z"/>
    <path class="cls-1" d="M323.06,470.19v-9.74h-1.95v-7.14c0-.71.25-1.33.76-1.83s1.12-.76,1.83-.76h3.9c.71,0,1.33.25,1.83.76s.76,1.12.76,1.83v7.14h-1.95v9.74h-5.2ZM325.66,449.4c-.71,0-1.33-.25-1.83-.76-.51-.51-.76-1.12-.76-1.83s.25-1.33.76-1.83c.51-.51,1.12-.76,1.83-.76s1.33.25,1.83.76.76,1.12.76,1.83-.25,1.33-.76,1.83-1.12.76-1.83.76ZM335.4,470.19v-7.79h-3.9l3.31-9.94c.17-.56.49-1,.96-1.3s.99-.45,1.58-.45,1.11.15,1.58.45.78.74.96,1.3l3.31,9.94h-3.9v7.79h-3.9ZM337.35,449.4c-.71,0-1.33-.25-1.83-.76s-.76-1.12-.76-1.83.25-1.33.76-1.83,1.12-.76,1.83-.76,1.33.25,1.83.76.76,1.12.76,1.83-.25,1.33-.76,1.83-1.12.76-1.83.76Z"/>
    <path class="cls-7" d="M266.86,306.34v-2.65c-2.76-.31-5.13-1.45-7.1-3.43-1.98-1.98-3.12-4.34-3.43-7.1h-2.65v-2.65h2.65c.31-2.76,1.45-5.13,3.43-7.1,1.98-1.98,4.34-3.12,7.1-3.43v-2.65h2.65v2.65c2.76.31,5.13,1.45,7.1,3.43s3.12,4.34,3.43,7.1h2.65v2.65h-2.65c-.31,2.76-1.45,5.13-3.43,7.1-1.98,1.98-4.34,3.12-7.1,3.43v2.65h-2.65ZM268.19,301.11c2.56,0,4.75-.9,6.56-2.71,1.81-1.81,2.71-4,2.71-6.56s-.9-4.75-2.71-6.56c-1.81-1.81-4-2.71-6.56-2.71s-4.75.9-6.56,2.71c-1.81,1.81-2.71,4-2.71,6.56s.9,4.75,2.71,6.56c1.81,1.81,4,2.71,6.56,2.71ZM268.19,297.13c-1.46,0-2.7-.52-3.74-1.56s-1.56-2.28-1.56-3.74.52-2.7,1.56-3.74,2.28-1.56,3.74-1.56,2.7.52,3.74,1.56,1.56,2.28,1.56,3.74-.52,2.7-1.56,3.74-2.28,1.56-3.74,1.56ZM268.19,294.48c.73,0,1.35-.26,1.87-.78s.78-1.14.78-1.87-.26-1.35-.78-1.87-1.14-.78-1.87-.78-1.35.26-1.87.78-.78,1.14-.78,1.87.26,1.35.78,1.87,1.14.78,1.87.78Z"/>
  </g>
</svg>