<?xml version="1.0" encoding="UTF-8"?>
<svg id="Lager_2" data-name="Lager 2" xmlns="http://www.w3.org/2000/svg" xmlns:xlink="http://www.w3.org/1999/xlink" viewBox="0 0 578.36 48.15">
  <defs>
    <style>
      .cls-1 {
        fill: #fff;
        stroke-width: 0px;
      }

      .cls-2 {
        filter: url(#outer-glow-1);
      }
    </style>
    <filter id="outer-glow-1" filterUnits="userSpaceOnUse">
      <feOffset dx="0" dy="0"/>
      <feGaussianBlur result="blur" stdDeviation="15"/>
      <feFlood flood-color="#000" flood-opacity=".75"/>
      <feComposite in2="blur" operator="in"/>
      <feComposite in="SourceGraphic"/>
    </filter>
  </defs>
  <g id="Lager_1-2" data-name="Lager 1">
    <g class="cls-2">
      <path class="cls-1" d="M16.26,47.51L4.15,15.18H0v-4.85h15.56v4.85h-4.46l9.82,26.6h-1.28l9.82-26.6h-4.46v-4.85h15.12v4.85h-4.08l-12.18,32.34h-7.59Z"/>
      <path class="cls-1" d="M43.3,47.51v-4.85h4.08l10.59-27.49h-4.46v-4.85h21.37v4.85h-4.46l10.59,27.49h4.08v4.85h-15.18v-4.85h4.34l-3.95-10.78,2.1,1.79h-16.26l1.79-1.79-3.89,10.78h4.34v4.85h-15.05ZM59.12,5.93c-.85,0-1.58-.25-2.2-.77-.62-.51-.92-1.23-.92-2.17s.31-1.72.92-2.23c.62-.51,1.35-.77,2.2-.77s1.57.25,2.17.77c.6.51.89,1.25.89,2.23s-.3,1.66-.89,2.17c-.6.51-1.32.77-2.17.77ZM58.29,30.8l-1.08-1.66h13.71l-.96,1.66-5.74-15.56h-.19l-5.74,15.56ZM69.26,5.93c-.85,0-1.58-.24-2.2-.73-.62-.49-.92-1.22-.92-2.2s.31-1.72.92-2.23c.62-.51,1.35-.77,2.2-.77.81,0,1.52.25,2.14.77.62.51.92,1.28.92,2.3,0,.94-.31,1.65-.92,2.14-.62.49-1.33.73-2.14.73Z"/>
      <path class="cls-1" d="M90.37,47.51v-4.85h4.4V15.18h-4.4v-4.85h15.5v4.85h-4.4v27.49h13.97v-9.63h4.97v14.48h-30.04Z"/>
      <path class="cls-1" d="M127.23,47.51v-4.85h4.4V15.18h-4.4v-4.85h15.5v4.85h-4.4v12.12l14.03-12.12h-3.7v-4.85h15.24v4.85h-4.15l-15.94,13.84v-2.81l17.09,16.45h4.15v4.85h-15.88v-4.85h3.7l-14.54-13.9v13.9h4.4v4.85h-15.5Z"/>
      <path class="cls-1" d="M190.76,48.15c-4.04,0-7.58-.83-10.62-2.49-3.04-1.66-5.4-3.94-7.08-6.86-1.68-2.91-2.52-6.22-2.52-9.92s.84-7.06,2.52-9.95c1.68-2.89,4.04-5.17,7.08-6.82,3.04-1.66,6.58-2.49,10.62-2.49s7.69.83,10.71,2.49c3.02,1.66,5.37,3.93,7.05,6.82,1.68,2.89,2.52,6.21,2.52,9.95s-.84,7.01-2.52,9.92c-1.68,2.91-4.03,5.2-7.05,6.86-3.02,1.66-6.59,2.49-10.71,2.49ZM190.76,42.48c2.72,0,5.07-.55,7.05-1.66,1.98-1.1,3.53-2.67,4.66-4.69,1.13-2.02,1.69-4.41,1.69-7.17s-.56-5.11-1.69-7.18c-1.13-2.06-2.68-3.66-4.66-4.78-1.98-1.13-4.33-1.69-7.05-1.69s-5.02.56-7.02,1.69c-2,1.13-3.54,2.72-4.62,4.78-1.08,2.06-1.63,4.45-1.63,7.18s.54,5.16,1.63,7.17c1.08,2.02,2.62,3.58,4.62,4.69,2,1.11,4.34,1.66,7.02,1.66Z"/>
      <path class="cls-1" d="M218.82,47.51v-4.85h4.4V15.18h-4.4v-4.85h12.76l11.16,23.41h-.96l11.1-23.41h13.07v4.85h-4.4v27.49h4.4v4.85h-14.41v-4.85h3.89v-24.04l-11.1,23.79h-4.21l-11.22-23.79v24.04h3.89v4.85h-13.97Z"/>
      <path class="cls-1" d="M273.35,47.51v-4.85h4.4V15.18h-4.4v-4.85h12.76l11.16,23.41h-.96l11.1-23.41h13.07v4.85h-4.4v27.49h4.4v4.85h-14.41v-4.85h3.89v-24.04l-11.1,23.79h-4.21l-11.22-23.79v24.04h3.89v4.85h-13.97Z"/>
      <path class="cls-1" d="M327.88,47.51v-4.85h4.4V15.18h-4.4v-4.85h32.14v11.93h-4.53v-7.08h-16.52v11.03h8.74v-4.02h4.15v13.2h-4.15v-4.34h-8.74v11.61h17.6v-7.4h4.46v12.25h-33.16Z"/>
      <path class="cls-1" d="M368.76,47.51v-4.85h4.4V15.18h-4.4v-4.85h11.67l18.94,26.34V15.18h-4.4v-4.85h14.48v4.85h-4.4v32.34h-6.95l-19.26-27.23v22.39h4.46v4.85h-14.54Z"/>
      <path class="cls-1" d="M455.52,47.51v-4.85h5.36V15.18h-9.82v8.74h-4.72v-13.58h35.78v13.58h-4.78v-8.74h-9.76v27.49h5.29v4.85h-17.35Z"/>
      <path class="cls-1" d="M488.56,47.51v-4.85h4.4V15.18h-4.4v-4.85h15.5v4.85h-4.4v27.49h4.4v4.85h-15.5Z"/>
      <path class="cls-1" d="M511.46,47.51v-4.85h4.4V15.18h-4.4v-4.85h15.5v4.85h-4.4v27.49h13.97v-9.63h4.97v14.48h-30.04Z"/>
      <path class="cls-1" d="M548.32,47.51v-4.85h4.4V15.18h-4.4v-4.85h15.5v4.85h-4.4v27.49h13.97v-9.63h4.97v14.48h-30.04Z"/>
    </g>
  </g>
</svg>