<?xml version="1.0" encoding="UTF-8"?>
<svg id="Lager_2" data-name="Lager 2" xmlns="http://www.w3.org/2000/svg" xmlns:xlink="http://www.w3.org/1999/xlink" viewBox="0 0 1000.01 306.55">
  <defs>
    <style>
      .cls-1 {
        fill: #fff;
        stroke-width: 0px;
      }

      .cls-2 {
        filter: url(#outer-glow-1);
      }
    </style>
    <filter id="outer-glow-1" filterUnits="userSpaceOnUse">
      <feOffset dx="0" dy="0"/>
      <feGaussianBlur result="blur" stdDeviation="15"/>
      <feFlood flood-color="#000" flood-opacity=".75"/>
      <feComposite in2="blur" operator="in"/>
      <feComposite in="SourceGraphic"/>
    </filter>
  </defs>
  <g id="Lager_1-2" data-name="Lager 1">
    <g class="cls-2">
      <path class="cls-1" d="M0,130.02v-20.74h13.83V20.74H0V0h73.15c15.91,0,28.06,3.23,36.46,9.7,8.4,6.47,12.6,16.39,12.6,29.77s-4.2,23.05-12.6,29.44c-8.4,6.39-20.56,9.59-36.46,9.59h-18.96v-20.74h14.27c7.14,0,12.64-1.56,16.5-4.68,3.86-3.12,5.8-7.73,5.8-13.83s-1.9-11.07-5.69-14.05c-3.79-2.97-9.33-4.46-16.61-4.46h-24.09v88.54h19.85v20.74H0Z"/>
      <path class="cls-1" d="M128.23,130.02v-19.18h12.94v-50.85h-14.05v-19.18h38.81v26.76l-2.01-2.68c3.86-9.07,8.36-15.72,13.49-19.96s10.59-6.36,16.39-6.36c5.05,0,9.59,1.34,13.6,4.01l-8.7,25.42c-2.08-1.78-4.13-3.08-6.13-3.9-2.01-.82-3.98-1.23-5.91-1.23-4.01,0-7.62,1.34-10.82,4.01-3.2,2.68-5.84,6.39-7.92,11.15v32.78h15.61v19.18h-55.31Z"/>
      <path class="cls-1" d="M263.38,132.25c-11.45,0-21.19-2.05-29.22-6.13-8.03-4.09-14.09-9.7-18.18-16.84-4.09-7.14-6.13-15.17-6.13-24.09s1.97-16.65,5.91-23.64c3.94-6.99,9.51-12.56,16.73-16.73,7.21-4.16,15.72-6.24,25.54-6.24s18.03,2.08,25.09,6.24c7.06,4.16,12.52,9.74,16.39,16.73,3.86,6.99,5.8,14.87,5.8,23.64v8.92h-80.96v-17.62h55.31c0-3.12-.89-6.17-2.68-9.14-1.78-2.97-4.28-5.43-7.47-7.36-3.2-1.93-7.17-2.9-11.93-2.9s-8.55,1-11.82,3.01c-3.27,2.01-5.76,4.61-7.47,7.81-1.71,3.2-2.56,6.66-2.56,10.37v6.91c0,7.88,2.41,14.09,7.25,18.62,4.83,4.54,12.15,6.8,21.97,6.8,5.8,0,11.3-.89,16.5-2.68,5.2-1.78,9.59-4.24,13.16-7.36l10.26,18.29c-4.76,4.01-10.82,7.25-18.18,9.7-7.36,2.45-15.13,3.68-23.31,3.68Z"/>
      <path class="cls-1" d="M352.81,130.02l-34.57-70.03h-9.81v-19.18h50.18v19.18h-11.6l23.86,51.52h-9.59l24.98-51.52h-11.37v-19.18h45.94v19.18h-9.81l-34.57,70.03h-23.64Z"/>
      <path class="cls-1" d="M457.41,132.25c-10.71,0-18.92-2.53-24.64-7.58-5.73-5.05-8.59-11.6-8.59-19.63s3.05-14.87,9.14-19.63c6.09-4.76,15.24-7.14,27.43-7.14,4.16,0,8.66.37,13.49,1.12,4.83.75,9.03,1.64,12.6,2.68l-3.79,2.68v-8.7c0-4.91-1.71-8.7-5.13-11.37-3.42-2.68-8.55-4.01-15.39-4.01-5.06,0-10,.67-14.83,2.01-4.83,1.34-9.48,3.27-13.94,5.8l-6.47-20.07c6.09-3.27,12.67-5.72,19.74-7.36,7.06-1.63,13.72-2.45,19.96-2.45,14.27,0,25.01,3.2,32.23,9.59,7.21,6.39,10.82,15.76,10.82,28.1v34.57h11.6v19.18h-36.35v-14.72l4.01,3.12c-4.16,4.16-9,7.51-14.5,10.04-5.5,2.53-11.3,3.79-17.4,3.79ZM464.77,113.74c4.01,0,7.95-.78,11.82-2.34,3.86-1.56,6.84-3.53,8.92-5.91l-2.45,7.14v-20.74l3.79,6.24c-3.27-1.19-6.62-2.01-10.04-2.45-3.42-.45-6.77-.67-10.04-.67-5.21,0-9.22.82-12.04,2.45-2.83,1.64-4.24,4.01-4.24,7.14s1.26,5.24,3.79,6.8c2.53,1.56,6.02,2.34,10.48,2.34Z"/>
      <path class="cls-1" d="M578.06,132.25c-10.71,0-18.66-1.71-23.86-5.13-5.21-3.42-8.7-7.81-10.48-13.16l4.91-1.78v17.84h-18.96v-30.33h16.73c1.19,3.42,3.05,6.36,5.58,8.81,2.53,2.45,5.58,4.31,9.14,5.58,3.57,1.27,7.28,1.9,11.15,1.9,5.05,0,8.81-.82,11.26-2.45,2.45-1.63,3.68-3.71,3.68-6.24,0-1.78-.75-3.38-2.23-4.79-1.49-1.41-4.54-2.71-9.14-3.9l-20.07-4.91c-8.03-2.23-14.42-5.43-19.18-9.59-4.76-4.16-7.14-9.96-7.14-17.4,0-5.94,1.52-11.04,4.57-15.28,3.05-4.24,7.28-7.47,12.71-9.7,5.43-2.23,11.49-3.35,18.18-3.35,8.48,0,15.05,1.6,19.74,4.79,4.68,3.2,7.77,7.32,9.26,12.38l-4.68.22v-14.94h18.96v28.1h-16.73c-.6-3.12-1.86-5.72-3.79-7.81-1.93-2.08-4.39-3.68-7.36-4.79-2.98-1.12-6.02-1.67-9.14-1.67-4.76,0-8.44.82-11.04,2.45-2.6,1.64-3.9,3.79-3.9,6.47,0,2.08.85,3.76,2.56,5.02,1.71,1.27,4.57,2.42,8.59,3.46l20.07,4.91c8.48,1.93,15.02,5.02,19.63,9.26,4.61,4.24,6.91,10.3,6.91,18.18,0,5.95-1.53,10.97-4.57,15.05-3.05,4.09-7.29,7.25-12.71,9.48-5.43,2.23-11.64,3.35-18.62,3.35Z"/>
      <path class="cls-1" d="M63.11,306.55c-10.85,0-19.89-1.75-27.1-5.24-7.21-3.49-12.82-8.73-16.84-15.72l5.35,2.68v16.06H4.24v-43.93h19.4c.74,8.47,3.53,14.87,8.36,19.18,4.83,4.31,12.97,6.47,24.42,6.47,8.62,0,14.83-1.56,18.62-4.68,3.79-3.12,5.69-6.84,5.69-11.15,0-3.86-1.42-6.99-4.24-9.37-2.83-2.38-7.51-4.24-14.05-5.58l-24.09-4.91c-11-2.23-19.59-6.58-25.76-13.05-6.17-6.47-9.26-14.68-9.26-24.64,0-7.73,1.86-14.64,5.58-20.74,3.71-6.09,9.14-10.93,16.28-14.5,7.14-3.57,15.76-5.35,25.87-5.35,9.37,0,17.36,1.64,23.97,4.91,6.61,3.27,11.71,8.33,15.28,15.17h-5.35v-17.84h20.52v38.81h-19.63c-.75-6.09-3.5-11.04-8.25-14.83-4.76-3.79-11.6-5.69-20.52-5.69-5.06,0-9.26.71-12.6,2.12-3.35,1.42-5.76,3.27-7.25,5.58-1.49,2.31-2.23,4.79-2.23,7.47,0,3.57,1.26,6.54,3.79,8.92,2.53,2.38,6.84,4.16,12.94,5.35l24.09,4.91c11.74,2.53,20.74,6.8,26.99,12.82s9.37,14.46,9.37,25.31c0,8.03-1.93,15.17-5.8,21.41-3.87,6.25-9.48,11.15-16.84,14.72-7.36,3.57-16.17,5.35-26.43,5.35Z"/>
      <path class="cls-1" d="M163.92,306.55c-10.41,0-18.73-2.75-24.98-8.25-6.24-5.5-9.37-14.27-9.37-26.32v-37.69h-14.05v-19.18h14.05v-28.99l26.76-4.46v33.45h24.31v19.18h-24.09v34.12c0,6.25,1.3,10.48,3.9,12.71,2.6,2.23,6.28,3.35,11.04,3.35,2.08,0,4.05-.26,5.91-.78,1.86-.52,3.53-1.08,5.02-1.67l3.57,19.18c-2.53,1.49-5.73,2.75-9.59,3.79-3.87,1.04-8.03,1.56-12.49,1.56Z"/>
      <path class="cls-1" d="M239.3,306.55c-9.81,0-18.4-2.05-25.76-6.13-7.36-4.09-13.12-9.7-17.28-16.84-4.16-7.14-6.24-15.09-6.24-23.86s2.08-17.1,6.24-24.09c4.16-6.99,9.96-12.52,17.4-16.61,7.43-4.09,16.06-6.13,25.87-6.13s18.43,2.04,25.87,6.13c7.43,4.09,13.19,9.63,17.28,16.61,4.09,6.99,6.13,15.02,6.13,24.09s-2.05,16.73-6.13,23.86c-4.09,7.14-9.85,12.75-17.28,16.84-7.44,4.09-16.13,6.13-26.09,6.13ZM239.52,285.14c6.99,0,12.6-2.38,16.84-7.14,4.24-4.76,6.36-10.93,6.36-18.51s-2.12-13.49-6.36-18.18c-4.24-4.68-9.85-7.03-16.84-7.03s-12.79,2.34-16.95,7.03c-4.16,4.68-6.24,10.74-6.24,18.18s2.12,13.75,6.36,18.51c4.24,4.76,9.85,7.14,16.84,7.14Z"/>
      <path class="cls-1" d="M348.35,306.55c-10.26,0-19.18-2.05-26.76-6.13-7.58-4.09-13.42-9.74-17.51-16.95-4.09-7.21-6.13-15.35-6.13-24.42s1.82-16.43,5.46-23.42c3.64-6.99,8.81-12.52,15.5-16.61,6.69-4.09,14.5-6.13,23.42-6.13,4.46,0,8.7.75,12.71,2.23,4.01,1.49,7.36,3.65,10.04,6.47,2.68,2.83,4.16,6.1,4.46,9.81l-2.68.22v-16.5h18.96v33.9h-16.95c-3.42-9.51-10.63-14.27-21.63-14.27-7.58,0-13.31,2.31-17.17,6.91-3.87,4.61-5.8,10.56-5.8,17.84s2.23,13.35,6.69,18.18c4.46,4.83,11.07,7.25,19.85,7.25,4.76,0,9.44-1,14.05-3.01,4.61-2.01,8.55-4.57,11.82-7.69l11.15,18.06c-4.61,4.46-10.52,7.96-17.73,10.48-7.21,2.53-14.46,3.79-21.74,3.79Z"/>
      <path class="cls-1" d="M431.76,285.14h10.04v19.18h-50.18v-19.18h13.16v-91.66h-14.05v-19.18h41.04v83.63l32.78-23.64h-12.04v-19.18h47.06v19.18h-11.37l-38.58,27.21,8.47-11.37,32.11,35.01h14.5v19.18h-33.68l-39.25-43.93v24.75Z"/>
      <path class="cls-1" d="M504.46,304.32v-19.18h13.16v-91.66h-14.05v-19.18h41.04v54.86l-5.13.45c5.8-5.8,12-10.04,18.62-12.71,6.61-2.68,13.27-4.01,19.96-4.01,9.37,0,16.76,2.53,22.19,7.58,5.43,5.06,8.14,12.86,8.14,23.42v41.26h11.6v19.18h-51.74v-19.18h13.16v-34.34c0-5.65-1.23-9.7-3.68-12.16-2.45-2.45-6.28-3.68-11.49-3.68-3.87,0-7.84.78-11.93,2.34-4.09,1.56-8.22,4.2-12.38,7.92l2.68-7.36v47.28h11.6v19.18h-51.74Z"/>
      <path class="cls-1" d="M675.07,306.55c-9.81,0-18.4-2.05-25.76-6.13-7.36-4.09-13.12-9.7-17.28-16.84-4.16-7.14-6.24-15.09-6.24-23.86s2.08-17.1,6.24-24.09c4.16-6.99,9.96-12.52,17.4-16.61,7.43-4.09,16.06-6.13,25.87-6.13s18.43,2.04,25.87,6.13c7.43,4.09,13.19,9.63,17.28,16.61,4.09,6.99,6.13,15.02,6.13,24.09s-2.05,16.73-6.13,23.86c-4.09,7.14-9.85,12.75-17.28,16.84-7.44,4.09-16.13,6.13-26.09,6.13ZM675.29,285.14c6.99,0,12.6-2.38,16.84-7.14,4.24-4.76,6.36-10.93,6.36-18.51s-2.12-13.49-6.36-18.18c-4.24-4.68-9.85-7.03-16.84-7.03s-12.79,2.34-16.95,7.03c-4.16,4.68-6.24,10.74-6.24,18.18s2.12,13.75,6.36,18.51c4.24,4.76,9.85,7.14,16.84,7.14Z"/>
      <path class="cls-1" d="M729.93,304.32v-19.18h13.16v-91.66h-14.05v-19.18h41.04v110.84h12.49v19.18h-52.63Z"/>
      <path class="cls-1" d="M786.13,304.32v-19.18h12.94v-50.85h-14.05v-19.18h38.8v14.05l-2.9.45c5.65-5.8,11.71-10.04,18.18-12.71,6.47-2.68,12.97-4.01,19.51-4.01,7.88,0,14.05,1.6,18.51,4.79,4.46,3.2,7.66,7.62,9.59,13.27l-3.79-1.56c5.65-5.8,11.71-10,18.18-12.6,6.47-2.6,12.97-3.9,19.51-3.9,9.22,0,16.5,2.53,21.86,7.58,5.35,5.06,8.03,12.86,8.03,23.42v41.26h11.82v19.18h-51.07v-19.18h12.27v-34.34c0-5.65-1.15-9.7-3.46-12.16-2.31-2.45-5.99-3.68-11.04-3.68-3.72,0-7.58.78-11.6,2.34-4.01,1.56-7.88,4.2-11.6,7.92l1.34-11.37c.3,1.64.52,3.5.67,5.58.15,2.08.22,3.57.22,4.46v41.26h11.15v19.18h-49.96v-19.18h12.27v-34.34c0-5.65-1.15-9.7-3.46-12.16-2.31-2.45-5.99-3.68-11.04-3.68-3.87,0-7.81.78-11.82,2.34-4.01,1.56-7.96,4.2-11.82,7.92l2.45-6.91v46.83h11.15v19.18h-50.85Z"/>
      <path class="cls-1" d="M978.6,267.29l-9.14-48.39v-44.6h30.55v44.6l-8.92,48.39h-12.49ZM972.58,304.32v-23.19h24.53v23.19h-24.53Z"/>
    </g>
  </g>
</svg>