<?xml version="1.0" encoding="UTF-8"?>
<svg id="Lager_2" data-name="Lager 2" xmlns="http://www.w3.org/2000/svg" viewBox="0 0 357.07 217.11">
  <defs>
    <style>
      .cls-1 {
        fill: #c47e6e;
      }

      .cls-1, .cls-2 {
        stroke-width: 0px;
      }

      .cls-2 {
        fill: #fff;
      }
    </style>
  </defs>
  <g id="Lager_1-2" data-name="Lager 1">
    <path class="cls-1" d="M0,0v217.11h357.07V0H0Z"/>
    <g>
      <path class="cls-2" d="M83.66,182.2v-3.04h2.77v-17.27h-2.77v-3.05h20.2v7.49h-2.84v-4.45h-10.38v6.61h5.49v-2.52h2.61v8.33h-2.61v-2.72h-5.49v7.57h3.73v3.04h-10.7Z"/>
      <path class="cls-2" d="M105.86,182.2v-2.84h2.56v-10.3h-2.76v-2.81h6.29v4.45l-.4-.36c.64-1.5,1.4-2.62,2.26-3.37s1.82-1.12,2.87-1.12c.91,0,1.76.24,2.57.72l-1.24,3.73c-.38-.32-.75-.55-1.12-.7-.38-.15-.74-.22-1.08-.22-.78,0-1.48.26-2.1.78s-1.13,1.24-1.5,2.14v7.05h2.97v2.84h-9.3Z"/>
      <path class="cls-2" d="M126.9,182.6c-1.92,0-3.39-.44-4.41-1.32-1.02-.88-1.52-2.04-1.52-3.49,0-1.52.55-2.71,1.66-3.55,1.11-.84,2.73-1.26,4.87-1.26.72,0,1.53.07,2.42.2.89.13,1.73.31,2.5.52l-.64.44v-1.92c0-1.01-.33-1.8-1-2.34s-1.67-.82-3.01-.82c-.91,0-1.8.12-2.68.36s-1.72.59-2.52,1.04l-.92-2.97c1.01-.56,2.11-.97,3.29-1.24,1.17-.27,2.24-.4,3.21-.4,2.4,0,4.23.54,5.49,1.62,1.25,1.08,1.88,2.68,1.88,4.79v7.09h2.36v2.84h-5.81v-2.56l.52.44c-.7.8-1.56,1.42-2.61,1.86-1.04.44-2.07.66-3.08.66ZM127.74,179.72c.8,0,1.62-.16,2.46-.48.84-.32,1.49-.73,1.94-1.24l-.36,1.12v-3.89l.64,1.04c-.75-.21-1.48-.37-2.2-.46-.72-.09-1.42-.14-2.08-.14-1.12,0-1.99.17-2.61.52-.61.35-.92.87-.92,1.56,0,.64.27,1.13.8,1.46s1.31.5,2.32.5ZM128.58,163.49c-.99,0-1.82-.33-2.5-.98-.68-.65-1.02-1.46-1.02-2.42s.34-1.82,1.02-2.49c.68-.67,1.52-1,2.5-1s1.82.33,2.5.98c.68.66,1.02,1.49,1.02,2.5,0,.96-.34,1.77-1.02,2.42-.68.66-1.52.98-2.5.98ZM128.58,162c.56,0,1.02-.19,1.38-.56s.54-.83.54-1.36-.18-.99-.54-1.36c-.36-.37-.82-.56-1.38-.56s-1.02.19-1.38.56c-.36.38-.54.83-.54,1.36s.18.99.54,1.36c.36.37.82.56,1.38.56Z"/>
      <path class="cls-2" d="M148.78,189.45c-1.26,0-2.49-.15-3.71-.46-1.22-.31-2.25-.71-3.11-1.22l1.36-3.05c.8.48,1.64.86,2.53,1.14.88.28,1.78.42,2.68.42,1.58,0,2.73-.4,3.47-1.2.74-.8,1.1-1.9,1.1-3.29v-2.44l.6-.48c-.59.94-1.41,1.66-2.46,2.16-1.06.51-2.18.76-3.39.76-1.74,0-3.19-.38-4.37-1.14-1.18-.76-2.06-1.76-2.64-2.99-.59-1.23-.88-2.52-.88-3.89s.29-2.65.88-3.85c.59-1.2,1.47-2.18,2.64-2.95,1.18-.76,2.63-1.14,4.37-1.14,1.2,0,2.33.25,3.39.76,1.05.51,1.88,1.23,2.46,2.16l-.32.16v-2.68h5.89v2.81h-2.36v12.5c0,1.68-.33,3.11-.98,4.29-.66,1.18-1.58,2.07-2.79,2.69-1.2.61-2.66.92-4.37.92ZM148.54,178.63c.91,0,1.78-.16,2.62-.48.84-.32,1.57-.84,2.18-1.56l-.2,1.36v-8.17l.2,1.28c-.61-.72-1.34-1.24-2.18-1.56-.84-.32-1.72-.48-2.62-.48-1.42,0-2.6.41-3.55,1.22-.95.82-1.42,2-1.42,3.55s.47,2.75,1.42,3.59c.95.84,2.13,1.26,3.55,1.26Z"/>
      <path class="cls-2" d="M171.02,182.6c-2.06,0-3.79-.38-5.19-1.12-1.4-.75-2.45-1.76-3.15-3.03-.7-1.27-1.04-2.69-1.04-4.27s.34-2.95,1.02-4.21c.68-1.25,1.66-2.26,2.95-3s2.78-1.12,4.49-1.12,3.27.37,4.53,1.12c1.25.75,2.22,1.75,2.88,3,.67,1.26,1,2.67,1,4.25v1.52h-14.79v-2.93h11.22c0-.67-.19-1.32-.58-1.94-.39-.63-.94-1.16-1.64-1.58-.71-.43-1.58-.64-2.62-.64s-1.92.22-2.65.66c-.72.44-1.28,1.01-1.66,1.7-.39.7-.58,1.42-.58,2.16v1c0,1.63.49,2.92,1.48,3.87.99.95,2.47,1.42,4.45,1.42,1.12,0,2.18-.19,3.19-.56,1-.37,1.84-.85,2.5-1.44l1.56,2.64c-.86.78-1.93,1.38-3.23,1.82-1.3.44-2.68.66-4.15.66Z"/>
      <path class="cls-2" d="M190.06,182.6c-1.87,0-3.31-.31-4.31-.94-1-.63-1.69-1.5-2.06-2.62l.92-.28v3.45h-2.68v-5.49h2.4c.13.75.44,1.38.92,1.9.48.52,1.08.92,1.8,1.18.72.27,1.5.4,2.32.4,1.12,0,1.95-.19,2.49-.56.53-.37.8-.85.8-1.44,0-.43-.17-.79-.5-1.1-.33-.31-1.01-.59-2.02-.86l-3.73-.92c-1.39-.37-2.48-.92-3.29-1.64-.8-.72-1.2-1.68-1.2-2.89,0-1.04.26-1.94.78-2.68.52-.75,1.26-1.32,2.22-1.7.96-.39,2.07-.58,3.33-.58,1.47,0,2.64.28,3.51.84.87.56,1.46,1.35,1.78,2.37l-.88.04v-2.81h2.73v5.09h-2.44c-.05-.75-.28-1.35-.68-1.8s-.9-.79-1.48-1c-.59-.21-1.22-.32-1.88-.32-1.1,0-1.92.19-2.46.56-.55.38-.82.86-.82,1.44,0,.51.19.89.56,1.16.37.27,1,.52,1.88.76l3.73.88c1.47.35,2.6.88,3.39,1.6.79.72,1.18,1.76,1.18,3.12,0,.99-.26,1.84-.78,2.57-.52.72-1.25,1.28-2.18,1.68-.94.4-2.04.6-3.33.6Z"/>
      <path class="cls-2" d="M198.15,166.25h6.25v2.64l-.28.04c.56-1.01,1.36-1.78,2.4-2.3,1.04-.52,2.14-.78,3.29-.78,1.71,0,3.13.4,4.25,1.2,1.12.8,1.97,1.83,2.54,3.09s.86,2.6.86,4.05-.29,2.81-.86,4.09-1.42,2.32-2.54,3.13c-1.12.8-2.54,1.2-4.25,1.2-1.15,0-2.24-.27-3.29-.8s-1.84-1.3-2.4-2.28l.56.04v6.65h2.36v2.84h-8.74v-2.84h2.61v-17.15h-2.77v-2.81ZM209.09,179.44c1.34,0,2.46-.45,3.39-1.36.92-.91,1.38-2.2,1.38-3.89s-.46-2.93-1.38-3.83c-.92-.89-2.05-1.34-3.39-1.34-.86,0-1.68.17-2.48.5-.8.33-1.51.9-2.12,1.7l.2-1.44v9.02l-.2-1.56c.61.78,1.32,1.34,2.12,1.68.8.35,1.63.52,2.48.52Z"/>
      <path class="cls-2" d="M228.97,182.6c-1.74,0-3.25-.38-4.55-1.12-1.3-.75-2.3-1.76-3-3.03-.71-1.27-1.06-2.69-1.06-4.27s.35-2.99,1.06-4.25c.71-1.25,1.71-2.25,3-2.99,1.3-.73,2.81-1.1,4.55-1.1s3.21.37,4.51,1.1c1.3.74,2.3,1.73,3.03,2.99.72,1.26,1.08,2.67,1.08,4.25s-.36,3-1.08,4.27c-.72,1.27-1.73,2.28-3.03,3.03-1.3.75-2.8,1.12-4.51,1.12ZM228.97,179.52c1.47,0,2.67-.49,3.59-1.48.92-.99,1.38-2.27,1.38-3.85s-.46-2.81-1.38-3.79c-.92-.97-2.12-1.46-3.59-1.46s-2.74.49-3.65,1.46c-.91.98-1.36,2.24-1.36,3.79s.45,2.86,1.36,3.85c.91.99,2.12,1.48,3.65,1.48Z"/>
      <path class="cls-2" d="M239.83,182.2v-2.84h2.56v-10.3h-2.76v-2.81h6.29v4.45l-.4-.36c.64-1.5,1.4-2.62,2.26-3.37s1.82-1.12,2.87-1.12c.91,0,1.76.24,2.57.72l-1.24,3.73c-.38-.32-.75-.55-1.12-.7-.38-.15-.74-.22-1.08-.22-.78,0-1.48.26-2.1.78s-1.13,1.24-1.5,2.14v7.05h2.97v2.84h-9.3Z"/>
      <path class="cls-2" d="M262.11,182.6c-1.68,0-3.07-.46-4.15-1.38s-1.62-2.41-1.62-4.47v-7.69h-2.77v-2.81h2.77v-5.29l3.77-.68v5.97h4.41v2.81h-4.41v7.17c0,1.2.26,2.03.78,2.48.52.46,1.24.68,2.14.68.35,0,.69-.05,1.04-.14.35-.09.65-.19.92-.3l.48,2.81c-.4.24-.9.44-1.5.6-.6.16-1.22.24-1.86.24Z"/>
      <path class="cls-2" d="M268.68,175.91l-1.24-9.06v-8.02h4.21v8.02l-1.2,9.06h-1.76ZM267.72,182.2v-3.53h3.69v3.53h-3.69Z"/>
    </g>
    <path class="cls-2" d="M146.93,127.27v-20.37c-4.5-4.11-7.99-8.9-10.48-14.39s-3.73-11.27-3.73-17.35c0-11.84,4.14-21.91,12.43-30.2,8.29-8.29,18.36-12.43,30.2-12.43,9.87,0,18.61,2.9,26.23,8.7,7.62,5.8,12.57,13.36,14.86,22.68l6.16,24.28c.39,1.5.12,2.86-.83,4.09s-2.21,1.84-3.79,1.84h-9.47v14.21c0,2.61-.93,4.84-2.78,6.69-1.86,1.86-4.09,2.78-6.69,2.78h-9.47v9.47h-9.47v-18.95h18.95v-23.69h12.79l-4.5-18.36c-1.82-7.18-5.68-13.03-11.61-17.53-5.92-4.5-12.71-6.75-20.37-6.75-9.16,0-16.97,3.2-23.45,9.59-6.47,6.4-9.71,14.17-9.71,23.33,0,4.74.97,9.24,2.9,13.5,1.93,4.26,4.68,8.05,8.23,11.37l3.08,2.84v24.63h-9.47ZM175.36,98.85c1.34,0,2.47-.45,3.38-1.36.91-.91,1.36-2.03,1.36-3.38s-.45-2.47-1.36-3.38c-.91-.91-2.03-1.36-3.38-1.36s-2.47.45-3.38,1.36-1.36,2.03-1.36,3.38.45,2.47,1.36,3.38,2.03,1.36,3.38,1.36ZM171.8,83.69h7.22c0-1.97.26-3.57.77-4.8.51-1.22,1.56-2.7,3.14-4.44,1.42-1.58,2.8-3.18,4.14-4.8,1.34-1.62,2.01-3.73,2.01-6.34,0-3.32-1.28-6.12-3.85-8.41-2.57-2.29-5.74-3.43-9.53-3.43-3.16,0-6.02.91-8.59,2.72s-4.36,4.18-5.39,7.11l6.51,2.72c.55-1.74,1.52-3.14,2.9-4.2,1.38-1.07,2.9-1.6,4.56-1.6s3.18.47,4.32,1.42c1.14.95,1.72,2.17,1.72,3.67,0,1.66-.49,3.14-1.48,4.44-.99,1.3-2.15,2.63-3.49,3.97-1.58,1.66-2.8,3.32-3.67,4.97-.87,1.66-1.3,3.99-1.3,6.99Z"/>
  </g>
</svg>