<?xml version="1.0" encoding="UTF-8"?>
<svg id="Lager_2" data-name="Lager 2" xmlns="http://www.w3.org/2000/svg" viewBox="0 0 355.06 217.11">
  <defs>
    <style>
      .cls-1 {
        fill: #f96b1f;
      }

      .cls-1, .cls-2 {
        stroke-width: 0px;
      }

      .cls-2 {
        fill: #fff;
      }
    </style>
  </defs>
  <g id="Lager_1-2" data-name="Lager 1">
    <rect class="cls-1" width="355.06" height="217.11"/>
    <g>
      <path class="cls-2" d="M105.64,182.2l-7.61-20.32h-2.6v-3.05h9.78v3.05h-2.81l6.17,16.71h-.8l6.17-16.71h-2.81v-3.05h9.5v3.05h-2.57l-7.65,20.32h-4.77Z"/>
      <path class="cls-2" d="M128.28,182.6c-1.92,0-3.39-.44-4.41-1.32-1.02-.88-1.52-2.04-1.52-3.49,0-1.52.55-2.71,1.66-3.55,1.11-.84,2.73-1.26,4.87-1.26.72,0,1.53.07,2.42.2.89.13,1.73.31,2.5.52l-.64.44v-1.92c0-1.01-.33-1.8-1-2.34s-1.67-.82-3.01-.82c-.91,0-1.8.12-2.68.36s-1.72.59-2.52,1.04l-.92-2.97c1.01-.56,2.11-.97,3.29-1.24,1.17-.27,2.24-.4,3.21-.4,2.4,0,4.23.54,5.49,1.62,1.25,1.08,1.88,2.68,1.88,4.79v7.09h2.36v2.84h-5.81v-2.56l.52.44c-.7.8-1.56,1.42-2.61,1.86-1.04.44-2.07.66-3.08.66ZM129.12,179.72c.8,0,1.62-.16,2.46-.48.84-.32,1.49-.73,1.94-1.24l-.36,1.12v-3.89l.64,1.04c-.75-.21-1.48-.37-2.2-.46-.72-.09-1.42-.14-2.08-.14-1.12,0-1.99.17-2.61.52-.61.35-.92.87-.92,1.56,0,.64.27,1.13.8,1.46s1.31.5,2.32.5ZM129.96,163.49c-.99,0-1.82-.33-2.5-.98-.68-.65-1.02-1.46-1.02-2.42s.34-1.82,1.02-2.49c.68-.67,1.52-1,2.5-1s1.82.33,2.5.98c.68.66,1.02,1.49,1.02,2.5,0,.96-.34,1.77-1.02,2.42-.68.66-1.52.98-2.5.98ZM129.96,162c.56,0,1.02-.19,1.38-.56s.54-.83.54-1.36-.18-.99-.54-1.36c-.36-.37-.82-.56-1.38-.56s-1.02.19-1.38.56c-.36.38-.54.83-.54,1.36s.18.99.54,1.36c.36.37.82.56,1.38.56Z"/>
      <path class="cls-2" d="M140.74,182.2v-2.84h2.56v-10.3h-2.76v-2.81h6.29v4.45l-.4-.36c.64-1.5,1.4-2.62,2.26-3.37s1.82-1.12,2.87-1.12c.91,0,1.76.24,2.57.72l-1.24,3.73c-.38-.32-.75-.55-1.12-.7-.38-.15-.74-.22-1.08-.22-.78,0-1.48.26-2.1.78s-1.13,1.24-1.5,2.14v7.05h2.97v2.84h-9.3Z"/>
      <path class="cls-2" d="M163.02,182.6c-1.68,0-3.07-.46-4.15-1.38s-1.62-2.41-1.62-4.47v-7.69h-2.77v-2.81h2.77v-5.29l3.77-.68v5.97h4.41v2.81h-4.41v7.17c0,1.2.26,2.03.78,2.48.52.46,1.24.68,2.14.68.35,0,.69-.05,1.04-.14.35-.09.65-.19.92-.3l.48,2.81c-.4.24-.9.44-1.5.6-.6.16-1.22.24-1.86.24Z"/>
      <path class="cls-2" d="M179.85,182.2v-3.04h2.77v-17.27h-2.77v-3.05h9.74v3.05h-2.77v17.27h8.78v-6.05h3.13v9.1h-18.88Z"/>
      <path class="cls-2" d="M207.3,182.6c-1.92,0-3.39-.44-4.41-1.32-1.02-.88-1.52-2.04-1.52-3.49,0-1.52.55-2.71,1.66-3.55,1.11-.84,2.73-1.26,4.87-1.26.72,0,1.53.07,2.42.2.89.13,1.73.31,2.5.52l-.64.44v-1.92c0-1.01-.33-1.8-1-2.34s-1.67-.82-3.01-.82c-.91,0-1.8.12-2.68.36s-1.72.59-2.52,1.04l-.92-2.97c1.01-.56,2.11-.97,3.29-1.24,1.17-.27,2.24-.4,3.21-.4,2.4,0,4.23.54,5.49,1.62,1.25,1.08,1.88,2.68,1.88,4.79v7.09h2.36v2.84h-5.81v-2.56l.52.44c-.7.8-1.56,1.42-2.61,1.86-1.04.44-2.07.66-3.08.66ZM208.15,179.72c.8,0,1.62-.16,2.46-.48.84-.32,1.49-.73,1.94-1.24l-.36,1.12v-3.89l.64,1.04c-.75-.21-1.48-.37-2.2-.46-.72-.09-1.42-.14-2.08-.14-1.12,0-1.99.17-2.61.52-.61.35-.92.87-.92,1.56,0,.64.27,1.13.8,1.46s1.31.5,2.32.5Z"/>
      <path class="cls-2" d="M230.99,182.6c-1.15,0-2.24-.27-3.29-.8s-1.84-1.3-2.4-2.28l.28-.2v2.88h-5.97v-2.84h2.48v-17.67h-2.77v-2.85h6.53v10.06l-.56.04c.56-1.01,1.36-1.78,2.4-2.3,1.04-.52,2.14-.78,3.29-.78,1.71,0,3.13.4,4.25,1.2,1.12.8,1.97,1.83,2.54,3.09s.86,2.6.86,4.05-.29,2.81-.86,4.09-1.42,2.32-2.54,3.13c-1.12.8-2.54,1.2-4.25,1.2ZM230.27,179.44c1.34,0,2.46-.45,3.39-1.36.92-.91,1.38-2.2,1.38-3.89s-.46-2.93-1.38-3.83c-.92-.89-2.05-1.34-3.39-1.34-.86,0-1.68.17-2.48.5-.8.33-1.51.9-2.12,1.7l.2-1.44v9.02l-.2-1.56c.61.78,1.32,1.34,2.12,1.68.8.35,1.63.52,2.48.52Z"/>
      <path class="cls-2" d="M252.15,182.6c-1.15,0-2.24-.27-3.29-.8s-1.84-1.3-2.4-2.28l.28-.2v2.88h-5.97v-2.84h2.48v-17.67h-2.77v-2.85h6.53v10.06l-.56.04c.56-1.01,1.36-1.78,2.4-2.3,1.04-.52,2.14-.78,3.29-.78,1.71,0,3.13.4,4.25,1.2,1.12.8,1.97,1.83,2.54,3.09s.86,2.6.86,4.05-.29,2.81-.86,4.09-1.42,2.32-2.54,3.13c-1.12.8-2.54,1.2-4.25,1.2ZM251.43,179.44c1.34,0,2.46-.45,3.39-1.36.92-.91,1.38-2.2,1.38-3.89s-.46-2.93-1.38-3.83c-.92-.89-2.05-1.34-3.39-1.34-.86,0-1.68.17-2.48.5-.8.33-1.51.9-2.12,1.7l.2-1.44v9.02l-.2-1.56c.61.78,1.32,1.34,2.12,1.68.8.35,1.63.52,2.48.52Z"/>
    </g>
    <path class="cls-2" d="M145.11,124.06v-9.47h23.69v-9.47c-6.55,0-12.14-2.31-16.76-6.93s-6.93-10.2-6.93-16.76c0-4.82,1.32-9.2,3.97-13.15,2.64-3.95,6.22-6.83,10.72-8.65.63-2.68,2.03-4.86,4.2-6.51s4.64-2.49,7.4-2.49l-2.61-7.34,4.5-1.66-1.66-4.26,9-3.32,1.42,4.5,4.5-1.66,13.03,35.53-4.5,1.66,1.66,4.5-9,3.32-1.42-4.5-4.5,1.66-2.84-7.82c-1.18,1.11-2.55,1.93-4.09,2.49s-3.1.75-4.68.59c-1.74-.16-3.36-.69-4.86-1.6s-2.8-2.03-3.91-3.38c-2.13,1.26-3.81,2.96-5.03,5.09-1.22,2.13-1.84,4.46-1.84,6.99,0,3.95,1.38,7.3,4.14,10.07,2.76,2.76,6.12,4.14,10.07,4.14h37.9v9.47h-23.69v9.47h28.42v9.47h-66.32ZM186.09,69.82l4.26-1.66-8.05-22.26-4.5,1.66,8.29,22.26ZM171.17,67.21c1.34,0,2.47-.45,3.38-1.36.91-.91,1.36-2.03,1.36-3.38s-.45-2.47-1.36-3.38-2.03-1.36-3.38-1.36-2.47.45-3.38,1.36-1.36,2.03-1.36,3.38.45,2.47,1.36,3.38,2.03,1.36,3.38,1.36Z"/>
  </g>
</svg>